<?xml version="1.0" encoding="UTF-8"?>
<svg id="Layer_1" data-name="Layer 1" xmlns="http://www.w3.org/2000/svg" viewBox="0 0 841.89 595.28">
  <defs>
    <style>
      .cls-1 {
        fill: #1c4148;
        stroke-width: 0px;
      }
    </style>
  </defs>
  <path class="cls-1" d="m546.74,372.55l-123.88,72.22c-1.1.64-2.28.68-3.39.03l-124.12-71.91c-1.14-.66-1.59-1.45-1.79-2.77l-.06-82.53-.1-62.12c.19-1.11.49-1.99,1.46-2.56l124.4-72.52c.93-.54,2.18-.47,3.1.06l124.32,72.03c1.07.62,1.43,1.44,1.62,2.67l.07,68.58.07,28.46.05,47.68c-.22,1.19-.54,1.9-1.75,2.66Zm-124.27-206.36l70.7,40.96c1.03.6,1.62,1.5,1.62,2.51s-.6,1.94-1.53,2.56l-27.12,15.8v22.53s56.22-32.76,56.22-32.76l-101.61-58.87-101.47,59.14,56.22,32.55.07-22.44-27.32-15.83c-.95-.64-1.45-1.6-1.37-2.61.07-.89.58-1.79,1.52-2.34l70.32-40.99c1.2-.7,2.3-1.04,3.74-.2Zm.21,143.79l70.64,40.92c1.13.65,1.67,1.54,1.64,2.67-.02.95-.59,1.83-1.52,2.43l-27.15,15.83.09,22.48,60.55-35.29-.19-70.36-19.27,11.19v31.5c-.08,1.08-.49,2.16-1.24,2.61s-2.01.62-2.99.05l-71.02-41.15c-.89-.52-1.56-1.54-1.56-2.57l-.05-47.09-.08-35.22c0-1.01.44-2.17,1.04-2.58.83-.57,1.87-.59,2.92-.36l27.55,15.97,19.34-11.29-60.61-35.14-60.53,35.3,19.34,11.24,27.39-15.95c.89-.39,2.1-.38,2.88.12.58.38,1.2,1.41,1.2,2.47l.15,82.21c0,1.35-.54,2.33-1.65,2.97l-70.88,41.32c-.92.54-2.17.32-2.82-.03-.89-.48-1.25-1.49-1.38-2.59l-.06-31.57-19.32-11.15.02,61.81.16,8.67,60.49,35.03v-22.49s-27.13-15.71-27.13-15.71c-.92-.59-1.56-1.43-1.58-2.37-.02-.88.4-2.02,1.34-2.57l71.07-41.43c.96-.56,2.13-.5,3.22.13Zm117.55-70.53l-.03-11.36-9.78-5.61-68.36,39.85c-.86.5-2.28.16-2.9-.3s-.95-1.37-1.1-2.33l-.02-31.66-19.36-11.19.06,70.41,60.58,35.09.07-22.45-27.48-15.93c-.86-.72-1.33-1.62-1.24-2.66.07-.92.71-1.73,1.71-2.31l67.85-39.56Zm-170.45,39.88c1.12.65,1.44,1.71,1.41,2.57-.03.91-.6,1.76-1.47,2.35l-27.23,15.88.16,22.44,60.48-35.25-.16-70.38-19.31,11.22.02,31.55c-.14,1.11-.56,2.14-1.38,2.61-.65.37-1.87.52-2.73.03l-68.32-39.58-9.76,5.68.04,11.34,68.26,39.55Zm88.44,124.07v-31.59s-19.32-11.16-19.32-11.16l.02,65.37,101.47-59.15-.04-35.91-.08-28.71-.05-53.4-56.18,32.76,19.36,11.24,27.52-16.04c1.03-.24,2.01-.23,2.78.28.54.36,1.15,1.32,1.15,2.28l.18,82.25c0,1.39-.56,2.4-1.71,3.07l-70.89,41.33c-.93.54-2.22.28-2.91-.12-.74-.42-1.12-1.35-1.29-2.5Zm-78.58,2.66l-70.76-40.99c-1.32-.76-1.85-1.85-1.85-3.45l-.03-81.89c0-1.12.77-2.16,1.44-2.49.88-.43,1.8-.36,2.78.04l27.29,15.79,19.29-11.31-56.24-32.6.11,117.99,101.61,58.88-.02-49.13-.1-16.22-19.32,11.26.05,31.94c0,.95-.87,1.97-1.48,2.24-.69.31-1.79.49-2.76-.07Zm41.52,30.34l9.69-5.7-.06-72.88-.04-6.56c0-.76.66-1.9,1.22-2.21.77-.43,1.76-.49,2.72-.24l27.6,15.99,19.3-11.31-60.62-35.14-60.48,35.28,19.32,11.27,27.12-15.83c1.03-.46,1.98-.54,2.92-.1.68.32,1.42,1.46,1.42,2.4l.05,18.01.05,61.33,9.79,5.69Z"/>
</svg>