<svg version="1.2" xmlns="http://www.w3.org/2000/svg" viewBox="0 0 272 308" width="272" height="308">
	<style>
		.s0 { fill: #1c4148 } 
	</style>
	<path class="s0" d="m261.74 230.55l-123.88 72.22c-1.1 0.64-2.28 0.68-3.39 0.03l-124.12-71.91c-1.14-0.66-1.59-1.45-1.79-2.77l-0.06-82.53-0.1-62.12c0.19-1.11 0.49-1.99 1.46-2.56l124.4-72.52c0.93-0.54 2.18-0.47 3.1 0.06l124.32 72.03c1.07 0.62 1.43 1.44 1.62 2.67l0.07 68.58 0.07 28.46 0.05 47.68c-0.22 1.19-0.54 1.9-1.75 2.66zm-124.27-206.36l70.7 40.96c1.03 0.6 1.62 1.5 1.62 2.51 0 1.01-0.6 1.94-1.53 2.56l-27.12 15.8v22.53l56.22-32.76-101.61-58.87-101.47 59.14 56.22 32.55 0.07-22.44-27.32-15.83c-0.95-0.64-1.45-1.6-1.37-2.61 0.07-0.89 0.58-1.79 1.52-2.34l70.32-40.99c1.2-0.7 2.3-1.04 3.74-0.2zm0.21 143.79l70.64 40.92q1.69 0.98 1.64 2.67c-0.02 0.95-0.59 1.83-1.52 2.43l-27.15 15.83 0.09 22.48 60.55-35.29-0.19-70.36-19.27 11.19v31.5c-0.08 1.08-0.49 2.16-1.24 2.61-0.75 0.45-2.01 0.62-2.99 0.05l-71.02-41.15c-0.89-0.52-1.56-1.54-1.56-2.57l-0.05-47.09-0.08-35.22c0-1.01 0.44-2.17 1.04-2.58 0.83-0.57 1.87-0.59 2.92-0.36l27.55 15.97 19.34-11.29-60.61-35.14-60.53 35.3 19.34 11.24 27.39-15.95c0.89-0.39 2.1-0.38 2.88 0.12 0.58 0.38 1.2 1.41 1.2 2.47l0.15 82.21q0.01 2.02-1.65 2.97l-70.88 41.32c-0.92 0.54-2.17 0.32-2.82-0.03-0.89-0.48-1.25-1.49-1.38-2.59l-0.06-31.57-19.32-11.15 0.02 61.81 0.16 8.67 60.49 35.03v-22.49l-27.13-15.71c-0.92-0.59-1.56-1.43-1.58-2.37-0.02-0.88 0.4-2.02 1.34-2.57l71.07-41.43c0.96-0.56 2.13-0.5 3.22 0.13zm117.55-70.53l-0.03-11.36-9.78-5.61-68.36 39.85c-0.86 0.5-2.28 0.16-2.9-0.3-0.62-0.46-0.95-1.37-1.1-2.33l-0.02-31.66-19.36-11.19 0.06 70.41 60.58 35.09 0.07-22.45-27.48-15.93c-0.86-0.72-1.33-1.62-1.24-2.66 0.07-0.92 0.71-1.73 1.71-2.31l67.85-39.56zm-170.45 39.88c1.12 0.65 1.44 1.71 1.41 2.57-0.03 0.91-0.6 1.76-1.47 2.35l-27.23 15.88 0.16 22.44 60.48-35.25-0.16-70.38-19.31 11.22 0.02 31.55c-0.14 1.11-0.56 2.14-1.38 2.61-0.65 0.37-1.87 0.52-2.73 0.03l-68.32-39.58-9.76 5.68 0.04 11.34 68.26 39.55zm88.44 124.07v-31.59l-19.32-11.16 0.02 65.37 101.47-59.15-0.04-35.91-0.08-28.71-0.05-53.4-56.18 32.76 19.36 11.24 27.52-16.04c1.03-0.24 2.01-0.23 2.78 0.28 0.54 0.36 1.15 1.32 1.15 2.28l0.18 82.25q0.01 2.08-1.71 3.07l-70.89 41.33c-0.93 0.54-2.22 0.28-2.91-0.12-0.74-0.42-1.12-1.35-1.3-2.5zm-78.58 2.66l-70.76-40.99c-1.32-0.76-1.85-1.85-1.85-3.45l-0.03-81.89c0-1.12 0.77-2.16 1.44-2.49 0.88-0.43 1.8-0.36 2.78 0.04l27.29 15.79 19.29-11.31-56.24-32.6 0.11 117.99 101.61 58.88-0.02-49.13-0.1-16.22-19.32 11.26 0.05 31.94c0 0.95-0.87 1.97-1.48 2.24-0.69 0.31-1.79 0.49-2.76-0.07zm41.52 30.34l9.69-5.7-0.06-72.88-0.04-6.56c0-0.76 0.66-1.9 1.22-2.21 0.77-0.43 1.76-0.49 2.72-0.24l27.6 15.99 19.3-11.31-60.62-35.14-60.48 35.28 19.32 11.27 27.12-15.83c1.03-0.46 1.98-0.54 2.92-0.1 0.68 0.32 1.42 1.46 1.42 2.4l0.05 18.01 0.05 61.33z"/>
</svg>