<?xml version="1.0" encoding="UTF-8"?>
<svg id="LOGO_ALONE" data-name="LOGO ALONE" xmlns="http://www.w3.org/2000/svg" viewBox="0 0 595.28 595.28">
  <defs>
    <style>
      .cls-1 {
        fill: #e1a93d;
        stroke-width: 0px;
      }
    </style>
  </defs>
  <g id="_9PTs-6" data-name="9PTs">
    <path id="MUSTARD" class="cls-1" d="m495.48,180.82l-21.97-12.68h0s-173.62-100.24-173.62-100.24c-1.39-.8-3.11-.8-4.5,0l-195.59,112.92c-1.39.8-2.25,2.29-2.25,3.9v25.36h0v200.49c0,.8.21,1.58.6,2.25s.95,1.25,1.65,1.65l193.65,111.8,1.94,1.12c.7.4,1.47.6,2.25.6.39,0,.78-.05,1.16-.15.38-.1.75-.25,1.09-.45l195.59-112.92c1.39-.8,2.25-2.29,2.25-3.9v-225.85c0-1.61-.86-3.09-2.25-3.9Zm-371.46-3.59l95.85,55.34,8.91,5.15c.17.1.35.19.54.26.55.23,1.13.34,1.71.34.39,0,.78-.05,1.16-.15.38-.1.75-.25,1.09-.45,1.39-.8,2.25-2.29,2.25-3.9v-46.5l35.65-20.58v115.62l-98.01,56.57v-38.69l40.27-23.25c.25-.14.48-.32.69-.5.98-.85,1.56-2.07,1.56-3.39,0-.4-.05-.8-.16-1.17-.31-1.13-1.05-2.12-2.09-2.72l-106.89-61.72v-20.16l17.48-10.09Zm364.71,30.27l-104.76,60.48c-1.39.8-2.25,2.29-2.25,3.9,0,1.61.86,3.09,2.25,3.9l40.27,23.25v41.16l-100.13-57.81v-113.16s33.52,19.35,33.52,19.35v46.5c0,.4.05.8.15,1.17.31,1.13,1.05,2.12,2.09,2.72.7.4,1.47.6,2.25.6.62,0,1.25-.14,1.83-.39.14-.06.29-.13.42-.21l1.66-.96,105.24-60.75,17.46,10.08v20.18Zm-126.61-26.74l-40.26-23.24c-1.39-.8-3.11-.8-4.5,0-1.39.8-2.25,2.29-2.25,3.9l-.02,123.55c0,1.61.86,3.09,2.25,3.9l109.13,63.01c.7.4,1.47.6,2.25.6s1.55-.2,2.25-.6c1.39-.8,2.25-2.29,2.25-3.9v-48.95l33.52-19.35v115.62s-100.13,57.82-100.13,57.82v-41.17l40.26-23.25c1.39-.8,2.25-2.29,2.25-3.9s-.86-3.09-2.25-3.9l-106.99-61.79c-1.39-.8-3.11-.8-4.5,0l-109.13,63.01c-1.39.8-2.25,2.29-2.25,3.9s.86,3.09,2.25,3.9l42.4,24.48v38.7l-100.13-57.8v-115.63l35.65,20.59v46.49c0,1.61.86,3.09,2.25,3.9.7.4,1.47.6,2.25.6s1.55-.2,2.25-.6l107.01-61.76c1.39-.8,2.25-2.29,2.25-3.9v-126.02c0-1.61-.86-3.09-2.25-3.9-1.39-.8-3.11-.8-4.5,0l-42.4,24.48-33.52-19.35,100.13-57.82,100.14,57.82-35.66,20.58Zm-255.58,37.12l95.64,55.22-31.72,18.31-1.79,1.04-42.4-24.49c-1.39-.8-3.11-.8-4.5,0-1.39.8-2.25,2.29-2.25,3.9v126.03c0,1.61.86,3.09,2.25,3.9l109.13,63c1.39.8,3.11.8,4.5,0,1.39-.8,2.25-2.29,2.25-3.9v-46.5l33.52-19.35v107.98s-164.62-95.04-164.62-95.04v-190.09Zm173.62,290.33v-120.97c0-1.61-.85-3.09-2.24-3.9-.7-.4-1.47-.6-2.25-.6s-1.55.2-2.25.6l-40.27,23.25-35.65-20.58,100.13-57.81,97.99,56.59-33.51,19.35-40.27-23.25c-.7-.4-1.48-.6-2.26-.6-.78,0-1.56.2-2.25.6-1.39.8-2.25,2.29-2.25,3.9v123.43l-17.46,10.08-17.48-10.09Zm43.94-5.19v-110.43l33.51,19.35v48.96c0,1.61.86,3.09,2.25,3.9,1.39.8,3.11.8,4.5,0l109.14-63.01c1.39-.8,2.25-2.29,2.25-3.9v-126.01c0-1.61-.86-3.09-2.26-3.9-1.39-.8-3.11-.8-4.5,0l-40.27,23.25-33.52-19.35,93.51-53.98v190.08l-164.62,95.04Zm138.15-330.98l-95.64,55.22v-38.7s42.41-24.48,42.41-24.48c1.39-.8,2.25-2.29,2.25-3.9,0-1.61-.86-3.09-2.25-3.9l-109.14-63.01c-1.39-.8-3.11-.8-4.5,0l-109.13,63.01c-1.39.8-2.25,2.29-2.25,3.9s.86,3.09,2.25,3.9l40.27,23.25v38.7l-93.51-53.99,164.61-95.04,164.62,95.04Z"/>
  </g>
</svg>