<?xml version="1.0" encoding="UTF-8"?>
<svg id="Layer_1" data-name="Layer 1" xmlns="http://www.w3.org/2000/svg" viewBox="0 0 841.89 595.28">
  <defs>
    <style>
      .cls-1 {
        fill: #18213e;
        stroke-width: 0px;
      }
    </style>
  </defs>
  <path class="cls-1" d="m537.15,295.14c3.56-5.69,6.59-11.83,9.03-18.35,3.69-9.86,6.07-20.6,7.06-31.94.51-5.82.32-13.39-.46-18.41l-.43-2.76-2.18-1.76c-4.12-3.32-10.89-7.89-15.88-10.22-20.8-9.7-42.61-13.43-63.08-10.79-18.96,2.45-36.24,10.34-50.38,22.92-6.27-5.61-13.13-10.3-20.46-13.97-5.49-2.75-11.25-4.93-17.2-6.53-2.81,4.29-5.14,8.7-6.97,13.22,14.79,3.33,28.27,10.82,39.43,22.35l5.2,5.37,5.2-5.37c25.39-26.23,64.53-31.62,102.15-14.08,3,1.4,7.29,4.16,10.62,6.61.31,3.74.34,8.56.03,12.15-1.3,14.87-5.16,28.12-11.28,39.41,1.97,2.11,3.85,4.31,5.62,6.6,1.39,1.79,2.71,3.64,3.98,5.54Z"/>
  <g>
    <path class="cls-1" d="m371.32,331.63l2.01-7.16-7.22-1.81c-35.89-8.99-58.54-37.81-62.15-79.07-.42-4.83-.56-9.22-.41-12.39,3.4-2.34,8.01-4.95,11.06-6.38,13.51-6.3,27.03-9.67,40-10.18.89-2.72,1.92-5.41,3.09-8.08.95-2.17,1.99-4.32,3.11-6.44-17.12-.43-35.01,3.5-52.32,11.57-4.69,2.19-12.1,6.51-16.38,9.96l-2.18,1.76-.43,2.76c-.85,5.42-.45,13.14.04,18.67.99,11.34,3.32,22.09,6.92,31.93,3.65,9.97,8.61,19.04,14.74,26.95,6.26,8.08,13.75,14.97,22.27,20.47,6.78,4.39,14.23,7.91,22.22,10.51-1.67,8.2-2.22,16.36-1.63,24.33.46,6.24,1.61,12.4,3.43,18.43,5.05,0,10-.46,14.81-1.34-4.9-14.06-5.31-29.07-.98-44.5Z"/>
    <path class="cls-1" d="m523.3,312.36c-2.42-4.37-5.2-8.41-8.3-12.12-10.21,10.61-23.38,18.18-39.06,22.11l-7.29,1.83,2.1,7.22c9.98,34.32-3.64,66.76-38.36,91.32-3.28,2.32-7.66,5.09-11.03,6.83-2.19-1.13-5.56-3.11-10.54-6.56-12.03-8.33-21.58-17.62-28.56-27.61-3.66.91-7.39,1.62-11.17,2.11-1.45.19-2.92.34-4.4.47,3.23,5.36,7.06,10.55,11.44,15.5,6.82,7.71,15.05,14.92,24.44,21.43,6.8,4.71,12.26,7.87,16.23,9.38l2.61,1,2.6-1.02c6.59-2.58,15.71-8.98,16.73-9.7,19.17-13.56,32.81-29.41,40.55-47.1,7.36-16.83,9.08-34.64,5.13-53.04,7.97-2.59,15.42-6.08,22.22-10.42,5.29-3.37,10.19-7.26,14.65-11.62Z"/>
  </g>
  <g>
    <g>
      <path class="cls-1" d="m304.74,300.13c-3.56,5.69-6.59,11.83-9.03,18.35-3.69,9.86-6.07,20.6-7.06,31.94-.51,5.82-.32,13.39.46,18.41l.43,2.76,2.18,1.76c4.12,3.32,10.89,7.89,15.88,10.22,16.46,7.68,33.55,11.61,50.11,11.61,4.37,0,8.7-.27,12.97-.83,18.96-2.45,36.24-10.34,50.38-22.93,6.27,5.61,13.13,10.3,20.46,13.97,5.49,2.75,11.25,4.93,17.2,6.53,2.81-4.29,5.14-8.7,6.97-13.22-14.79-3.33-28.27-10.82-39.43-22.35l-5.2-5.37-5.2,5.37c-25.39,26.23-64.53,31.62-102.15,14.08-3-1.4-7.29-4.16-10.62-6.61-.31-3.74-.34-8.56-.03-12.15,1.3-14.87,5.16-28.12,11.28-39.41-1.97-2.11-3.85-4.31-5.62-6.6-1.39-1.79-2.71-3.64-3.98-5.54Z"/>
      <path class="cls-1" d="m409.51,172.56c3.28-2.32,7.66-5.09,11.03-6.83,2.19,1.13,5.56,3.11,10.54,6.56,12.03,8.33,21.58,17.62,28.56,27.61,3.66-.91,7.39-1.62,11.17-2.11,1.45-.19,2.92-.34,4.4-.47-3.23-5.36-7.06-10.55-11.44-15.5-6.82-7.71-15.05-14.92-24.44-21.43-6.8-4.71-12.26-7.87-16.23-9.38l-2.61-1-2.6,1.02c-6.59,2.58-15.71,8.98-16.73,9.7-19.17,13.56-32.81,29.41-40.55,47.1-7.36,16.83-9.08,34.64-5.13,53.04-7.97,2.59-15.42,6.08-22.22,10.42-5.29,3.37-10.19,7.26-14.65,11.62,2.42,4.37,5.2,8.41,8.3,12.12,10.21-10.61,23.38-18.18,39.06-22.11l7.29-1.83-2.1-7.22c-9.98-34.32,3.64-66.76,38.36-91.32Z"/>
    </g>
    <path class="cls-1" d="m552.34,350.42c-.99-11.34-3.32-22.09-6.92-31.93-3.65-9.97-8.61-19.04-14.74-26.95-6.26-8.08-13.75-14.97-22.27-20.47-6.78-4.39-14.23-7.91-22.22-10.51,1.67-8.2,2.22-16.36,1.63-24.33-.46-6.24-1.61-12.4-3.43-18.43-5.05,0-10,.46-14.81,1.34,4.9,14.06,5.31,29.06.98,44.5l-2.01,7.16,7.22,1.81c35.89,8.99,58.54,37.81,62.15,79.07.42,4.83.56,9.22.41,12.39-3.4,2.34-8.01,4.95-11.06,6.38-13.51,6.3-27.03,9.67-40,10.18-.89,2.72-1.92,5.41-3.09,8.08-.95,2.17-1.99,4.32-3.11,6.44.85.02,1.7.04,2.55.04,16.34,0,33.31-3.94,49.77-11.61,4.69-2.19,12.1-6.51,16.38-9.96l2.18-1.76.43-2.76c.85-5.42.45-13.14-.04-18.67Z"/>
  </g>
</svg>