<?xml version="1.0" encoding="UTF-8"?>
<svg id="LOGO_ALONE" data-name="LOGO ALONE" xmlns="http://www.w3.org/2000/svg" viewBox="0 0 595.28 595.28">
  <defs>
    <style>
      .cls-1 {
        fill: #eae8d8;
        stroke-width: 0px;
      }
    </style>
  </defs>
  <g id="_4PTs-6" data-name="4PTs">
    <path id="BEIGE" class="cls-1" d="m494.23,182.98l-21.97-12.68s0,0,0,0l-173.62-100.24c-.62-.36-1.38-.36-2,0l-195.59,112.92c-.62.36-1,1.02-1,1.73v25.36h0v200.49c0,.71.38,1.38,1,1.73l195.59,112.92c.31.18.65.27,1,.27s.69-.09,1-.27l195.59-112.92c.62-.36,1-1.02,1-1.73v-225.85c0-.71-.38-1.38-1-1.73Zm-88.6,200.07l-106.99-61.79c-.62-.36-1.38-.36-2,0l-109.13,63.01c-.62.36-1,1.02-1,1.73s.38,1.38,1,1.73l43.65,25.2v44.48l-105.13-60.69v-121.41l40.65,23.48v47.93c0,.71.38,1.38,1,1.73.31.18.65.27,1,.27s.69-.09,1-.27l107.01-61.76c.62-.36,1-1.02,1-1.73v-126.02c0-.71-.38-1.38-1-1.73-.62-.36-1.38-.36-2,0l-43.65,25.2-38.52-22.24,105.13-60.7,105.14,60.7-40.66,23.47-41.51-23.96c-.62-.36-1.38-.36-2,0-.62.36-1,1.02-1,1.73l-.02,123.55c0,.71.38,1.38,1,1.73l109.13,63.01c.31.18.66.27,1,.27s.69-.09,1-.27c.62-.36,1-1.02,1-1.73v-50.4l38.52-22.24v121.39s-105.13,60.7-105.13,60.7v-46.94l41.51-23.97c.62-.36,1-1.02,1-1.73s-.38-1.38-1-1.73Zm-131.97,124.28l-169.61-97.93v-195.86l103.14,59.55-38.52,22.24-43.65-25.21c-.62-.36-1.38-.36-2,0s-1,1.02-1,1.73v126.03c0,.71.38,1.38,1,1.73l109.13,63c.62.36,1.38.36,2,0,.62-.36,1-1.02,1-1.73v-47.94l38.52-22.24v116.64ZM124.02,174.34l106.01,61.21c.62.36,1.38.36,2,0,.62-.36,1-1.02,1-1.73v-47.94l40.65-23.47v121.4l-103.01,59.46v-44.46l26.48-15.29,15.04-8.68c.31-.18.56-.43.73-.73.17-.3.27-.64.27-1,0-.71-.38-1.38-1-1.73l-108.14-62.44v-23.05l19.98-11.53Zm347.25,0l19.96,11.52v23.07l-106.02,61.2c-.62.36-1,1.02-1,1.73s.38,1.38,1,1.73l41.52,23.97v46.93l-105.13-60.7v-118.94s38.52,22.23,38.52,22.23v47.94c0,.18.02.35.07.52.14.5.47.94.93,1.21.04.02.08.03.11.05.6.3,1.31.29,1.89-.05l1.65-.95,106.5-61.48Zm-149.66,333v-119.09l38.51,22.24v50.41c0,.71.38,1.38,1,1.73.62.36,1.38.36,2,0l109.14-63.01c.62-.36,1-1.02,1-1.73v-126.01c0-.71-.39-1.38-1.01-1.73s-1.38-.36-2,0l-41.52,23.97-38.52-22.24,101.02-58.31v195.85l-169.62,97.93Zm145.65-335.31l-103.14,59.55v-44.48s43.66-25.2,43.66-25.2c.62-.36,1-1.02,1-1.73s-.38-1.38-1-1.73l-109.14-63.01c-.62-.36-1.38-.36-2,0l-109.13,63.01c-.62.36-1,1.02-1,1.73s.38,1.38,1,1.73l41.52,23.97v44.48l-101.01-58.33,169.62-97.93,169.62,97.93Zm-189.6,337.61v-122.41c0-.71-.37-1.38-.99-1.73-.62-.36-1.38-.36-2,0l-41.52,23.97-40.65-23.47,105.13-60.7,102.99,59.48-38.51,22.23-41.52-23.97c-.31-.18-.66-.27-1-.27-.35,0-.69.09-1,.27-.62.36-1,1.02-1,1.73v124.88l-19.96,11.52-19.98-11.53Z"/>
  </g>
</svg>