<svg version="1.2" xmlns="http://www.w3.org/2000/svg" viewBox="0 0 756 533" width="756" height="533">
	<style>
		.s0 { fill: #0f2041 } 
	</style>
	<g>
		<path class="s0" d="m512.31 173.67c4.12-6.58 7.62-13.68 10.45-21.22 4.27-11.4 7.02-23.82 8.16-36.93 0.59-6.73 0.37-15.48-0.54-21.28l-0.5-3.2-2.52-2.03c-4.76-3.84-12.59-9.13-18.36-11.81-24.05-11.22-49.27-15.53-72.94-12.47-21.92 2.83-41.91 11.95-58.26 26.51-7.25-6.49-15.18-11.9-23.66-16.15-6.35-3.18-13-5.71-19.89-7.56q-4.88 7.44-8.06 15.29c17.1 3.85 32.69 12.51 45.59 25.84l6.01 6.21 6.01-6.21c29.36-30.33 74.62-36.57 118.11-16.28 3.47 1.62 8.42 4.81 12.28 7.64 0.36 4.33 0.39 9.9 0.03 14.05-1.5 17.19-5.96 32.52-13.04 45.57q3.42 3.66 6.5 7.63 2.4 3.11 4.6 6.4z"/>
		<g>
			<path class="s0" d="m320.57 215.86l2.32-8.28-8.34-2.09c-41.49-10.4-67.68-43.72-71.86-91.42-0.49-5.59-0.65-10.66-0.48-14.32 3.93-2.7 9.26-5.73 12.79-7.37 15.63-7.29 31.26-11.18 46.25-11.77q1.55-4.72 3.57-9.34 1.65-3.77 3.6-7.44c-19.79-0.5-40.48 4.05-60.49 13.38-5.43 2.53-13.99 7.53-18.94 11.51l-2.52 2.03-0.5 3.2c-0.98 6.27-0.52 15.2 0.04 21.59 1.15 13.12 3.84 25.54 8.01 36.92 4.22 11.53 9.95 22.01 17.05 31.16 7.24 9.34 15.9 17.31 25.75 23.67 7.84 5.07 16.45 9.14 25.69 12.15-1.93 9.48-2.56 18.91-1.89 28.13 0.53 7.21 1.86 14.34 3.97 21.3q8.77-0.01 17.13-1.55c-5.67-16.25-6.14-33.61-1.14-51.45z"/>
			<path class="s0" d="m496.3 193.58q-4.21-7.58-9.6-14.01c-11.8 12.27-27.04 21.02-45.17 25.57l-8.43 2.11 2.43 8.34c11.54 39.69-4.21 77.19-44.36 105.59-3.8 2.69-8.86 5.88-12.76 7.89-2.54-1.31-6.43-3.6-12.19-7.58-13.91-9.64-24.96-20.37-33.02-31.93q-6.35 1.58-12.92 2.44-2.52 0.33-5.09 0.54 5.62 9.31 13.23 17.92c7.89 8.92 17.4 17.26 28.26 24.78 7.87 5.45 14.18 9.1 18.76 10.85l3.02 1.15 3.01-1.18c7.62-2.99 18.17-10.39 19.35-11.22 22.17-15.68 37.94-34.01 46.89-54.46 8.51-19.46 10.5-40.06 5.93-61.33 9.22-2.99 17.83-7.03 25.69-12.04 6.11-3.9 11.78-8.39 16.94-13.43z"/>
		</g>
		<g>
			<g>
				<path class="s0" d="m243.58 179.44c-4.12 6.58-7.62 13.68-10.45 21.22-4.27 11.4-7.02 23.82-8.16 36.93-0.59 6.73-0.37 15.48 0.54 21.28l0.5 3.2 2.52 2.03c4.76 3.84 12.59 9.13 18.36 11.81 19.03 8.87 38.8 13.43 57.94 13.43q7.58 0 15-0.95c21.92-2.83 41.91-11.95 58.26-26.51 7.25 6.49 15.18 11.9 23.66 16.15 6.35 3.18 13 5.71 19.89 7.56q4.88-7.44 8.06-15.29c-17.1-3.85-32.69-12.51-45.59-25.84l-6.01-6.21-6.01 6.21c-29.36 30.33-74.62 36.57-118.11 16.28-3.47-1.62-8.42-4.81-12.28-7.64-0.36-4.33-0.39-9.9-0.03-14.05 1.5-17.19 5.96-32.52 13.04-45.57q-3.41-3.66-6.5-7.63-2.4-3.11-4.6-6.4z"/>
				<path class="s0" d="m364.72 31.92c3.8-2.69 8.86-5.88 12.76-7.89 2.54 1.31 6.43 3.6 12.19 7.58 13.91 9.64 24.96 20.37 33.02 31.92q6.35-1.58 12.92-2.44 2.52-0.33 5.09-0.54-5.62-9.31-13.23-17.92c-7.89-8.92-17.4-17.26-28.26-24.78-7.87-5.45-14.18-9.1-18.76-10.84l-3.02-1.15-3.01 1.18c-7.62 2.99-18.17 10.39-19.35 11.22-22.17 15.68-37.94 34.01-46.89 54.46-8.51 19.46-10.5 40.06-5.93 61.33-9.22 2.99-17.83 7.03-25.69 12.04-6.11 3.9-11.78 8.39-16.94 13.43q4.21 7.58 9.6 14.01c11.8-12.27 27.04-21.02 45.17-25.57l8.43-2.11-2.43-8.34c-11.54-39.69 4.21-77.19 44.36-105.59z"/>
			</g>
			<path class="s0" d="m529.88 237.58c-1.15-13.12-3.84-25.54-8.01-36.92-4.22-11.53-9.95-22.01-17.05-31.16-7.24-9.34-15.9-17.31-25.75-23.67-7.84-5.07-16.45-9.14-25.69-12.15 1.93-9.48 2.56-18.91 1.89-28.13-0.53-7.21-1.86-14.34-3.97-21.3q-8.77 0.01-17.13 1.55c5.66 16.25 6.14 33.61 1.14 51.45l-2.32 8.28 8.34 2.09c41.49 10.4 67.68 43.72 71.86 91.42 0.49 5.59 0.65 10.66 0.48 14.32-3.93 2.7-9.26 5.73-12.79 7.37-15.63 7.29-31.26 11.18-46.25 11.77q-1.54 4.72-3.57 9.34-1.65 3.77-3.6 7.44 1.47 0.04 2.95 0.04c18.89 0 38.52-4.55 57.54-13.42 5.43-2.53 13.99-7.53 18.94-11.51l2.52-2.03 0.5-3.2c0.98-6.27 0.52-15.2-0.04-21.59z"/>
		</g>
	</g>
	<g>
		<g>
			<path class="s0" d="m557.41 385.94c1.02-0.35 6.37-6.43 6.37-7.87 0-1.44-4.33-6.02-6.72-6.02-2.39 0-6.05 4.17-6.88 5.25-0.83 1.08 0.13 2.39 0.13 2.39 0 0 6.08 6.59 7.1 6.25z"/>
			<path class="s0" d="m692.63 388.03c0.61-0.21 2.88-2.63 4.4-4.66 0.38-0.51 1.12-0.55 1.56-0.1 1.61 1.68 4.89 4.99 5.59 4.75 0.93-0.32 5.82-5.88 5.82-7.19 0-1.31-3.96-5.5-6.14-5.5-1.66 0-4 2.21-5.35 3.7-0.28 0.31-0.77 0.3-1.02-0.03-1.31-1.67-3.66-3.67-5.17-3.67-2.18 0-5.53 3.81-6.28 4.8-0.76 0.99 0.12 2.18 0.12 2.18 0 0 5.56 6.02 6.49 5.7z"/>
			<path class="s0" d="m752.75 410.82c-0.96-16.62-10.57-18.6-14.97-17.77-4.39 0.83-11.32 14.54-16.92 17.26-4.67 2.26-11.64 0.41-13.85-0.28-0.4-0.13-0.65-0.52-0.6-0.94v-0.05c0.6-6.96-0.24-13.16-1.86-14.5-0.85-0.7-6.19 2.29-8.42 3.59-0.69 0.4-1.17 1.08-1.31 1.87-0.17 1.02-0.24 2.54 0.38 4.12 1.16 2.93 0.51 6.79 0.51 6.79 0 0-18.68 1.02-20.21 0-1.53-1.02-18.94-20.72-26.24-20.72-7.3 0-11.63 7.73-11.63 7.73 0 0-0.85 4.93 0.93 5.52 1.78 0.59 1.44-1.95 9.09-1.95 7.65 0 11.46 10.62 11.46 10.62h-78.6c0 0-2.29 0.38-3.18-1.66-0.89-2.04 0.25-5.22-2.93-11.97-3.18-6.75-7.9-9.17-10.83-9.3-2.93-0.13-8.92 3.82-10.83 8.66-1.47 3.73-1.05 10.68-0.78 13.67 0.07 0.8-0.51 1.5-1.31 1.57-3.34 0.32-11.88 1.06-19.56 1.06-9.81 0-11.01-5.01-10.45-8.24 0.76-4.33-1.02-5.14-4.01-1.57-2.99 3.57-2.74 15.54 0 21.53 2.74 5.99 8.53 5.31 8.53 5.31h186.55c0 0 5.39-0.55 8.49-1.57 3.1-1.02 4.88-2.55 6.88-2.55 2 0 4.54 1.66 4.54 1.66 0 0 8.68 4.73 12.76 4.73 4.08 0 9.3-5.99 8.34-22.61zm-187.19 0.06c0 0-4.14-1.97-4.9-3.89-0.76-1.91-0.38-4.33 1.91-5.54 2.29-1.21 4.71 1.59 5.48 4.71 0.76 3.12 1.97 6.94-2.48 4.71zm174.9 0.76c-2.99-0.7-5.6-1.78-5.54-3.31 0 0 0.76-2.93 2.93-4.33 2.17-1.4 4.65 1.34 5.35 4.33 0.7 2.99 0.25 4.01-2.74 3.31z"/>
		</g>
		<g>
			<path class="s0" d="m490.46 376.47c-0.21-2.12-3.18-1.15-6.16-0.3-1.43 0.41-3.02 1.21-4.29 1.93-1.32 0.75-2 2.25-1.7 3.73 2.03 10.05 3.1 45.55 3.1 45.55 0 0 0.51 2.93 3.69 2.93 3.18 0 4.2-10.7 5.35-26.62 1.15-15.92 0.21-25.09 0.01-27.22z"/>
			<path class="s0" d="m456.2 379.73q-0.01 0.09-0.02 0.21c-0.07 1.66 1.17 7.01 1.17 7.01 1.49 7.43 1.57 23.68 1.57 23.68 0 0-12.53 0.18-13.04 0-0.51-0.18-0.55-0.79-0.55-0.79 0 0 0.3-1.36-1.57-9.04-1.87-7.69-8.45-11.7-10.62-11.89-2.17-0.19-5.01 0.83-9.62 5.22-4.14 3.95-4.59 10.06-3.63 13.12 0.43 1.37 0.45 2.49 0.41 3.15-0.03 0.38-0.34 0.67-0.72 0.67h-33.41c-1.06-0.42-1.57-1.53-1.57-1.53-1.44-8.24-5.05-14.1-5.05-14.1-2.38-0.08-7.9 5.39-7.9 5.39 0 0-0.93 0.89-0.76 3.48 0.17 2.59 6.88 16.52 5.27 19.15-1.61 2.63-6.16 5.14-14.22 5.56-8.07 0.42-12.91-4.93-13.71-9.43-0.81-4.5 1.23-9.38 1.23-9.38-0.04-4.67-3.74-0.81-3.74-0.81 0 0-4.54 6.75-5.82 17.83-1.27 11.08 8.03 19.11 20.76 19.11 12.73 0 20.32-14.46 21.91-15.99 1.59-1.53 5.39-0.06 5.39-0.06 6.96 2.67 47.39 1.06 50.61 1.06 3.22 0 2.46-4.84 5.86-1.61 3.4 3.23 12.65 2.04 16.9 2.04 4.25 0 5.77 0.42 8.15-7.22 2.38-7.64 0.04-33.63 0.51-34.48 0.47-0.85 2.93-3.52 2.93-3.52 0.59-3.14-3.52-11.38-3.52-11.38-2.21-1.45-12.99 3.19-13.2 4.55zm-22.04 30.99c0 0-4.14-1.97-4.9-3.89-0.76-1.92-0.38-4.33 1.91-5.54 2.29-1.21 4.71 1.59 5.48 4.71 0.76 3.12 1.97 6.94-2.48 4.71z"/>
			<path class="s0" d="m428.65 383.01c2.39 0 6.05-4.17 6.88-5.25 0.83-1.08-0.13-2.39-0.13-2.39 0 0-6.08-6.59-7.1-6.24-1.02 0.35-6.37 6.43-6.37 7.87 0 1.44 4.33 6.02 6.72 6.01z"/>
			<path class="s0" d="m362.62 397.44c2.39 0 6.05-4.33 6.88-5.46 0.83-1.12-0.13-2.48-0.13-2.48 0 0-6.08-6.84-7.1-6.48-1.02 0.36-6.37 6.68-6.37 8.17 0 1.49 4.33 6.25 6.72 6.25z"/>
		</g>
		<g>
			<path class="s0" d="m296.36 369.29c-2.2 0.32-9.33 3.31-9.68 4.2-0.35 0.89 0.03 9.11 0.35 10.06 0.32 0.96 1.27 1.27 1.27 1.27 0.72 5.94 0.08 13.55 0.08 13.55 0 0-0.34 1.91-1.91 1.27-1.57-0.64-0.72-3.61-10.79-14.95-10.06-11.34-16.18-14.27-20.13-11.08-3.95 3.18-7.01 10.32-2.8 15.92 4.2 5.6 13.38 9.87 14.39 9.49 1.02-0.38 1.72-2.29 1.72-2.29 6.11 3.31 9.49 10.76 9.49 10.76-3.44 5.73-16.18 5.86-17.07 7.2-0.74 1.12 0.29 12.21 0.65 15.85 0.07 0.66 0.61 1.17 1.28 1.19 3.34 0.11 12.98 0.33 16.48-0.62 4.27-1.15 12.17-4.73 13.18-10.34 0.81-4.48-1.14-10.73-1.95-13.06-0.2-0.58-0.11-1.23 0.25-1.73 1.22-1.71 4.07-5.86 5.78-9.83 1.82-4.22 1.98-9.96 1.98-11.91 0-0.42 0.21-0.8 0.55-1.04 0.77-0.54 2.1-1.65 2.44-3.04 0.48-1.97-2.29-8.44-2.67-9.59-0.38-1.15-0.7-1.62-2.9-1.31zm-12.69 48.41c0 0-4.83 0.83-6.4 0.24-0.31-0.12-0.35-0.53-0.07-0.7 1.16-0.71 4.44-2.82 5.62-4.4 1.44-1.93 0.85 4.86 0.85 4.86z"/>
			<path class="s0" d="m317.22 376.47c-0.21-2.12-3.18-1.15-6.16-0.3-1.43 0.41-3.02 1.21-4.29 1.93-1.32 0.75-2 2.25-1.7 3.73 2.03 10.05 3.1 45.55 3.1 45.55 0 0 0.51 2.93 3.69 2.93 3.18 0 4.2-10.7 5.35-26.62 1.15-15.92 0.21-25.09 0.01-27.22z"/>
			<path class="s0" d="m241.94 392.89c-1.89 0.1-6.13 4.26-7.64 5.81-0.34 0.35-0.45 0.86-0.29 1.32 0.6 1.72 2.07 6 2.54 8.01 0.59 2.55 0.81 6.75-3.44 4.93-4.96-2.13-10.02-11.38-10.79-12.14-0.76-0.76-1.7-0.51-3.44 0-1.74 0.51 0.51 2.72-1.7 6.75-2.21 4.03-9.38 4.97-12.19 2.38-2.8-2.59-3.14-9.64-3.14-9.64-1.36-0.17-4.54-0.59-5.18 2.76-0.64 3.35-0.08 6.07-3.35 7.47-3.27 1.4-8.2-0.17-8.49-1.32-0.3-1.15-0.17-4.93-0.68-16.05-0.38-8.37-0.72-14.62-0.86-17.21-0.04-0.74-0.72-1.27-1.45-1.15-3.46 0.56-6.44 2.26-7.78 3.13-0.48 0.31-0.74 0.85-0.7 1.42 0.3 3.61 1.42 17.18 1.71 21.36 0.34 4.84 0.13 7.75-1.15 9.98-1.27 2.23-2.99-0.13-2.99-0.13-0.57-6.5-3.89-14.52-3.89-14.52-4.14-9.77-8.7-15.19-10.33-16.94-0.39-0.41-0.96-0.6-1.51-0.5-6.44 1.15-9.02 5.24-9.69 6.54q-0.18 0.37-0.19 0.78c-0.05 7.73 4.04 14.29 5.29 15.6 1.27 1.34 3.76-0.51 5.41 0.51 1.66 1.02 8.28 10.76 6.62 13.69-1.35 2.38-7.66 3.63-9.97 4.01-0.47 0.08-0.79 0.53-0.71 1 2.36 13.99 7.44 14.35 7.44 14.35 6.64-0.69 15.23-7.19 17.9-9.32 0.45-0.36 1.1-0.27 1.44 0.19 0.91 1.25 2 3.06 3.46 3.72 2.01 0.91 4.2 1.64 6.43 1.97 2.37 0.35 4.8 0.23 7.18 0.26 5.22 0.07 10.45 0.16 15.67 0.09 2.65-0.04 5.7 0.33 8.16-0.74 2.75-1.2 4.88-3.68 8.11-3.02 3.57 0.72 6.67 5.97 10.62 3.94 3.95-2.03 6.17-9.84 7.15-13.75 1.4-5.6 1.87-9.89 0.93-15.33-0.93-5.44-2.18-10.33-4.5-10.2z"/>
			<path class="s0" d="m130.31 392.3c-5.44-0.51-8.96 3.49-14.61 12.63-4.27 6.9-15.03 6.2-15.03 6.2 0 0-54.71 0.7-59.62-1.78-4.9-2.48-9.43-0.91-9.43-0.91-3.74 3.57-4.59 10.45-3.4 15.03 1.19 4.59 10.7 7.64 10.7 7.64-5.01 3.65-8.32 4.59-14.69 3.23-6.37-1.36-10.36-6.45-10.87-12.23-0.51-5.77 2.21-10.19-0.17-10.96-2.38-0.76-7.56 7.98-7.56 7.98-7.3 15.63 1.36 31.25 17.66 31.25 16.3 0 25.82-18.86 25.82-18.86h56.56c3.82 0 6.28-4.67 10.79-4.5 4.5 0.17 8.24 5.1 14.18 6.37 5.94 1.27 7.05-2.8 9.17-6.45 2.12-3.65 1.36-17.66 1.02-22.02-0.34-4.36-5.1-12.12-10.53-12.63zm-0.47 18.9c-1.27 0.06-4.78-1.3-4.78-1.3 0 0-2.04-0.81-1.08-2.72 0.7-1.4 2.45-2.79 3.34-3.44 0.32-0.23 0.75-0.21 1.04 0.06 1.02 0.93 3.26 3.16 3.26 4.79 0 2.1-0.51 2.55-1.78 2.61z"/>
		</g>
	</g>
	<g>
		<path fill-rule="evenodd" class="s0" d="m2.82 469.49h9.45v58.96h-9.45z"/>
		<path class="s0" d="m37.6 501.92c-5.99-1.32-5.99-2.82-5.99-3.64 0-1.66 2.04-2.91 4.74-2.91 2.7 0 4.54 1.05 4.84 2.75l0.29 1.65h8.43l-0.2-2.18c-0.64-6.9-6.01-11.54-13.36-11.54-8 0-13.37 4.92-13.37 12.23 0 8.91 7.38 11.61 12.93 12.86 6.25 1.41 6.53 2.34 6.53 4.14 0 2.26-2.5 3.84-6.09 3.84-3.59 0-5.82-2.14-6.11-4.13l-0.25-1.71h-8.38l0.1 2.09c0.35 7.7 6.37 13.07 14.64 13.07 8.89 0 14.64-5.17 14.64-13.16 0-7.21-4-11.21-13.39-13.36z"/>
		<path class="s0" d="m565.49 501.92c-5.99-1.32-5.99-2.82-5.99-3.64 0-1.66 2.04-2.91 4.74-2.91 2.7 0 4.54 1.05 4.84 2.75l0.29 1.65h8.43l-0.2-2.18c-0.64-6.9-6.01-11.54-13.36-11.54-8 0-13.37 4.92-13.37 12.23 0 8.91 7.38 11.61 12.93 12.86 6.25 1.41 6.53 2.34 6.53 4.14 0 2.26-2.5 3.84-6.09 3.84-3.59 0-5.82-2.14-6.11-4.13l-0.25-1.71h-8.38l0.1 2.09c0.35 7.7 6.37 13.07 14.64 13.07 8.89 0 14.64-5.17 14.64-13.16 0-7.21-4-11.21-13.39-13.36z"/>
		<path fill-rule="evenodd" class="s0" d="m57.5 470.26h9v57.42h-9z"/>
		<path class="s0" d="m110.56 489.67c-3.55-2.68-7.85-4.16-12.32-4.16-11.94 0-21.65 9.71-21.65 21.65 0 11.94 9.92 21.83 21.65 21.83 4.46 0 8.76-1.52 12.32-4.26v3.49h9.77v-42.1h-9.77c0 0 0 3.56 0 3.55zm-0.35 17.49c0 6.36-5.79 12.15-12.15 12.15-6.36 0-11.46-5.45-11.46-12.15 0-6.7 5.03-11.97 11.46-11.97 6.43 0 12.15 5.48 12.15 11.97z"/>
		<path class="s0" d="m181.61 485.51c-5.89 0-10.9 2.28-14.42 6.5-2.89-4.42-7.7-6.5-14.86-6.5-4.16 0-7.9 1.15-11.02 3.37v-2.68h-10.6v42.79h10.6v-19.99c0-8.74 3.6-12.99 11.02-12.99 3.29 0 7.67 1.12 7.67 10.82v22.16h10.6v-19.99c0-8.74 3.6-12.99 11.02-12.99 3.29 0 7.67 1.12 7.67 10.82v22.16h10.6v-22.16c0-14.74-5.63-21.32-18.26-21.32z"/>
		<path class="s0" d="m734.81 485.51c-5.89 0-10.9 2.28-14.42 6.5-2.89-4.42-7.7-6.5-14.86-6.5-4.16 0-7.9 1.15-11.02 3.37v-2.68h-10.6v42.79h10.6v-19.99c0-8.74 3.6-12.99 11.02-12.99 3.29 0 7.67 1.12 7.67 10.82v22.16h10.6v-19.99c0-8.74 3.6-12.99 11.02-12.99 3.29 0 7.67 1.12 7.67 10.82v22.16h10.6v-22.16c0-14.74-5.63-21.32-18.26-21.32z"/>
		<path class="s0" d="m212.89 470.26c-3.03 0-5.59 2.49-5.59 5.44 0 3.13 2.45 5.59 5.59 5.59 3.14 0 5.51-2.51 5.51-5.59 0-2.9-2.58-5.44-5.51-5.44z"/>
		<path fill-rule="evenodd" class="s0" d="m208.35 483.95h9.23v44.5h-9.23z"/>
		<path class="s0" d="m259.01 512.9c-2.12 3.92-6.03 6.36-10.21 6.36-6.29 0-11.61-5.55-11.61-12.12 0-6.57 5.1-11.95 11.61-11.95 4.3 0 8.12 2.31 10.21 6.18l0.57 1.05h10.51l-0.99-2.68c-3.13-8.5-11.28-14.22-20.29-14.22-11.92 0-21.62 9.7-21.62 21.62 0 11.92 9.9 21.79 21.62 21.79 9.19 0 17.39-5.8 20.39-14.42l0.92-2.65h-10.54c0 0-0.57 1.05-0.57 1.04z"/>
		<path class="s0" d="m320 470.26l-23.6 57.42h9.72l4.68-11.35h26.28l4.91 11.35h9.69l-23.6-57.42zm-5.44 36.84l9.49-22.98 9.26 22.98z"/>
		<path class="s0" d="m363.87 488.17v-2.14h-9v41.65h9v-24.91c0-5.76 4.6-8.33 9.15-8.33h2v-8.93h-2c-3.34 0-6.48 0.93-9.15 2.66z"/>
		<path fill-rule="evenodd" class="s0" d="m392.91 470.26h-9.9v15.27h-5.82v9.37h5.82v33.44h9.9v-33.44h8.74v-9.37h-8.74v-15.27z"/>
		<path fill-rule="evenodd" class="s0" d="m460.59 515.2l-19.65-45.64h-9.68v58.82h9.6v-34.48l15.13 34.48h9.29l15.05-34.45v34.45h9.6v-58.82h-9.68l-19.66 45.64z"/>
		<path class="s0" d="m528.19 508.08c0 6.96-3.59 10.64-10.38 10.64-3.31 0-7.72-0.95-7.72-9.18v-23.57h-9.75v23.57c0 13.03 5.39 18.84 17.47 18.84 3.9 0 7.42-0.99 10.38-2.88v2.28h9.75v-41.81h-9.75z"/>
		<path class="s0" d="m605.13 485.51c-11.58 0-21 9.42-21 21 0 11.58 9.62 21.17 21 21.17 8.01 0 15.42-4.6 18.89-11.71l1.4-2.87h-11.09l-0.6 0.77c-2.13 2.74-5.27 4.31-8.6 4.31-4.5 0-8.5-2.87-10.25-7.1h31.26v-4.58c0-11.58-9.42-21-21-21zm10.2 16.26h-20.41c1.78-4.08 5.7-6.76 10.21-6.76 4.51 0 8.4 2.73 10.2 6.76z"/>
		<path class="s0" d="m663.04 507.37c0 7.05-3.64 10.78-10.52 10.78-3.36 0-7.82-0.96-7.82-9.3v-23.8h-9.81v23.8c0 13.16 5.44 19.03 17.64 19.03 3.95 0 7.52-1 10.52-2.93v2.33h9.81v-42.22h-9.81v22.33z"/>
	</g>
</svg>