<?xml version="1.0" encoding="UTF-8"?>
<svg id="LOGO_HORIZONTAL_ENG_ARA" data-name="LOGO HORIZONTAL ENG|ARA" xmlns="http://www.w3.org/2000/svg" viewBox="0 0 1218.9 340.16">
  <defs>
    <style>
      .cls-1 {
        fill: #48151d;
        stroke-width: 0px;
      }
    </style>
  </defs>
  <g id="_4PTs-4" data-name="4PTs">
    <g id="BURGUNDY">
      <g>
        <path class="cls-1" d="m107.99,175.82c-1.29,2.4-2.58,4.8-3.87,7.2-.36.67-.78,1.39-1.49,1.65-.66.24-1.38.02-2.04-.2-5.2-1.73-10.4-3.46-15.61-5.18-3.27-1.09-6.62-2.22-9.29-4.4-2.66-2.19-4.53-5.7-3.79-9.06-5.18,1.73-11.23,4.47-11.92,9.89-.19,1.46.07,2.94.36,4.38,1.9,9.46,5.16,18.62,6.72,28.14,1.56,9.52,1.24,19.79-3.61,28.13-.42.72-1.03,1.5-1.85,1.46-3.16-16.51-6.32-33.01-9.47-49.52-1.45-7.59-1.72-13.98,1.31-21.18,3.62-8.57,11.79-13.15,19.79-17.4,7.72-4.1,15.58-7.96,23.69-11.23,2.51-1.01,5.13-1.76,7.77-1.36-.48,4.41-.94,9.04.76,13.14,2.91,7.02,11.31,10.46,17.98,12.51,5.97,1.83,15.39,3.1,21.59,3.75,25.86,2.72,51.5.89,76.65-5.68.27-.07.32-.37.19-.61-2.84-5.46-5.67-8.6-5.39-10.85.28-2.34,2.71-9.58,5.94-14.36.13-.2.41-.26.61-.13,4.76,2.99,8.87,7.01,9.91,12.53,1.07,5.66.22,11.55-1.59,17.02-1.34,4.07-3.32,8.11-6.69,10.75-3.23,2.53-7.37,3.5-11.39,4.35-33.8,7.08-73.25,9.15-105.3-3.71Zm-22.46-16.38v.39c3.99,1.51,7.81,3.44,11.96,4.85.21-2.58-.55-4.8-.89-7.07-.04-.25-.17-.5-.27-.74-.47-1.03-1.25-1.32-2.32-.9-1.07.42-2.15.8-3.2,1.24-1.76.73-3.51,1.48-5.27,2.22Z"/>
        <path class="cls-1" d="m397.21,170.56c-1.45-1.78-2.66-3.63-3.02-5.87-.18-1.13-.34-2.32-.16-3.43.38-2.34,1.25-4.55,2.39-6.62.99-1.78,1.92-3.57,2.57-5.51.44-1.29,1.46-1.57,2.58-.78,2.47,1.74,4.24,4.11,5.34,6.84,1.46,3.64,1.43,7.6.78,11.41-.96,5.62-2.42,11.52-5.5,16.39-2.27,3.59-6.09,5.78-9.88,7.49-5.51,2.49-11.29,3.86-17.19,5.01-12.34,2.4-24.92,2.83-37.46,2.47-6-.17-12.34-.14-18.19-1.6-3.17-.73-6.24-1.93-8.76-4.03-1.74-1.45-3.28-3.17-4.55-5.14-1.57-2.42-2.44-5.11-3.52-7.72-.14-.33-.32-.64-.63-1.24-.66,1.43-1.28,2.61-1.76,3.84-.92,2.33-2.32,4.33-4.12,6.04-8.72,8.26-23.21,8.89-34.5,9.37-4.15.18-9.01.14-12.43-2.59-1.94-1.55-2.99-3.5-3.3-5.99-.43-3.49-.2-6.97.12-10.41.33-3.5,1.56-6.83,3.26-9.94.32-.58.73-.88,1.36-.91.56-.03.89.2.93.81.12,1.72.22,3.44.4,5.16.57,5.42,8.81,5.88,12.97,5.85,10.74-.06,23.68-1.12,32.61-7.9,1.54-1.17,1.72-2.31,1-4.12-.64-1.61-1.14-3.27-1.68-4.91-.87-2.63-1.7-5.28-2.58-7.91-.46-1.39-1.12-2.73-1.45-4.15-.46-1.98-.87-4-.99-6.03-.16-2.6.73-5.04,1.58-7.48.59-1.67,1.06-3.39,1.48-5.12.29-1.19.66-1.62,1.72-1.62.67,0,1.07.24,1.29.9.4,1.19.87,2.35,1.29,3.53,1.96,5.53,3.92,11.07,5.86,16.61,1.09,3.12,2.16,6.25,3.23,9.38.86,2.53,1.6,5.11,2.58,7.59,1.27,3.19,3.51,5.58,6.62,7.1.19.09.39.15.6.19,15.19,3.41,31.42,5.21,47.02,3.35,8.23-.98,16.3-2.99,24.29-5.13,1.77-.47,3.54-.94,5.27-1.5.92-.3,1.93-.57,2.51-1.68Z"/>
        <path class="cls-1" d="m176.25,200.95c.19-.04.26-.04.29-.07,1.98-1.86,3.95-3.74,5.94-5.6,1.34-1.25,2.7-2.48,4.08-3.69.79-.7,1.37-.68,2.18.15,1.81,1.84,3.56,3.72,5.34,5.58,1.16,1.22,2.34,2.42,3.51,3.63.85.87.86,1.74.06,2.59-2.63,2.79-5.26,5.6-7.89,8.39-.32.34-.65.69-1,1-.86.75-1.48.78-2.34.03-1.22-1.07-2.41-2.18-3.6-3.27-1.39-1.27-2.7-2.66-4.2-3.78-.84-.63-2.01-.83-3.05-1.17-.2-.06-.5.1-.71.23-.26.17-.48.41-.7.63-2.12,2.04-4.25,4.06-6.35,6.11-1.63,1.59-3.66,1.53-5.24-.14-1.95-2.06-3.92-4.1-5.9-6.13-.4-.41-.91-.7-1.35-1.06-1.17-.95-1.15-1.75-.1-2.86,2.83-2.97,5.61-5.99,8.41-8.99.22-.23.41-.48.64-.7.81-.76,1.23-.78,2.03-.04,1.38,1.28,2.74,2.59,4.12,3.86,1.93,1.77,3.88,3.51,5.85,5.29Z"/>
        <path class="cls-1" d="m352.23,152.12c-.5-.38-.99-.66-1.35-1.06-2.78-2.96-5.53-5.94-8.3-8.9-.43-.46-.91-.88-1.33-1.35-.68-.74-.64-1.45.02-2.22,1.24-1.42,2.42-2.9,3.67-4.3,2.1-2.34,4.21-4.66,6.36-6.95.72-.77,1.42-.72,2.16.13,1.23,1.42,2.35,2.95,3.59,4.36,1.84,2.09,3.74,4.13,5.62,6.19.18.19.38.36.55.56.66.78.62,1.76-.1,2.53-3.2,3.42-6.4,6.84-9.63,10.25-.29.31-.75.45-1.27.75Z"/>
      </g>
      <g>
        <path class="cls-1" d="m763.27,131.22h21.75l32.57,38.11h.24v-38.11h22.69v77.73h-21.76l-32.33-37.23h-.24v37.23h-22.93v-77.73Z"/>
        <path class="cls-1" d="m877.47,131.22h29.11l28.29,77.73h-26.44l-3.21-10.84h-27.09l-3.21,10.84h-25.75l28.29-77.73Zm5.87,49.31h16.67l-8.18-27.62h-.31s-8.18,27.62-8.18,27.62Z"/>
        <path class="cls-1" d="m944.14,131.2h36.39c22.72,0,38.49,11.54,38.49,39.04,0,25.16-15,38.71-39.48,38.71h-35.4v-77.75Zm33.52,58.94c10.59,0,15.67-6.74,15.67-19.9s-4.64-20.23-15.67-20.23h-8.29v40.13h8.29Z"/>
        <path class="cls-1" d="m1033.62,131.22h25v77.73h-25v-77.73Z"/>
        <path class="cls-1" d="m1074.81,131.22h34.83l12.49,43.49h.24l12.46-43.49h32.99v77.73h-23.44v-48.71h-.24l-13.86,48.71h-18.53l-14.65-48.71h-.24l.24,48.71h-22.28v-77.73Z"/>
      </g>
      <path class="cls-1" d="m717.34,93.39l-14.69-8.48s0,0,0,0l-116.13-67.05c-.41-.24-.92-.24-1.34,0l-130.83,75.53c-.41.24-.67.68-.67,1.16v16.96h0v134.1c0,.48.25.92.67,1.16l130.83,75.53c.21.12.44.18.67.18s.46-.06.67-.18l130.83-75.53c.41-.24.67-.68.67-1.16V94.55c0-.48-.26-.92-.67-1.16Zm-59.26,133.83l-71.57-41.33c-.41-.24-.92-.24-1.34,0l-73,42.15c-.41.24-.67.68-.67,1.16s.25.92.67,1.16l29.19,16.86v29.75l-70.32-40.6v-81.21l27.19,15.7v32.06c0,.48.26.92.67,1.16.21.12.44.18.67.18s.46-.06.67-.18l71.58-41.31c.41-.24.67-.68.67-1.16v-84.29c0-.48-.25-.92-.67-1.16-.41-.24-.92-.24-1.34,0l-29.19,16.86-25.77-14.88,70.32-40.6,70.33,40.6-27.19,15.7-27.76-16.03c-.41-.24-.92-.24-1.34,0-.41.24-.67.68-.67,1.16v82.64c-.01.48.24.92.66,1.16l73,42.15c.21.12.44.18.67.18s.46-.06.67-.18c.41-.24.67-.68.67-1.16v-33.71l25.77-14.88v81.2s-70.32,40.6-70.32,40.6v-31.4l27.77-16.03c.41-.24.67-.68.67-1.16s-.26-.92-.67-1.16Zm-88.27,83.13l-113.45-65.5V113.83l68.99,39.83-25.76,14.87-29.2-16.86c-.41-.24-.92-.24-1.34,0s-.67.68-.67,1.16v84.3c0,.48.25.92.67,1.16l73,42.14c.41.24.92.24,1.34,0,.41-.24.67-.68.67-1.16v-32.07l25.77-14.88v78.02Zm-100.09-222.74l70.91,40.94c.41.24.92.24,1.34,0,.41-.24.67-.68.67-1.16v-32.07l27.19-15.7v81.2l-68.9,39.77v-29.74l17.71-10.22,10.06-5.81c.21-.12.37-.29.49-.49.12-.2.18-.43.18-.67,0-.48-.26-.92-.67-1.16l-72.33-41.77v-15.42l13.36-7.71Zm232.27,0l13.35,7.71v15.43l-70.91,40.94c-.41.24-.67.68-.67,1.16s.25.92.67,1.16l27.77,16.03v31.39l-70.32-40.6v-79.55s25.77,14.87,25.77,14.87v32.07c0,.12.01.24.04.35.09.34.31.63.62.81.02.01.05.02.07.03.4.2.87.2,1.26-.03l1.1-.64,71.23-41.12Zm-100.11,222.73v-79.66l25.76,14.87v33.72c0,.48.26.92.67,1.16.41.24.92.24,1.34,0l73-42.15c.41-.24.67-.68.67-1.16v-84.29c0-.48-.26-.92-.67-1.16s-.92-.24-1.34,0l-27.77,16.03-25.77-14.88,67.57-39v131l-113.46,65.5Zm97.42-224.28l-68.99,39.83v-29.75s29.2-16.86,29.2-16.86c.41-.24.67-.68.67-1.16s-.25-.92-.67-1.16l-73-42.15c-.41-.24-.92-.24-1.34,0l-72.99,42.15c-.41.24-.67.68-.67,1.16s.26.92.67,1.16l27.77,16.03v29.75l-67.56-39.01,113.45-65.5,113.46,65.5Zm-126.82,225.82v-81.88c0-.48-.25-.92-.66-1.16-.41-.24-.92-.24-1.34,0l-27.77,16.03-27.19-15.7,70.32-40.6,68.89,39.79-25.76,14.87-27.77-16.04c-.21-.12-.44-.18-.67-.18-.23,0-.46.06-.67.18-.41.24-.67.68-.67,1.16v83.53l-13.35,7.71-13.36-7.71Z"/>
    </g>
  </g>
</svg>