<?xml version="1.0" encoding="UTF-8"?>
<svg id="LOGO_VERICAL_ENG_ARA" data-name="LOGO VERICAL ENG|ARA" xmlns="http://www.w3.org/2000/svg" viewBox="0 0 595.28 841.89">
  <defs>
    <style>
      .cls-1 {
        fill: #07444c;
        stroke-width: 0px;
      }
    </style>
  </defs>
  <g id="_4PTs-5" data-name="4PTs">
    <g id="TEAL">
      <g>
        <path class="cls-1" d="m151.34,722.39c-1.55,2.89-3.11,5.78-4.66,8.67-.43.81-.94,1.68-1.8,1.99-.79.29-1.66.02-2.46-.24-6.26-2.08-12.52-4.16-18.78-6.24-3.94-1.31-7.97-2.67-11.18-5.3-3.21-2.63-5.45-6.86-4.56-10.91-6.23,2.09-13.51,5.38-14.34,11.9-.22,1.76.09,3.53.44,5.27,2.28,11.38,6.21,22.41,8.09,33.86,1.87,11.46,1.49,23.82-4.34,33.86-.5.86-1.23,1.81-2.23,1.75-3.8-19.87-7.6-39.73-11.4-59.6-1.75-9.14-2.07-16.83,1.58-25.49,4.35-10.32,14.19-15.83,23.82-20.94,9.3-4.93,18.75-9.58,28.51-13.52,3.02-1.22,6.17-2.12,9.35-1.63-.58,5.31-1.13,10.88.92,15.81,3.51,8.45,13.61,12.59,21.64,15.06,7.18,2.21,18.52,3.73,25.99,4.52,31.12,3.27,61.98,1.08,92.24-6.83.32-.08.38-.44.23-.74-3.41-6.57-6.82-10.35-6.49-13.06s3.27-11.53,7.15-17.29c.16-.24.49-.31.73-.16,5.73,3.59,10.67,8.44,11.93,15.08,1.29,6.81.26,13.9-1.91,20.48-1.61,4.9-3.99,9.76-8.05,12.94-3.88,3.04-8.87,4.22-13.7,5.23-40.67,8.53-88.16,11.01-126.73-4.46Zm-27.03-19.71v.46c4.81,1.82,9.4,4.14,14.39,5.84.26-3.11-.67-5.77-1.07-8.5-.04-.31-.2-.6-.33-.89-.57-1.24-1.5-1.59-2.8-1.08-1.28.5-2.58.97-3.86,1.49-2.12.87-4.23,1.78-6.34,2.68Z"/>
        <path class="cls-1" d="m499.41,716.06c-1.75-2.15-3.2-4.37-3.63-7.06-.22-1.36-.41-2.79-.19-4.13.46-2.81,1.5-5.48,2.88-7.97,1.19-2.15,2.31-4.3,3.1-6.63.53-1.56,1.76-1.89,3.11-.94,2.97,2.09,5.1,4.94,6.42,8.23,1.76,4.38,1.73,9.15.94,13.74-1.15,6.77-2.92,13.86-6.62,19.73-2.73,4.33-7.32,6.96-11.89,9.02-6.64,3-13.58,4.64-20.69,6.03-14.85,2.89-29.99,3.41-45.09,2.98-7.22-.21-14.85-.17-21.9-1.93-3.81-.88-7.51-2.32-10.54-4.85-2.1-1.75-3.94-3.81-5.48-6.19-1.89-2.92-2.93-6.15-4.24-9.29-.17-.4-.39-.77-.76-1.49-.8,1.72-1.54,3.14-2.12,4.62-1.11,2.81-2.79,5.21-4.96,7.27-10.5,9.94-27.93,10.69-41.53,11.28-5,.22-10.85.17-14.96-3.11-2.33-1.86-3.6-4.21-3.97-7.21-.51-4.2-.25-8.38.15-12.53.4-4.22,1.88-8.22,3.93-11.97.38-.7.88-1.05,1.63-1.09.67-.03,1.07.24,1.12.98.14,2.07.27,4.15.48,6.21.69,6.53,10.61,7.07,15.61,7.04,12.92-.08,28.5-1.35,39.24-9.51,1.85-1.41,2.07-2.78,1.21-4.96-.77-1.94-1.37-3.93-2.03-5.91-1.04-3.17-2.05-6.35-3.1-9.52-.56-1.67-1.34-3.28-1.74-4.99-.56-2.38-1.05-4.82-1.2-7.25-.19-3.13.88-6.07,1.91-9,.71-2.01,1.28-4.08,1.78-6.16.35-1.44.79-1.95,2.07-1.96.81,0,1.29.29,1.56,1.08.48,1.43,1.05,2.83,1.55,4.25,2.36,6.66,4.72,13.32,7.06,19.99,1.32,3.75,2.6,7.52,3.88,11.28,1.04,3.04,1.92,6.15,3.11,9.13,1.53,3.84,4.22,6.72,7.97,8.54.22.11.47.18.72.23,18.28,4.1,37.81,6.26,56.58,4.03,9.91-1.18,19.61-3.6,29.24-6.18,2.12-.57,4.25-1.13,6.35-1.81,1.11-.36,2.32-.69,3.03-2.03Z"/>
        <path class="cls-1" d="m233.49,752.63c.23-.05.31-.04.35-.08,2.38-2.24,4.75-4.5,7.15-6.73,1.62-1.5,3.25-2.99,4.91-4.44.95-.84,1.65-.82,2.62.18,2.17,2.21,4.29,4.48,6.43,6.72,1.4,1.46,2.81,2.92,4.22,4.37,1.02,1.05,1.03,2.09.07,3.11-3.17,3.36-6.33,6.74-9.49,10.1-.39.41-.78.83-1.21,1.21-1.03.91-1.79.94-2.81.04-1.47-1.29-2.9-2.62-4.34-3.94-1.67-1.53-3.24-3.21-5.06-4.55-1.02-.75-2.42-1-3.67-1.4-.23-.08-.61.12-.86.28-.31.2-.57.5-.85.76-2.55,2.45-5.11,4.89-7.65,7.36-1.97,1.91-4.4,1.84-6.31-.17-2.35-2.48-4.72-4.94-7.1-7.38-.48-.49-1.09-.85-1.63-1.28-1.41-1.14-1.38-2.11-.12-3.44,3.4-3.58,6.75-7.21,10.12-10.82.26-.28.49-.58.77-.84.97-.92,1.48-.94,2.44-.05,1.67,1.53,3.29,3.11,4.96,4.64,2.32,2.13,4.67,4.23,7.04,6.37Z"/>
        <path class="cls-1" d="m445.28,693.86c-.6-.46-1.19-.8-1.63-1.27-3.34-3.56-6.66-7.14-9.99-10.72-.52-.56-1.09-1.06-1.6-1.62-.82-.9-.77-1.75.03-2.67,1.49-1.71,2.91-3.49,4.42-5.18,2.52-2.82,5.07-5.61,7.66-8.36.86-.92,1.71-.87,2.6.16,1.48,1.71,2.83,3.55,4.32,5.25,2.21,2.52,4.51,4.97,6.77,7.45.21.23.46.44.67.68.8.94.75,2.12-.12,3.04-3.86,4.12-7.71,8.24-11.59,12.33-.35.37-.91.55-1.53.91Z"/>
      </g>
      <g>
        <path class="cls-1" d="m82.72,545.08h23.11l34.6,40.48h.25v-40.48h24.1v82.57h-23.11l-34.34-39.55h-.25v39.55h-24.36v-82.57Z"/>
        <path class="cls-1" d="m204.02,545.08h30.92l30.05,82.57h-28.08l-3.41-11.51h-28.78l-3.41,11.51h-27.35l30.05-82.57Zm6.24,52.38h17.71l-8.69-29.34h-.33s-8.69,29.34-8.69,29.34Z"/>
        <path class="cls-1" d="m274.84,545.06h38.66c24.13,0,40.88,12.26,40.88,41.47,0,26.72-15.93,41.12-41.94,41.12h-37.6v-82.59Zm35.61,62.6c11.25,0,16.64-7.16,16.64-21.14s-4.93-21.48-16.64-21.48h-8.8v42.62h8.8Z"/>
        <path class="cls-1" d="m369.89,545.08h26.55v82.57h-26.55v-82.57Z"/>
        <path class="cls-1" d="m413.64,545.08h37l13.27,46.19h.26l13.23-46.19h35.04v82.57h-24.89v-51.74h-.26l-14.72,51.74h-19.68l-15.56-51.74h-.26l.26,51.74h-23.67v-82.57Z"/>
      </g>
      <path id="TEAL-2" data-name="TEAL" class="cls-1" d="m494.23,159.15l-21.97-12.68s0,0,0,0l-173.62-100.24c-.62-.36-1.38-.36-2,0l-195.59,112.92c-.62.36-1,1.02-1,1.73v25.36h0v200.49c0,.71.38,1.38,1,1.73l195.59,112.92c.31.18.65.27,1,.27s.69-.09,1-.27l195.59-112.92c.62-.36,1-1.02,1-1.73v-225.85c0-.71-.38-1.38-1-1.73Zm-88.6,200.07l-106.99-61.79c-.62-.36-1.38-.36-2,0l-109.13,63.01c-.62.36-1,1.02-1,1.73s.38,1.38,1,1.73l43.65,25.2v44.48l-105.13-60.69v-121.41l40.65,23.48v47.93c0,.71.38,1.38,1,1.73.31.18.65.27,1,.27s.69-.09,1-.27l107.01-61.76c.62-.36,1-1.02,1-1.73v-126.02c0-.71-.38-1.38-1-1.73-.62-.36-1.38-.36-2,0l-43.65,25.2-38.52-22.24,105.13-60.7,105.14,60.7-40.66,23.47-41.51-23.96c-.62-.36-1.38-.36-2,0-.62.36-1,1.02-1,1.73l-.02,123.55c0,.71.38,1.38,1,1.73l109.13,63.01c.31.18.66.27,1,.27s.69-.09,1-.27c.62-.36,1-1.02,1-1.73v-50.4l38.52-22.24v121.39s-105.13,60.7-105.13,60.7v-46.94l41.51-23.97c.62-.36,1-1.02,1-1.73s-.38-1.38-1-1.73Zm-131.97,124.28l-169.61-97.93v-195.86l103.14,59.55-38.52,22.24-43.65-25.21c-.62-.36-1.38-.36-2,0s-1,1.02-1,1.73v126.03c0,.71.38,1.38,1,1.73l109.13,63c.62.36,1.38.36,2,0,.62-.36,1-1.02,1-1.73v-47.94l38.52-22.24v116.64ZM124.02,150.5l106.01,61.21c.62.36,1.38.36,2,0,.62-.36,1-1.02,1-1.73v-47.94l40.65-23.47v121.4l-103.01,59.46v-44.46l26.48-15.29,15.04-8.68c.31-.18.56-.43.73-.73.17-.3.27-.64.27-1,0-.71-.38-1.38-1-1.73l-108.14-62.44v-23.05l19.98-11.53Zm347.25,0l19.96,11.52v23.07l-106.02,61.2c-.62.36-1,1.02-1,1.73s.38,1.38,1,1.73l41.52,23.97v46.93l-105.13-60.7v-118.94s38.52,22.23,38.52,22.23v47.94c0,.18.02.35.07.52.14.5.47.94.93,1.21.04.02.08.03.11.05.6.3,1.31.29,1.89-.05l1.65-.95,106.5-61.48Zm-149.66,333v-119.09l38.51,22.24v50.41c0,.71.38,1.38,1,1.73.62.36,1.38.36,2,0l109.14-63.01c.62-.36,1-1.02,1-1.73v-126.01c0-.71-.39-1.38-1.01-1.73s-1.38-.36-2,0l-41.52,23.97-38.52-22.24,101.02-58.31v195.85l-169.62,97.93Zm145.65-335.31l-103.14,59.55v-44.48s43.66-25.2,43.66-25.2c.62-.36,1-1.02,1-1.73s-.38-1.38-1-1.73l-109.14-63.01c-.62-.36-1.38-.36-2,0l-109.13,63.01c-.62.36-1,1.02-1,1.73s.38,1.38,1,1.73l41.52,23.97v44.48l-101.01-58.33,169.62-97.93,169.62,97.93Zm-189.6,337.61v-122.41c0-.71-.37-1.38-.99-1.73-.62-.36-1.38-.36-2,0l-41.52,23.97-40.65-23.47,105.13-60.7,102.99,59.48-38.51,22.23-41.52-23.97c-.31-.18-.66-.27-1-.27-.35,0-.69.09-1,.27-.62.36-1,1.02-1,1.73v124.88l-19.96,11.52-19.98-11.53Z"/>
    </g>
  </g>
</svg>