<?xml version="1.0" encoding="UTF-8"?>
<svg id="Layer_1" data-name="Layer 1" xmlns="http://www.w3.org/2000/svg" viewBox="0 0 595.28 595.28">
  <defs>
    <style>
      .cls-1 {
        fill: #18213e;
        stroke-width: 0px;
      }
    </style>
  </defs>
  <path class="cls-1" d="m516.09,292.95c6.7-10.69,12.39-22.23,16.98-34.5,6.94-18.53,11.41-38.73,13.27-60.03.96-10.95.6-25.17-.87-34.6l-.81-5.2-4.1-3.3c-7.74-6.24-20.47-14.84-29.85-19.21-39.11-18.24-80.11-25.25-118.58-20.28-35.64,4.6-68.13,19.43-94.72,43.1-11.79-10.55-24.69-19.35-38.47-26.26-10.32-5.18-21.14-9.28-32.33-12.28-5.29,8.06-9.66,16.36-13.11,24.85,27.8,6.25,53.15,20.34,74.12,42.01l9.78,10.1,9.78-10.1c47.73-49.3,121.31-59.45,192.03-26.47,5.64,2.63,13.7,7.82,19.96,12.43.59,7.04.64,16.1.05,22.84-2.45,27.95-9.69,52.87-21.2,74.09,3.7,3.96,7.23,8.09,10.57,12.41,2.61,3.36,5.1,6.84,7.48,10.41Z"/>
  <g>
    <path class="cls-1" d="m204.36,361.54l3.77-13.47-13.57-3.4c-67.46-16.91-110.04-71.08-116.82-148.63-.8-9.09-1.06-17.33-.77-23.29,6.4-4.39,15.05-9.31,20.79-11.99,25.4-11.85,50.82-18.17,75.19-19.13,1.68-5.11,3.61-10.17,5.81-15.19,1.79-4.09,3.74-8.12,5.85-12.1-32.18-.81-65.81,6.58-98.35,21.75-8.82,4.11-22.75,12.24-30.79,18.72l-4.1,3.3-.81,5.2c-1.59,10.19-.84,24.71.07,35.09,1.87,21.32,6.25,41.52,13.02,60.02,6.86,18.74,16.18,35.79,27.71,50.67,11.77,15.19,25.85,28.14,41.86,38.49,12.75,8.24,26.75,14.86,41.76,19.75-3.13,15.41-4.17,30.75-3.07,45.74.86,11.73,3.02,23.32,6.46,34.64,9.49,0,18.8-.87,27.85-2.52-9.21-26.42-9.98-54.64-1.85-83.65Z"/>
    <path class="cls-1" d="m490.05,325.32c-4.56-8.21-9.77-15.81-15.61-22.78-19.19,19.95-43.96,34.18-73.43,41.57l-13.7,3.43,3.94,13.56c18.76,64.52-6.85,125.49-72.12,171.67-6.17,4.37-14.4,9.56-20.74,12.83-4.13-2.13-10.46-5.85-19.81-12.33-22.61-15.67-40.57-33.12-53.69-51.9-6.88,1.71-13.89,3.04-21.01,3.96-2.73.35-5.49.64-8.27.88,6.08,10.08,13.27,19.82,21.51,29.14,12.83,14.5,28.29,28.05,45.95,40.29,12.79,8.86,23.05,14.79,30.5,17.63l4.92,1.87,4.9-1.92c12.38-4.86,29.54-16.88,31.45-18.24,36.04-25.5,61.68-55.29,76.23-88.54,13.84-31.64,17.07-65.12,9.65-99.71,14.99-4.87,28.99-11.43,41.77-19.58,9.94-6.34,19.15-13.65,27.55-21.84Z"/>
  </g>
  <g>
    <g>
      <path class="cls-1" d="m79.19,302.33c-6.7,10.69-12.39,22.23-16.98,34.5-6.94,18.53-11.41,38.73-13.27,60.03-.96,10.94-.6,25.17.87,34.6l.81,5.2,4.1,3.3c7.74,6.24,20.48,14.84,29.85,19.21,30.94,14.43,63.07,21.83,94.19,21.83,8.21,0,16.35-.52,24.38-1.55,35.64-4.6,68.13-19.43,94.72-43.1,11.79,10.55,24.69,19.35,38.47,26.26,10.32,5.18,21.14,9.28,32.33,12.28,5.29-8.06,9.66-16.36,13.11-24.85-27.8-6.25-53.15-20.34-74.12-42.01l-9.78-10.1-9.78,10.1c-47.73,49.3-121.31,59.45-192.03,26.47-5.64-2.63-13.7-7.82-19.96-12.43-.59-7.04-.64-16.1-.05-22.84,2.45-27.95,9.69-52.87,21.2-74.09-3.7-3.96-7.23-8.09-10.57-12.41-2.61-3.36-5.1-6.84-7.48-10.41Z"/>
      <path class="cls-1" d="m276.14,62.5c6.17-4.37,14.4-9.56,20.74-12.83,4.13,2.13,10.46,5.85,19.81,12.33,22.61,15.67,40.57,33.12,53.69,51.9,6.88-1.71,13.89-3.04,21.01-3.96,2.73-.35,5.49-.64,8.27-.88-6.08-10.08-13.27-19.82-21.51-29.14-12.83-14.5-28.29-28.05-45.95-40.29-12.79-8.86-23.05-14.79-30.5-17.63l-4.92-1.87-4.9,1.92c-12.38,4.86-29.54,16.88-31.45,18.24-36.04,25.5-61.68,55.29-76.23,88.54-13.84,31.64-17.07,65.12-9.65,99.71-14.99,4.87-28.99,11.43-41.77,19.58-9.94,6.34-19.15,13.65-27.55,21.84,4.56,8.21,9.77,15.81,15.61,22.78,19.19-19.95,43.96-34.18,73.43-41.57l13.7-3.43-3.94-13.56c-18.76-64.52,6.85-125.49,72.12-171.67Z"/>
    </g>
    <path class="cls-1" d="m544.65,396.86c-1.87-21.32-6.25-41.52-13.02-60.03-6.86-18.74-16.18-35.79-27.71-50.67-11.77-15.19-25.85-28.14-41.86-38.49-12.74-8.24-26.75-14.86-41.76-19.75,3.13-15.41,4.17-30.75,3.07-45.74-.86-11.73-3.02-23.32-6.46-34.64-9.49,0-18.8.87-27.85,2.52,9.21,26.42,9.98,54.64,1.85,83.65l-3.77,13.47,13.57,3.4c67.46,16.91,110.04,71.08,116.82,148.63.8,9.09,1.06,17.33.77,23.29-6.4,4.39-15.05,9.31-20.79,11.99-25.4,11.85-50.82,18.17-75.19,19.13-1.68,5.11-3.61,10.17-5.81,15.19-1.79,4.09-3.74,8.12-5.85,12.1,1.6.04,3.2.07,4.8.07,30.71,0,62.62-7.4,93.55-21.82,8.82-4.11,22.75-12.24,30.79-18.72l4.1-3.3.81-5.2c1.59-10.19.84-24.71-.07-35.09Z"/>
  </g>
</svg>