<?xml version="1.0" encoding="UTF-8"?>
<svg id="Layer_1" data-name="Layer 1" xmlns="http://www.w3.org/2000/svg" viewBox="0 0 841.89 595.28">
  <defs>
    <style>
      .cls-1 {
        fill: #0f2041;
        stroke-width: 0px;
      }
    </style>
  </defs>
  <g>
    <path class="cls-1" d="m555.31,187.67c4.12-6.58,7.62-13.68,10.45-21.22,4.27-11.4,7.02-23.82,8.16-36.93.59-6.73.37-15.48-.54-21.28l-.5-3.2-2.52-2.03c-4.76-3.84-12.59-9.13-18.36-11.81-24.05-11.22-49.27-15.53-72.94-12.47-21.92,2.83-41.91,11.95-58.26,26.51-7.25-6.49-15.18-11.9-23.66-16.15-6.35-3.18-13-5.71-19.89-7.56-3.25,4.96-5.94,10.06-8.06,15.29,17.1,3.85,32.69,12.51,45.59,25.84l6.01,6.21,6.01-6.21c29.36-30.33,74.62-36.57,118.11-16.28,3.47,1.62,8.42,4.81,12.28,7.64.36,4.33.39,9.9.03,14.05-1.5,17.19-5.96,32.52-13.04,45.57,2.27,2.44,4.45,4.98,6.5,7.63,1.6,2.07,3.13,4.21,4.6,6.4Z"/>
    <g>
      <path class="cls-1" d="m363.57,229.86l2.32-8.28-8.34-2.09c-41.49-10.4-67.68-43.72-71.86-91.42-.49-5.59-.65-10.66-.48-14.32,3.93-2.7,9.26-5.73,12.79-7.37,15.63-7.29,31.26-11.18,46.25-11.77,1.03-3.14,2.22-6.26,3.57-9.34,1.1-2.51,2.3-4.99,3.6-7.44-19.79-.5-40.48,4.05-60.49,13.38-5.43,2.53-13.99,7.53-18.94,11.51l-2.52,2.03-.5,3.2c-.98,6.27-.52,15.2.04,21.59,1.15,13.12,3.84,25.54,8.01,36.92,4.22,11.53,9.95,22.01,17.05,31.16,7.24,9.34,15.9,17.31,25.75,23.67,7.84,5.07,16.45,9.14,25.69,12.15-1.93,9.48-2.56,18.91-1.89,28.13.53,7.21,1.86,14.34,3.97,21.3,5.84,0,11.56-.53,17.13-1.55-5.67-16.25-6.14-33.61-1.14-51.45Z"/>
      <path class="cls-1" d="m539.3,207.58c-2.8-5.05-6.01-9.73-9.6-14.01-11.8,12.27-27.04,21.02-45.17,25.57l-8.43,2.11,2.43,8.34c11.54,39.69-4.21,77.19-44.36,105.59-3.8,2.69-8.86,5.88-12.76,7.89-2.54-1.31-6.43-3.6-12.19-7.58-13.91-9.64-24.96-20.37-33.02-31.93-4.23,1.05-8.54,1.87-12.92,2.44-1.68.22-3.38.4-5.09.54,3.74,6.2,8.16,12.19,13.23,17.92,7.89,8.92,17.4,17.26,28.26,24.78,7.87,5.45,14.18,9.1,18.76,10.85l3.02,1.15,3.01-1.18c7.62-2.99,18.17-10.39,19.35-11.22,22.17-15.68,37.94-34.01,46.89-54.46,8.51-19.46,10.5-40.06,5.93-61.33,9.22-2.99,17.83-7.03,25.69-12.04,6.11-3.9,11.78-8.39,16.94-13.43Z"/>
    </g>
    <g>
      <g>
        <path class="cls-1" d="m286.58,193.44c-4.12,6.58-7.62,13.68-10.45,21.22-4.27,11.4-7.02,23.82-8.16,36.93-.59,6.73-.37,15.48.54,21.28l.5,3.2,2.52,2.03c4.76,3.84,12.59,9.13,18.36,11.81,19.03,8.87,38.8,13.43,57.94,13.43,5.05,0,10.06-.32,15-.95,21.92-2.83,41.91-11.95,58.26-26.51,7.25,6.49,15.18,11.9,23.66,16.15,6.35,3.18,13,5.71,19.89,7.56,3.25-4.96,5.94-10.06,8.06-15.29-17.1-3.85-32.69-12.51-45.59-25.84l-6.01-6.21-6.01,6.21c-29.36,30.33-74.62,36.57-118.11,16.28-3.47-1.62-8.42-4.81-12.28-7.64-.36-4.33-.39-9.9-.03-14.05,1.5-17.19,5.96-32.52,13.04-45.57-2.27-2.44-4.45-4.98-6.5-7.63-1.6-2.07-3.13-4.21-4.6-6.4Z"/>
        <path class="cls-1" d="m407.72,45.92c3.8-2.69,8.86-5.88,12.76-7.89,2.54,1.31,6.43,3.6,12.19,7.58,13.91,9.64,24.96,20.37,33.02,31.92,4.23-1.05,8.54-1.87,12.92-2.44,1.68-.22,3.38-.4,5.09-.54-3.74-6.2-8.16-12.19-13.23-17.92-7.89-8.92-17.4-17.26-28.26-24.78-7.87-5.45-14.18-9.1-18.76-10.84l-3.02-1.15-3.01,1.18c-7.62,2.99-18.17,10.39-19.35,11.22-22.17,15.68-37.94,34.01-46.89,54.46-8.51,19.46-10.5,40.06-5.93,61.33-9.22,2.99-17.83,7.03-25.69,12.04-6.11,3.9-11.78,8.39-16.94,13.43,2.8,5.05,6.01,9.73,9.6,14.01,11.8-12.27,27.04-21.02,45.17-25.57l8.43-2.11-2.43-8.34c-11.54-39.69,4.21-77.19,44.36-105.59Z"/>
      </g>
      <path class="cls-1" d="m572.88,251.58c-1.15-13.12-3.84-25.54-8.01-36.92-4.22-11.53-9.95-22.01-17.05-31.16-7.24-9.34-15.9-17.31-25.75-23.67-7.84-5.07-16.45-9.14-25.69-12.15,1.93-9.48,2.56-18.91,1.89-28.13-.53-7.21-1.86-14.34-3.97-21.3-5.84,0-11.56.53-17.13,1.55,5.66,16.25,6.14,33.61,1.14,51.45l-2.32,8.28,8.34,2.09c41.49,10.4,67.68,43.72,71.86,91.42.49,5.59.65,10.66.48,14.32-3.93,2.7-9.26,5.73-12.79,7.37-15.63,7.29-31.26,11.18-46.25,11.77-1.03,3.14-2.22,6.26-3.57,9.34-1.1,2.51-2.3,4.99-3.6,7.44.98.02,1.97.04,2.95.04,18.89,0,38.52-4.55,57.54-13.42,5.43-2.53,13.99-7.53,18.94-11.51l2.52-2.03.5-3.2c.98-6.27.52-15.2-.04-21.59Z"/>
    </g>
  </g>
  <g>
    <g>
      <path class="cls-1" d="m600.41,399.94c1.02-.35,6.37-6.43,6.37-7.87s-4.33-6.02-6.72-6.02-6.05,4.17-6.88,5.25c-.83,1.08.13,2.39.13,2.39,0,0,6.08,6.59,7.1,6.24Z"/>
      <path class="cls-1" d="m735.63,402.03c.61-.21,2.88-2.63,4.4-4.66.38-.51,1.12-.55,1.56-.1,1.61,1.68,4.89,4.99,5.59,4.75.93-.32,5.82-5.88,5.82-7.19s-3.96-5.5-6.14-5.5c-1.66,0-4,2.21-5.35,3.7-.28.31-.77.3-1.02-.03-1.31-1.67-3.66-3.67-5.17-3.67-2.18,0-5.53,3.81-6.28,4.8-.76.99.12,2.18.12,2.18,0,0,5.56,6.02,6.49,5.7Z"/>
      <path class="cls-1" d="m795.75,424.82c-.96-16.62-10.57-18.6-14.97-17.77-4.39.83-11.32,14.54-16.92,17.26-4.67,2.26-11.64.41-13.85-.28-.4-.13-.65-.52-.6-.94v-.05c.6-6.96-.24-13.16-1.86-14.5-.85-.7-6.19,2.29-8.42,3.59-.69.4-1.17,1.08-1.31,1.87-.17,1.02-.24,2.54.38,4.12,1.16,2.93.51,6.79.51,6.79,0,0-18.68,1.02-20.21,0-1.53-1.02-18.94-20.72-26.24-20.72s-11.63,7.73-11.63,7.73c0,0-.85,4.93.93,5.52,1.78.59,1.44-1.95,9.09-1.95s11.46,10.62,11.46,10.62h-78.6s-2.29.38-3.18-1.66c-.89-2.04.25-5.22-2.93-11.97-3.18-6.75-7.9-9.17-10.83-9.3-2.93-.13-8.92,3.82-10.83,8.66-1.47,3.73-1.05,10.68-.78,13.67.07.8-.51,1.5-1.31,1.57-3.34.32-11.88,1.06-19.56,1.06-9.81,0-11.01-5.01-10.45-8.24.76-4.33-1.02-5.14-4.01-1.57-2.99,3.57-2.74,15.54,0,21.53,2.74,5.99,8.53,5.31,8.53,5.31h186.55s5.39-.55,8.49-1.57c3.1-1.02,4.88-2.55,6.88-2.55s4.54,1.66,4.54,1.66c0,0,8.68,4.73,12.76,4.73s9.3-5.99,8.34-22.61Zm-187.19.06s-4.14-1.97-4.9-3.89c-.76-1.91-.38-4.33,1.91-5.54,2.29-1.21,4.71,1.59,5.48,4.71.76,3.12,1.97,6.94-2.48,4.71Zm174.9.76c-2.99-.7-5.6-1.78-5.54-3.31,0,0,.76-2.93,2.93-4.33,2.17-1.4,4.65,1.34,5.35,4.33s.25,4.01-2.74,3.31Z"/>
    </g>
    <g>
      <path class="cls-1" d="m533.46,390.47c-.21-2.12-3.18-1.15-6.16-.3-1.43.41-3.02,1.21-4.29,1.93-1.32.75-2,2.25-1.7,3.73,2.03,10.05,3.1,45.55,3.1,45.55,0,0,.51,2.93,3.69,2.93s4.2-10.7,5.35-26.62c1.15-15.92.21-25.09,0-27.22Z"/>
      <path class="cls-1" d="m499.2,393.73c0,.06-.02.13-.02.21-.07,1.66,1.17,7.01,1.17,7.01,1.49,7.43,1.57,23.68,1.57,23.68,0,0-12.53.18-13.04,0-.51-.18-.55-.79-.55-.79,0,0,.3-1.36-1.57-9.04-1.87-7.69-8.45-11.7-10.62-11.89-2.17-.19-5.01.83-9.62,5.22-4.14,3.95-4.59,10.06-3.63,13.12.43,1.37.45,2.49.41,3.15-.03.38-.34.67-.72.67h-33.41c-1.06-.42-1.57-1.53-1.57-1.53-1.44-8.24-5.05-14.1-5.05-14.1-2.38-.08-7.9,5.39-7.9,5.39,0,0-.93.89-.76,3.48.17,2.59,6.88,16.52,5.27,19.15-1.61,2.63-6.16,5.14-14.22,5.56-8.07.42-12.91-4.93-13.71-9.43-.81-4.5,1.23-9.38,1.23-9.38-.04-4.67-3.74-.81-3.74-.81,0,0-4.54,6.75-5.82,17.83-1.27,11.08,8.03,19.11,20.76,19.11s20.32-14.46,21.91-15.99c1.59-1.53,5.39-.06,5.39-.06,6.96,2.67,47.39,1.06,50.61,1.06s2.46-4.84,5.86-1.61c3.4,3.23,12.65,2.04,16.9,2.04s5.77.42,8.15-7.22c2.38-7.64.04-33.63.51-34.48.47-.85,2.93-3.52,2.93-3.52.59-3.14-3.52-11.38-3.52-11.38-2.21-1.45-12.99,3.19-13.21,4.55Zm-22.04,30.99s-4.14-1.97-4.9-3.89-.38-4.33,1.91-5.54,4.71,1.59,5.48,4.71c.76,3.12,1.97,6.94-2.48,4.71Z"/>
      <path class="cls-1" d="m471.65,397.01c2.39,0,6.05-4.17,6.88-5.25.83-1.08-.13-2.39-.13-2.39,0,0-6.08-6.59-7.1-6.24s-6.37,6.43-6.37,7.87,4.33,6.02,6.72,6.02Z"/>
      <path class="cls-1" d="m405.62,411.44c2.39,0,6.05-4.33,6.88-5.46.83-1.12-.13-2.48-.13-2.48,0,0-6.08-6.84-7.1-6.48s-6.37,6.68-6.37,8.17,4.33,6.25,6.72,6.25Z"/>
    </g>
    <g>
      <path class="cls-1" d="m339.36,383.29c-2.2.32-9.33,3.31-9.68,4.2s.03,9.11.35,10.06c.32.96,1.27,1.27,1.27,1.27.72,5.94.08,13.55.08,13.55,0,0-.34,1.91-1.91,1.27s-.72-3.61-10.79-14.95c-10.06-11.34-16.18-14.27-20.13-11.08-3.95,3.18-7.01,10.32-2.8,15.92,4.2,5.6,13.38,9.87,14.39,9.49,1.02-.38,1.72-2.29,1.72-2.29,6.11,3.31,9.49,10.76,9.49,10.76-3.44,5.73-16.18,5.86-17.07,7.2-.74,1.12.29,12.21.65,15.85.07.66.61,1.17,1.28,1.19,3.34.11,12.98.33,16.48-.62,4.27-1.15,12.17-4.73,13.18-10.34.81-4.48-1.14-10.73-1.95-13.06-.2-.58-.11-1.23.25-1.73,1.22-1.71,4.07-5.86,5.78-9.83,1.82-4.22,1.98-9.96,1.98-11.91,0-.42.21-.8.55-1.04.77-.54,2.1-1.65,2.44-3.04.48-1.97-2.29-8.44-2.67-9.59-.38-1.15-.7-1.62-2.9-1.31Zm-12.69,48.41s-4.83.83-6.4.24c-.31-.12-.35-.53-.07-.7,1.16-.71,4.44-2.82,5.62-4.4,1.44-1.93.85,4.86.85,4.86Z"/>
      <path class="cls-1" d="m360.22,390.47c-.21-2.12-3.18-1.15-6.16-.3-1.43.41-3.02,1.21-4.29,1.93-1.32.75-2,2.25-1.7,3.73,2.03,10.05,3.1,45.55,3.1,45.55,0,0,.51,2.93,3.69,2.93s4.2-10.7,5.35-26.62c1.15-15.92.21-25.09,0-27.22Z"/>
      <path class="cls-1" d="m284.94,406.89c-1.89.1-6.13,4.26-7.64,5.81-.34.35-.45.86-.29,1.32.6,1.72,2.07,6,2.54,8.01.59,2.55.81,6.75-3.44,4.93-4.96-2.13-10.02-11.38-10.79-12.14-.76-.76-1.7-.51-3.44,0s.51,2.72-1.7,6.75c-2.21,4.03-9.38,4.97-12.19,2.38-2.8-2.59-3.14-9.64-3.14-9.64-1.36-.17-4.54-.59-5.18,2.76-.64,3.35-.08,6.07-3.35,7.47-3.27,1.4-8.2-.17-8.49-1.32-.3-1.15-.17-4.93-.68-16.05-.38-8.37-.72-14.62-.86-17.21-.04-.74-.72-1.27-1.45-1.15-3.46.56-6.44,2.26-7.78,3.13-.48.31-.74.85-.7,1.42.3,3.61,1.42,17.18,1.71,21.36.34,4.84.13,7.75-1.15,9.98-1.27,2.23-2.99-.13-2.99-.13-.57-6.5-3.89-14.52-3.89-14.52-4.14-9.77-8.7-15.19-10.33-16.94-.39-.41-.96-.6-1.51-.5-6.44,1.15-9.02,5.24-9.69,6.54-.12.24-.19.51-.19.78-.05,7.73,4.04,14.29,5.29,15.6,1.27,1.34,3.76-.51,5.41.51,1.66,1.02,8.28,10.76,6.62,13.69-1.35,2.38-7.66,3.63-9.97,4.01-.47.08-.79.53-.71,1,2.36,13.99,7.44,14.35,7.44,14.35,6.64-.69,15.23-7.19,17.9-9.32.45-.36,1.1-.27,1.44.19.91,1.25,2,3.06,3.46,3.72,2.01.91,4.2,1.64,6.43,1.97,2.37.35,4.8.23,7.18.26,5.22.07,10.45.16,15.67.09,2.65-.04,5.7.33,8.16-.74,2.75-1.2,4.88-3.68,8.11-3.02,3.57.72,6.67,5.97,10.62,3.94s6.17-9.84,7.15-13.75c1.4-5.6,1.87-9.89.93-15.33-.93-5.44-2.18-10.33-4.5-10.2Z"/>
      <path class="cls-1" d="m173.31,406.3c-5.44-.51-8.96,3.49-14.61,12.63-4.27,6.9-15.03,6.2-15.03,6.2,0,0-54.71.7-59.62-1.78-4.9-2.48-9.43-.91-9.43-.91-3.74,3.57-4.59,10.45-3.4,15.03,1.19,4.59,10.7,7.64,10.7,7.64-5.01,3.65-8.32,4.59-14.69,3.23-6.37-1.36-10.36-6.45-10.87-12.23-.51-5.77,2.21-10.19-.17-10.96-2.38-.76-7.56,7.98-7.56,7.98-7.3,15.63,1.36,31.25,17.66,31.25s25.82-18.86,25.82-18.86h56.56c3.82,0,6.28-4.67,10.79-4.5,4.5.17,8.24,5.1,14.18,6.37,5.94,1.27,7.05-2.8,9.17-6.45,2.12-3.65,1.36-17.66,1.02-22.02-.34-4.36-5.1-12.12-10.53-12.63Zm-.47,18.9c-1.27.06-4.78-1.3-4.78-1.3,0,0-2.04-.81-1.08-2.72.7-1.4,2.45-2.79,3.34-3.44.32-.23.75-.21,1.04.06,1.02.93,3.26,3.16,3.26,4.79,0,2.1-.51,2.55-1.78,2.61Z"/>
    </g>
  </g>
  <g>
    <rect class="cls-1" x="45.82" y="483.49" width="9.45" height="58.96"/>
    <path class="cls-1" d="m80.6,515.92c-5.99-1.32-5.99-2.82-5.99-3.64,0-1.66,2.04-2.91,4.74-2.91s4.54,1.05,4.84,2.75l.29,1.65h8.43l-.2-2.18c-.64-6.9-6.01-11.54-13.36-11.54-8,0-13.37,4.92-13.37,12.23,0,8.91,7.38,11.61,12.93,12.86,6.25,1.41,6.53,2.34,6.53,4.14,0,2.26-2.5,3.84-6.09,3.84s-5.82-2.14-6.11-4.13l-.25-1.71h-8.38l.1,2.09c.35,7.7,6.37,13.07,14.64,13.07,8.89,0,14.64-5.17,14.64-13.16,0-7.21-4-11.21-13.39-13.37Z"/>
    <path class="cls-1" d="m608.49,515.92c-5.99-1.32-5.99-2.82-5.99-3.64,0-1.66,2.04-2.91,4.74-2.91s4.54,1.05,4.84,2.75l.29,1.65h8.43l-.2-2.18c-.64-6.9-6.01-11.54-13.36-11.54-8,0-13.37,4.92-13.37,12.23,0,8.91,7.38,11.61,12.93,12.86,6.25,1.41,6.53,2.34,6.53,4.14,0,2.26-2.5,3.84-6.09,3.84s-5.82-2.14-6.11-4.13l-.25-1.71h-8.38l.1,2.09c.35,7.7,6.37,13.07,14.64,13.07,8.89,0,14.64-5.17,14.64-13.16,0-7.21-4-11.21-13.39-13.37Z"/>
    <rect class="cls-1" x="100.5" y="484.26" width="9" height="57.42"/>
    <path class="cls-1" d="m153.56,503.67c-3.55-2.68-7.85-4.16-12.32-4.16-11.94,0-21.65,9.71-21.65,21.65s9.92,21.83,21.65,21.83c4.46,0,8.76-1.52,12.32-4.26v3.49h9.77v-42.1h-9.77v3.56Zm-.35,17.49c0,6.36-5.79,12.15-12.15,12.15s-11.46-5.45-11.46-12.15,5.03-11.97,11.46-11.97,12.15,5.48,12.15,11.97Z"/>
    <path class="cls-1" d="m224.61,499.51c-5.89,0-10.9,2.28-14.42,6.5-2.89-4.42-7.7-6.5-14.86-6.5-4.16,0-7.9,1.15-11.02,3.37v-2.68h-10.6v42.79h10.6v-19.99c0-8.74,3.6-12.99,11.02-12.99,3.29,0,7.67,1.12,7.67,10.82v22.16h10.6v-19.99c0-8.74,3.6-12.99,11.02-12.99,3.29,0,7.67,1.12,7.67,10.82v22.16h10.6v-22.16c0-14.74-5.63-21.32-18.26-21.32Z"/>
    <path class="cls-1" d="m777.81,499.51c-5.89,0-10.9,2.28-14.42,6.5-2.89-4.42-7.7-6.5-14.86-6.5-4.16,0-7.9,1.15-11.02,3.37v-2.68h-10.6v42.79h10.6v-19.99c0-8.74,3.6-12.99,11.02-12.99,3.29,0,7.67,1.12,7.67,10.82v22.16h10.6v-19.99c0-8.74,3.6-12.99,11.02-12.99,3.29,0,7.67,1.12,7.67,10.82v22.16h10.6v-22.16c0-14.74-5.63-21.32-18.26-21.32Z"/>
    <path class="cls-1" d="m255.89,484.26c-3.03,0-5.59,2.49-5.59,5.44,0,3.13,2.45,5.59,5.59,5.59s5.51-2.51,5.51-5.59c0-2.9-2.58-5.44-5.51-5.44Z"/>
    <rect class="cls-1" x="251.35" y="497.95" width="9.23" height="44.5"/>
    <path class="cls-1" d="m302.01,526.9c-2.12,3.92-6.03,6.36-10.21,6.36-6.29,0-11.61-5.55-11.61-12.12s5.1-11.95,11.61-11.95c4.3,0,8.12,2.31,10.21,6.18l.57,1.05h10.51l-.99-2.68c-3.13-8.5-11.28-14.22-20.29-14.22-11.92,0-21.62,9.7-21.62,21.62s9.9,21.79,21.62,21.79c9.19,0,17.39-5.8,20.39-14.42l.92-2.65h-10.54l-.57,1.05Z"/>
    <path class="cls-1" d="m363,484.26l-23.6,57.42h9.72l4.68-11.35h26.28l4.91,11.35h9.69l-23.6-57.42h-8.08Zm-5.44,36.84l9.49-22.98,9.26,22.98h-18.75Z"/>
    <path class="cls-1" d="m406.87,502.17v-2.14h-9v41.65h9v-24.91c0-5.76,4.6-8.33,9.15-8.33h2v-8.93h-2c-3.34,0-6.48.93-9.15,2.66Z"/>
    <polygon class="cls-1" points="435.91 484.26 426.01 484.26 426.01 499.53 420.19 499.53 420.19 508.9 426.01 508.9 426.01 542.34 435.91 542.34 435.91 508.9 444.65 508.9 444.65 499.53 435.91 499.53 435.91 484.26"/>
    <polygon class="cls-1" points="503.59 529.2 483.94 483.56 474.26 483.56 474.26 542.38 483.86 542.38 483.86 507.9 498.99 542.38 508.28 542.38 523.33 507.93 523.33 542.38 532.93 542.38 532.93 483.56 523.25 483.56 503.59 529.2"/>
    <path class="cls-1" d="m571.19,522.08c0,6.96-3.59,10.64-10.38,10.64-3.31,0-7.72-.95-7.72-9.18v-23.57h-9.75v23.57c0,13.03,5.39,18.84,17.47,18.84,3.9,0,7.42-.99,10.38-2.88v2.28h9.75v-41.81h-9.75v22.11Z"/>
    <path class="cls-1" d="m648.13,499.51c-11.58,0-21,9.42-21,21s9.62,21.17,21,21.17c8.01,0,15.42-4.6,18.89-11.71l1.4-2.87h-11.09l-.6.77c-2.13,2.74-5.27,4.31-8.6,4.31-4.5,0-8.5-2.87-10.25-7.1h31.26v-4.58c0-11.58-9.42-21-21-21Zm10.2,16.26h-20.41c1.78-4.08,5.7-6.76,10.21-6.76s8.4,2.73,10.2,6.76Z"/>
    <path class="cls-1" d="m706.04,521.37c0,7.05-3.64,10.78-10.52,10.78-3.36,0-7.82-.96-7.82-9.3v-23.8h-9.81v23.8c0,13.16,5.44,19.03,17.64,19.03,3.95,0,7.52-1,10.52-2.93v2.33h9.81v-42.22h-9.81v22.33Z"/>
  </g>
</svg>
