<?xml version="1.0" encoding="UTF-8"?>
<svg id="Layer_1" data-name="Layer 1" xmlns="http://www.w3.org/2000/svg" viewBox="0 0 841.89 595.28">
  <defs>
    <style>
      .cls-1 {
        fill: #07444c;
        stroke-width: 0px;
      }
    </style>
  </defs>
  <path class="cls-1" d="m568.25,190.22c0,19.94,0,39.88,0,59.82,0,7.26.03,14.51.05,21.77,0,.47-.02.94,0,1.42.06,1.78-.74,2.97-2.29,3.85-4.05,2.29-8.06,4.68-12.08,7.02-36.62,21.35-73.23,42.7-109.85,64.04-6.62,3.86-13.28,7.65-19.84,11.62-2.21,1.34-4.03,1.24-6.22-.03-32.31-18.78-64.66-37.5-96.99-56.24-14.59-8.45-29.14-16.96-43.79-25.3-2.6-1.48-3.55-3.22-3.54-6.19.07-30.38.03-60.76-.02-91.14-.03-23.95-.11-47.9-.17-71.85,0-.47.01-.94,0-1.42-.05-1.82.71-3.11,2.33-4.03,4.66-2.66,9.27-5.39,13.91-8.09,32.49-18.94,64.98-37.89,97.47-56.83,10.24-5.97,20.5-11.9,30.7-17.92,1.97-1.17,3.63-1.12,5.59.01,47.16,27.36,94.34,54.7,141.55,81.99,2.22,1.28,3.11,2.87,3.1,5.39-.05,23.36-.02,46.72,0,70.08,0,4.01,0,8.02,0,12.03.04,0,.07,0,.11,0Zm-25.1-10.24c-.67.34-1.15.56-1.6.83-6.32,3.68-12.61,7.4-18.96,11.02-1.3.74-1.75,1.57-1.74,3.06.07,11.15-.03,22.3.1,33.45.05,4.22-2.78,5.28-6,3.37-12.94-7.65-25.98-15.12-38.99-22.65-13.67-7.92-27.32-15.86-41.02-23.73-1.91-1.1-2.89-2.49-2.72-4.69.04-.53,0-1.06,0-1.59-.05-17.52-.1-35.04-.13-52.56-.03-12.98-.03-25.96-.03-38.93,0-.59,0-1.19.1-1.76.43-2.2,2.29-3.24,4.38-2.47.49.18.94.48,1.4.75,9.69,5.61,19.39,11.21,29.06,16.86,1.03.6,1.8.68,2.88.04,6.48-3.86,13.02-7.63,19.54-11.43.42-.25.81-.56,1.38-.95-23.48-13.6-46.73-27.07-70.06-40.59-23.28,13.57-46.53,27.13-70.08,40.86,7.68,4.45,15.05,8.72,22.45,13.01.57-.32,1.09-.59,1.6-.89,9.63-5.61,19.25-11.22,28.88-16.82.46-.27.9-.57,1.39-.77,2.08-.86,3.97.19,4.35,2.4.1.58.13,1.17.13,1.76.05,8.14.09,16.28.12,24.42.02,6.25,0,12.51,0,18.76.02,16.58.01,33.15.08,49.73.01,2.32-.77,3.87-2.87,4.98-3.02,1.6-5.92,3.41-8.88,5.13-23.63,13.78-47.26,27.55-70.89,41.32-.65.38-1.35.75-2.07.95-1.8.49-3.3-.41-3.72-2.24-.18-.79-.24-1.63-.24-2.45-.03-11.09-.05-22.18-.02-33.27,0-1.28-.37-2.01-1.5-2.65-6.46-3.67-12.87-7.42-19.3-11.14-.44-.25-.91-.45-1.67-.83,0,1,0,1.73,0,2.47.03,25.66.06,51.32.04,76.98,0,1.44.47,2.2,1.69,2.9,22.31,12.88,44.59,25.8,66.89,38.71.44.25.91.45,1.63.8,0-.89,0-1.52,0-2.15-.01-7.31-.07-14.63,0-21.94.01-1.44-.48-2.19-1.69-2.89-9.62-5.51-19.14-11.19-28.82-16.58-3.82-2.13-3.01-5.22-.07-6.92,26.79-15.5,53.5-31.12,80.23-46.72,1.76-1.03,3.34-1.03,5.12,0,26.71,15.51,53.44,30.99,80.17,46.47.51.3,1.03.58,1.5.94,1.69,1.31,1.72,3.71.03,5.02-.79.61-1.69,1.07-2.55,1.58-9.32,5.44-18.63,10.88-27.97,16.28-.98.57-1.41,1.16-1.4,2.35.06,7.55.03,15.1.04,22.65,0,.51.07,1.01.13,1.8.74-.4,1.31-.67,1.84-.98,22.26-12.97,44.51-25.95,66.78-38.9,1.06-.62,1.44-1.3,1.42-2.52-.08-5.13-.07-10.26-.08-15.39-.02-20.65-.04-41.29-.06-61.94,0-.47,0-.94-.02-1.42-.01-.22-.09-.43-.2-.89Zm-52.1,74.96c-.71-.47-1.18-.8-1.67-1.09-22.29-12.92-44.58-25.82-66.85-38.78-1.2-.7-2.04-.63-3.19.05-8.42,4.98-16.89,9.89-25.34,14.81-13.75,8.02-27.5,16.03-41.25,24.05-.52.31-1.02.66-1.66,1.09.56.38.88.63,1.22.83,6.63,3.85,13.27,7.67,19.88,11.55.89.52,1.54.48,2.41-.04,4.87-2.89,9.77-5.72,14.65-8.57,5.04-2.94,10.1-5.85,15.11-8.84,2.35-1.4,5.43-.52,5.32,3,0,.24,0,.47,0,.71.02,7.31.05,14.63.05,21.94.02,20.65.03,41.29.05,61.94,0,1.71.07,3.42,0,5.13-.05,1.09.39,1.71,1.32,2.22,2.63,1.46,5.21,2.99,7.82,4.5.75.44,1.51.86,2.25,1.28,3.83-2.24,7.53-4.4,11.23-6.56,0-.74,0-1.33,0-1.92,0-16.64,0-33.27-.02-49.91-.01-12.15-.04-24.3-.05-36.46,0-1.18-.06-2.37.04-3.54.2-2.46,2.29-3.7,4.57-2.74.49.2.93.51,1.39.77,9.69,5.61,19.38,11.23,29.08,16.84.45.26.92.47,1.39.71,7.39-4.31,14.71-8.58,22.26-12.99Zm-160.59-35.9c.67-.35,1.18-.61,1.67-.89,22.05-12.85,44.09-25.71,66.16-38.52,1.5-.87,2.12-1.76,2.11-3.56-.12-18.05-.13-36.09-.16-54.14-.02-7.67-.02-15.33-.04-23,0-.56-.06-1.12-.09-1.87-.67.34-1.14.55-1.58.81-6.37,3.7-12.71,7.45-19.12,11.09-1.25.71-1.66,1.52-1.65,2.92.06,11.15.04,22.29.02,33.44,0,.87-.09,1.78-.35,2.6-.46,1.44-1.91,2.17-3.38,1.8-.62-.16-1.22-.43-1.77-.75-9.9-5.72-19.79-11.46-29.68-17.19-15.65-9.07-31.32-18.13-46.95-27.24-1.1-.64-1.93-.7-3.04-.01-2.8,1.74-5.66,3.39-8.55,4.99-.96.53-1.3,1.17-1.28,2.24.06,3.18.11,6.37-.02,9.55-.06,1.57.48,2.4,1.84,3.19,25.11,14.49,50.2,29.04,75.28,43.58.76.44,1.56.86,2.25,1.4,1.7,1.33,1.68,3.69-.06,4.99-.8.6-1.69,1.08-2.55,1.58-9.27,5.4-18.52,10.82-27.82,16.18-1.11.64-1.53,1.36-1.52,2.65.1,7.55.1,15.1.15,22.64,0,.44.08.89.14,1.52Zm181.18-.19v-2.12c0-7.31-.04-14.63.03-21.94.01-1.43-.45-2.2-1.68-2.9-9.67-5.53-19.24-11.23-28.96-16.67-3.28-1.83-3.34-4.94-.03-6.83,13.77-7.86,27.42-15.92,41.12-23.91,11.76-6.86,23.52-13.73,35.3-20.55,1.04-.6,1.51-1.26,1.48-2.49-.08-3.3-.07-6.61,0-9.91.02-1.13-.29-1.82-1.33-2.39-2.95-1.61-5.84-3.32-8.72-5.05-.9-.54-1.69-.74-2.56-.02-.18.15-.4.24-.61.36-25.1,14.64-50.2,29.27-75.31,43.91-.56.33-1.1.69-1.69.96-2.36,1.08-4.44-.09-4.75-2.66-.07-.58-.04-1.18-.04-1.77,0-10.97,0-21.94,0-32.91,0-.7,0-1.4,0-2-4.82-3.27-21.08-12.45-22.45-12.64,0,.66,0,1.3,0,1.94.01,13.39.03,26.78.04,40.17,0,12.45.03,24.89,0,37.34,0,1.14.31,1.79,1.33,2.38,22.36,12.91,44.69,25.86,67.03,38.8.49.28,1.02.51,1.83.92Zm-17.76-47.14c.51.36.83.62,1.17.82,6.68,3.88,13.37,7.73,20.03,11.64.9.53,1.55.44,2.4-.05,9.71-5.69,19.44-11.35,29.18-17.01.61-.35,1.24-.69,1.91-.89,1.68-.51,3.26.31,3.74,2,.22.78.26,1.62.26,2.44.03,11.38.05,22.77.06,34.15.02,19.53.01,39.05.09,58.58,0,2.34-.78,3.79-2.83,4.98-26.66,15.48-53.28,31.03-79.92,46.55-.51.29-1.03.59-1.58.77-2.13.72-3.95-.43-4.21-2.65-.08-.64-.06-1.3-.06-1.94-.02-11.15-.04-22.3-.04-33.45,0-1.02-.18-1.73-1.17-2.3-6.71-3.82-13.38-7.72-20.06-11.58-.32-.19-.71-.26-1.09-.39-.36,2.82-.14,73.88.25,75.17.53-.29,1.04-.55,1.54-.84,37.94-22.11,75.88-44.23,113.84-66.32,1.29-.75,1.73-1.57,1.72-3.06-.09-24.6-.12-49.2-.15-73.79-.02-19.23-.03-38.46-.05-57.69,0-.53.03-1.06-.01-1.59-.03-.37-.15-.73-.26-1.28-21.64,12.62-43.12,25.14-64.73,37.74Zm-125.3-35.6c0-1.14,0-1.78,0-2.43-.02-7.31-.08-14.63-.01-21.94.01-1.41-.52-2.09-1.66-2.75-9.61-5.51-19.19-11.09-28.78-16.64-.51-.3-1.04-.57-1.5-.93-1.6-1.22-1.69-3.62-.17-4.93.49-.42,1.07-.73,1.63-1.06,26.58-15.5,53.17-30.98,79.72-46.52,2.11-1.24,3.83-1.17,5.9.03,26.34,15.32,52.72,30.59,79.08,45.87.71.41,1.45.8,2.11,1.29,1.8,1.33,1.81,3.76.02,5.12-.56.43-1.19.76-1.81,1.11-9.52,5.55-19.04,11.11-28.58,16.64-.95.55-1.45,1.12-1.44,2.33.06,7.67.03,15.34.04,23,0,.44.11.87.2,1.54,21.66-12.63,43.11-25.14,64.88-37.83-.99-.6-1.66-1.03-2.36-1.43-37.84-21.93-75.69-43.84-113.51-65.81-1.26-.73-2.14-.64-3.33.06-12.05,7.07-24.12,14.09-36.19,21.13-25.97,15.14-51.94,30.28-77.91,45.42-.43.25-.81.57-1.41,1,21.72,12.58,43.21,25.03,65.09,37.71Zm31.69,202.46c.47-2.16.33-73.8-.13-75.17-.22.08-.45.13-.64.25-6.88,4-13.74,8.02-20.63,12-.74.43-.92.98-.9,1.74.05,1.89.11,3.77.11,5.66.01,9.56,0,19.11,0,28.67,0,.58-.1,1.17-.16,1.75-.25,2.2-2.66,3.01-4.31,2.31-.7-.3-1.35-.72-2.01-1.1-21.47-12.44-42.94-24.87-64.41-37.31-5.1-2.95-10.18-5.94-15.31-8.85-1.72-.98-2.61-2.27-2.5-4.28.07-1.23-.03-2.48-.04-3.71-.02-10.44-.04-20.88-.05-31.32-.01-19.46-.02-38.93-.01-58.39,0-.7.04-1.42.2-2.11.37-1.66,2-2.65,3.64-2.18.78.22,1.52.62,2.23,1.03,9.65,5.57,19.28,11.16,28.92,16.74.45.26.92.49,1.33.7,5.12-2.57,21.11-12.1,22.01-13.1-2.17-1.68-63.46-37.03-64.69-37.28,0,1,0,1.99,0,2.98.01,11.15.03,22.29.03,33.44.01,20.7,0,41.41.02,62.11,0,11.91.06,23.83.02,35.74,0,1.35.39,2.1,1.58,2.78,9.31,5.32,18.58,10.72,27.86,16.1,28.71,16.64,57.42,33.27,86.13,49.91.54.32,1.11.59,1.7.9Z"/>
  <path class="cls-1" d="m556.59,428.34c-.58,2.11-1.17,4.23-1.75,6.34-.99,3.66-1.97,7.31-2.96,10.97-.5,1.85-1.23,2.46-3.17,2.47-4.65.04-9.31.04-13.96,0-2.12-.01-2.75-.55-3.33-2.63-1.4-5.03-2.78-10.07-4.17-15.11-.14-.5-.29-.99-.69-1.49-.03.39-.09.77-.09,1.16.02,4.75.07,9.5.09,14.25.01,3.09-.83,3.93-3.91,3.93-5.09,0-10.17,0-15.26,0-.24,0-.48,0-.72,0-2.14-.11-3.02-1-3.09-3.13,0-.24,0-.48,0-.72-.02-19.25-.04-38.49-.05-57.74,0-.62.01-1.25.1-1.86.21-1.38.85-2.03,2.2-2.27.42-.07.86-.07,1.29-.07,8.4,0,16.79-.01,25.19-.02.24,0,.48,0,.72,0,1.83.08,2.59.68,3.05,2.44,1.26,4.77,2.51,9.55,3.77,14.33.85,3.25,1.71,6.49,2.57,9.73.11.41.26.8.49,1.52.23-.74.38-1.17.49-1.61,2.04-7.89,4.07-15.78,6.1-23.67.57-2.22,1.23-2.74,3.52-2.75,8.2-.02,16.41-.03,24.61-.04.29,0,.58,0,.86.01,1.64.12,2.42.81,2.7,2.45.07.42.07.86.07,1.29.02,19.39.03,38.78.05,58.17,0,3.08-.75,3.83-3.82,3.83-5.57,0-11.13,0-16.7,0-.14,0-.29,0-.43,0-2.59-.05-3.43-.88-3.44-3.49-.01-4.9,0-9.79,0-14.69,0-.52,0-1.05,0-1.57l-.33-.04Z"/>
  <path class="cls-1" d="m283.6,423.87c0,.47,0,.94,0,1.41,0,6.57,0,13.15,0,19.72,0,.43-.02.86-.09,1.29-.21,1.23-.93,1.97-2.17,2.16-.42.07-.86.09-1.29.09-5.28,0-10.55,0-15.83,0-.1,0-.19,0-.29,0-2.3-.04-3.24-.94-3.26-3.24-.04-4.61-.04-9.21-.05-13.82-.02-14.78-.03-29.56-.05-44.34,0-.48-.01-.96,0-1.44.1-1.91.91-2.78,2.83-2.94.81-.07,1.63-.02,2.45-.02,4.37-.01,8.73.01,13.1-.05,1.56-.02,2.71.49,3.74,1.7,6.35,7.51,12.76,14.97,19.16,22.44.3.36.64.69,1.19,1.29.04-.81.08-1.31.08-1.81-.03-6.43-.06-12.86-.09-19.29,0-.29,0-.58,0-.86.04-2.53.96-3.46,3.5-3.47,5.33,0,10.65,0,15.98,0,.52,0,1.05.07,1.56.18,1.13.23,1.73.98,1.87,2.09.07.52.08,1.05.08,1.58.02,19.24.04,38.49.06,57.73,0,.57,0,1.16-.07,1.72-.19,1.51-.89,2.17-2.42,2.36-.28.04-.57.05-.86.05-4.94.04-9.88.04-14.82.12-1.71.03-2.98-.55-4.11-1.87-6.24-7.29-12.55-14.52-18.84-21.76-.34-.39-.69-.76-1.04-1.15-.11.04-.21.07-.32.11Z"/>
  <path class="cls-1" d="m314.52,522.35c-1.16,2.15-2.31,4.3-3.47,6.45-.32.6-.7,1.25-1.34,1.48-.59.21-1.24.02-1.83-.18-4.66-1.55-9.32-3.1-13.98-4.64-2.93-.97-5.93-1.99-8.32-3.94s-4.06-5.1-3.39-8.12c-4.64,1.55-10.06,4.01-10.67,8.86-.17,1.31.07,2.63.33,3.92,1.7,8.47,4.62,16.68,6.02,25.2,1.39,8.53,1.11,17.73-3.23,25.2-.37.64-.92,1.35-1.66,1.3-2.83-14.79-5.66-29.57-8.49-44.36-1.3-6.8-1.54-12.52,1.18-18.97,2.54-6.02,7.59-9.84,13.1-13.04,7.6-4.41,15.62-8.03,23.63-11.64,2.91-1.31,6.02-2.65,9.17-2.18-.43,3.95-.84,8.1.68,11.77,2.04,4.92,7.08,7.87,12.04,9.81,8.66,3.38,17.99,4.71,27.27,5.36,21.14,1.46,42.52-.57,63-5.98-5.68-6.81-5.35-17.87.74-24.33,4.4,2.7,7.23,7.53,8.19,12.6.96,5.07.19,10.35-1.42,15.24-1.2,3.64-2.97,7.27-5.99,9.63-2.89,2.26-6.6,3.14-10.2,3.89-30.27,6.35-62.67,8.19-91.38-3.32Zm-20.12-14.67c-.01.11-.03.22-.04.33,3.59,1.36,7.02,3.09,10.75,4.37.19-2.31-.5-4.3-.8-6.33-.03-.23-.15-.45-.25-.66-.43-.92-1.12-1.18-2.08-.8-.95.38-1.92.72-2.87,1.11-1.58.65-3.15,1.33-4.72,1.99Z"/>
  <path class="cls-1" d="m420.1,382.71c4.94,0,9.89-.18,14.82.05,5.75.27,11.32,1.5,16.38,4.41,6.12,3.52,10.06,8.79,11.97,15.56,2.33,8.27,2.41,16.6.16,24.88-2.81,10.36-9.72,16.58-20,19.2-3.97,1.01-8,1.5-12.1,1.49-8.44,0-16.89.02-25.33.04-.38,0-.77,0-1.15,0-1.91-.06-2.78-.89-2.94-2.81-.02-.29-.02-.58-.02-.86-.03-7.92-.08-15.84-.09-23.76-.02-11.47-.03-22.94-.02-34.42,0-.62.07-1.24.18-1.85.22-1.2,1.02-1.8,2.18-1.94.43-.05.86-.07,1.29-.07,4.89,0,9.79,0,14.68,0,0,.03,0,.06,0,.09Zm6.34,45.99c2.17.05,4.16.12,6.16-.14,4.92-.65,6.59-3.61,7.08-6.79.65-4.18.62-8.42,0-12.61-.47-3.21-2.24-5.59-5.51-6.53-2.52-.73-5.1-.39-7.74-.43v26.49Z"/>
  <path class="cls-1" d="m372,439.94h-17.5c-.18.53-.38,1.05-.55,1.59-.47,1.56-.91,3.13-1.4,4.68-.49,1.58-1.15,2.07-2.8,2.19-.19.01-.38.01-.58.01-6.04,0-12.09.01-18.13.01-.38,0-.77-.02-1.15-.08-1.61-.25-2.42-1.36-2.16-2.96.09-.51.27-1.02.45-1.51,7.06-19.46,14.13-38.93,21.19-58.39.05-.14.11-.27.16-.4.71-1.91,1.35-2.36,3.43-2.38,1.77-.02,3.55-.04,5.32-.04,5.18,0,10.36,0,15.54,0,2.33,0,2.92.42,3.72,2.6,7.12,19.44,14.25,38.89,21.36,58.33.21.58.42,1.18.52,1.79.25,1.44-.52,2.56-1.95,2.85-.42.09-.86.09-1.29.1-6.23.02-12.47.03-18.7.05-.34,0-.67,0-1.01-.03-1.29-.08-2.14-.74-2.52-1.99-.51-1.7-1.03-3.39-1.54-5.09-.12-.41-.26-.82-.43-1.33Zm-11.96-18.83h6.36c-1.03-3.5-2.02-6.87-3.01-10.23-.1,0-.21-.01-.31-.02-.99,3.36-1.99,6.72-3.03,10.24Z"/>
  <path class="cls-1" d="m571.53,517.64c-1.3-1.6-2.38-3.25-2.7-5.26-.16-1.01-.3-2.08-.14-3.07.34-2.09,1.12-4.08,2.14-5.93.88-1.6,1.72-3.2,2.3-4.93.39-1.16,1.31-1.4,2.32-.7,2.21,1.56,3.8,3.68,4.78,6.13,1.31,3.26,1.29,6.81.7,10.22-.86,5.04-2.17,10.32-4.93,14.68-2.03,3.22-5.45,5.18-8.85,6.71-4.94,2.23-10.11,3.45-15.4,4.49-11.05,2.15-22.32,2.54-33.56,2.22-5.37-.15-11.05-.12-16.3-1.44-2.84-.66-5.59-1.73-7.84-3.61-1.56-1.3-2.93-2.84-4.08-4.6-1.4-2.17-2.18-4.57-3.16-6.91-.12-.3-.29-.57-.56-1.11-.59,1.28-1.14,2.34-1.58,3.44-.83,2.09-2.08,3.88-3.69,5.41-7.81,7.4-20.79,7.96-30.91,8.4-3.72.16-8.07.12-11.13-2.32-1.73-1.38-2.68-3.13-2.96-5.36-.38-3.12-.18-6.24.11-9.32.3-3.14,1.4-6.12,2.92-8.91.28-.52.66-.78,1.22-.81.5-.03.79.18.83.73.1,1.54.2,3.09.36,4.62.51,4.86,7.89,5.26,11.62,5.24,9.62-.06,21.21-1,29.21-7.08,1.38-1.05,1.54-2.07.9-3.69-.57-1.44-1.02-2.93-1.51-4.4-.78-2.36-1.52-4.73-2.31-7.09-.41-1.24-1-2.44-1.3-3.71-.41-1.77-.78-3.59-.89-5.4-.14-2.33.65-4.52,1.42-6.7.53-1.5.95-3.04,1.33-4.58.26-1.07.59-1.45,1.54-1.46.6,0,.96.22,1.16.8.36,1.06.78,2.1,1.16,3.16,1.76,4.96,3.51,9.91,5.25,14.88.98,2.79,1.93,5.6,2.89,8.4.77,2.27,1.43,4.57,2.31,6.79,1.14,2.86,3.14,5,5.93,6.36.17.08.35.13.53.17,13.6,3.05,28.14,4.66,42.11,3,7.37-.88,14.6-2.68,21.76-4.6,1.58-.42,3.17-.84,4.72-1.35.83-.27,1.73-.51,2.25-1.51Z"/>
  <path class="cls-1" d="m495.9,415.5c0,9.5,0,19,0,28.5,0,.48.02.96-.02,1.44-.12,1.77-.91,2.6-2.66,2.81-.28.03-.57.02-.86.02-5.8,0-11.61,0-17.41,0-.34,0-.67.01-1.01-.03-1.58-.21-2.4-1.06-2.54-2.64-.04-.43-.02-.86-.02-1.29-.02-16.89-.03-33.78-.05-50.67,0-2.45-.03-4.89-.03-7.34,0-.57.03-1.15.13-1.72.17-.98.75-1.66,1.74-1.89.56-.13,1.13-.21,1.7-.21,5.8-.02,11.61-.03,17.41-.04.34,0,.67-.01,1.01.03,1.49.19,2.22.89,2.47,2.37.08.47.06.96.06,1.43,0,9.74,0,19.48,0,29.22h.09Z"/>
  <path class="cls-1" d="m374.09,546.77c.17-.04.23-.03.26-.06,1.77-1.67,3.54-3.35,5.32-5.01,1.2-1.12,2.42-2.22,3.66-3.31.71-.62,1.23-.61,1.95.13,1.62,1.65,3.19,3.34,4.79,5,1.04,1.09,2.09,2.17,3.14,3.25.76.78.77,1.55.05,2.32-2.36,2.5-4.71,5.01-7.06,7.52-.29.31-.58.62-.9.9-.77.68-1.33.7-2.09.03-1.09-.96-2.16-1.95-3.23-2.93-1.25-1.14-2.41-2.39-3.76-3.39-.76-.56-1.8-.74-2.73-1.04-.17-.06-.45.09-.64.21-.23.15-.43.37-.63.56-1.9,1.82-3.8,3.64-5.69,5.48-1.46,1.42-3.28,1.37-4.69-.12-1.75-1.84-3.51-3.67-5.29-5.49-.36-.36-.81-.63-1.21-.95-1.05-.85-1.03-1.57-.09-2.56,2.53-2.66,5.02-5.37,7.53-8.05.19-.21.37-.43.57-.63.72-.68,1.1-.7,1.82-.04,1.24,1.14,2.45,2.32,3.69,3.45,1.73,1.58,3.48,3.15,5.24,4.74Z"/>
  <path class="cls-1" d="m530.7,505.27c-.45-.34-.88-.6-1.21-.95-2.49-2.65-4.95-5.32-7.43-7.98-.39-.41-.81-.79-1.19-1.21-.61-.67-.58-1.3.02-1.99,1.11-1.27,2.16-2.59,3.29-3.85,1.88-2.1,3.78-4.17,5.7-6.22.64-.69,1.27-.65,1.94.12,1.1,1.27,2.1,2.64,3.22,3.91,1.65,1.88,3.35,3.7,5.04,5.54.16.17.34.33.5.51.59.7.56,1.58-.09,2.27-2.87,3.06-5.74,6.13-8.62,9.18-.26.28-.68.41-1.14.68Z"/>
</svg>