<svg version="1.2" xmlns="http://www.w3.org/2000/svg" viewBox="0 0 325 564" width="325" height="564">
	<style>
		.s0 { fill: #07444c } 
	</style>
	<path class="s0" d="m310.25 174.22q0 29.91 0 59.82 0.01 10.89 0.05 21.77-0.02 0.7 0 1.42c0.06 1.78-0.74 2.97-2.29 3.85-4.05 2.29-8.06 4.68-12.08 7.02q-54.93 32.03-109.85 64.04c-6.62 3.86-13.28 7.65-19.84 11.62-2.21 1.34-4.03 1.24-6.22-0.03-32.31-18.78-64.66-37.5-96.99-56.24-14.59-8.45-29.14-16.96-43.79-25.3-2.6-1.48-3.55-3.22-3.54-6.19 0.07-30.38 0.03-60.76-0.02-91.14-0.03-23.95-0.11-47.9-0.17-71.85q0.01-0.7 0-1.42c-0.05-1.82 0.71-3.11 2.33-4.03 4.66-2.66 9.27-5.39 13.91-8.09q48.73-28.41 97.47-56.83c10.24-5.97 20.5-11.9 30.7-17.92 1.97-1.17 3.63-1.12 5.59 0.01q70.74 41.05 141.55 81.99c2.22 1.28 3.11 2.87 3.1 5.39-0.05 23.36-0.02 46.72 0 70.08q0 6.02 0 12.03 0.05 0 0.11 0zm-25.1-10.24c-0.67 0.34-1.15 0.56-1.6 0.83-6.32 3.68-12.61 7.4-18.96 11.02-1.3 0.74-1.75 1.57-1.74 3.06 0.07 11.15-0.03 22.3 0.1 33.45 0.05 4.22-2.78 5.28-6 3.37-12.94-7.65-25.98-15.12-38.99-22.65-13.67-7.92-27.32-15.86-41.02-23.73-1.91-1.1-2.89-2.49-2.72-4.69 0.04-0.53 0-1.06 0-1.59q-0.08-26.28-0.13-52.56-0.04-19.47-0.03-38.93c0-0.59 0-1.19 0.1-1.76 0.43-2.2 2.29-3.24 4.38-2.47 0.49 0.18 0.94 0.48 1.4 0.75 9.69 5.61 19.39 11.21 29.06 16.86 1.03 0.6 1.8 0.68 2.88 0.04 6.48-3.86 13.02-7.63 19.54-11.43 0.42-0.25 0.81-0.56 1.38-0.95-23.48-13.6-46.73-27.07-70.06-40.59-23.28 13.57-46.53 27.13-70.08 40.86 7.68 4.45 15.05 8.72 22.45 13.01 0.57-0.32 1.09-0.59 1.6-0.89q14.44-8.42 28.88-16.82c0.46-0.27 0.9-0.57 1.39-0.77 2.08-0.86 3.97 0.19 4.35 2.4q0.14 0.87 0.13 1.76 0.07 12.21 0.12 24.42 0.01 9.38 0 18.76c0.02 16.58 0.01 33.15 0.08 49.73 0.01 2.32-0.77 3.87-2.87 4.98-3.02 1.6-5.92 3.41-8.88 5.13q-35.45 20.67-70.89 41.32c-0.65 0.38-1.35 0.75-2.07 0.95-1.8 0.49-3.3-0.41-3.72-2.24-0.18-0.79-0.24-1.63-0.24-2.45q-0.06-16.63-0.02-33.27c0-1.28-0.37-2.01-1.5-2.65-6.46-3.67-12.87-7.42-19.3-11.14-0.44-0.25-0.91-0.45-1.67-0.83 0 1 0 1.73 0 2.47q0.06 38.49 0.04 76.98c0 1.44 0.47 2.2 1.69 2.9 22.31 12.88 44.59 25.8 66.89 38.71 0.44 0.25 0.91 0.45 1.63 0.8 0-0.89 0-1.52 0-2.15-0.01-7.31-0.07-14.63 0-21.94 0.01-1.44-0.48-2.19-1.69-2.89-9.62-5.51-19.14-11.19-28.82-16.58-3.82-2.13-3.01-5.22-0.07-6.92 26.79-15.5 53.5-31.12 80.23-46.72 1.76-1.03 3.34-1.03 5.12 0q40.07 23.26 80.17 46.47c0.51 0.3 1.03 0.58 1.5 0.94 1.69 1.31 1.72 3.71 0.03 5.02-0.79 0.61-1.69 1.07-2.55 1.58q-13.97 8.17-27.97 16.28c-0.98 0.57-1.41 1.16-1.4 2.35 0.06 7.55 0.03 15.1 0.04 22.65 0 0.51 0.07 1.01 0.13 1.8 0.74-0.4 1.31-0.67 1.84-0.98q33.38-19.46 66.78-38.9c1.06-0.62 1.44-1.3 1.42-2.52-0.08-5.13-0.07-10.26-0.08-15.39q-0.03-30.97-0.06-61.94 0-0.7-0.02-1.42c-0.01-0.22-0.09-0.43-0.2-0.89zm-52.1 74.96c-0.71-0.47-1.18-0.8-1.67-1.09-22.29-12.92-44.58-25.82-66.85-38.78-1.2-0.7-2.04-0.63-3.19 0.05-8.42 4.98-16.89 9.89-25.34 14.81q-20.63 12.03-41.25 24.05c-0.52 0.31-1.02 0.66-1.66 1.09 0.56 0.38 0.88 0.63 1.22 0.83 6.63 3.85 13.27 7.67 19.88 11.55 0.89 0.52 1.54 0.48 2.41-0.04 4.87-2.89 9.77-5.72 14.65-8.57 5.04-2.94 10.1-5.85 15.11-8.84 2.35-1.4 5.43-0.52 5.32 3q0 0.36 0 0.71 0.04 10.97 0.05 21.94 0.02 30.97 0.05 61.94c0 1.71 0.07 3.42 0 5.13-0.05 1.09 0.39 1.71 1.32 2.22 2.63 1.46 5.21 2.99 7.82 4.5q1.13 0.66 2.25 1.28c3.83-2.24 7.53-4.4 11.23-6.56 0-0.74 0-1.33 0-1.92q0-24.95-0.02-49.91-0.03-18.22-0.05-36.46c0-1.18-0.06-2.37 0.04-3.54 0.2-2.46 2.29-3.7 4.57-2.74 0.49 0.2 0.93 0.51 1.39 0.77q14.53 8.42 29.08 16.84c0.45 0.26 0.92 0.47 1.39 0.71 7.39-4.31 14.71-8.58 22.26-12.99zm-160.59-35.9c0.67-0.35 1.18-0.61 1.67-0.89 22.05-12.85 44.09-25.71 66.16-38.52 1.5-0.87 2.12-1.76 2.11-3.56-0.12-18.05-0.13-36.09-0.16-54.14q-0.02-11.5-0.04-23c0-0.56-0.06-1.12-0.09-1.87-0.67 0.34-1.14 0.55-1.58 0.81-6.37 3.7-12.71 7.45-19.12 11.09-1.25 0.71-1.66 1.52-1.65 2.92 0.06 11.15 0.04 22.29 0.02 33.44 0 0.87-0.09 1.78-0.35 2.6-0.46 1.44-1.91 2.17-3.38 1.8-0.62-0.16-1.22-0.43-1.77-0.75q-14.85-8.59-29.68-17.19c-15.65-9.07-31.32-18.13-46.95-27.24-1.1-0.64-1.93-0.7-3.04-0.01q-4.21 2.6-8.55 4.99c-0.96 0.53-1.3 1.17-1.28 2.24 0.06 3.18 0.11 6.37-0.02 9.55-0.06 1.57 0.48 2.4 1.84 3.19 25.11 14.49 50.2 29.04 75.28 43.58 0.76 0.44 1.56 0.86 2.25 1.4 1.7 1.33 1.68 3.69-0.06 4.99-0.8 0.6-1.69 1.08-2.55 1.58-9.27 5.4-18.52 10.82-27.82 16.18-1.11 0.64-1.53 1.36-1.52 2.65 0.1 7.55 0.1 15.1 0.15 22.64 0 0.44 0.08 0.89 0.14 1.52zm181.18-0.19v-2.12c0-7.31-0.04-14.63 0.03-21.94 0.01-1.43-0.45-2.2-1.68-2.9-9.67-5.53-19.24-11.23-28.96-16.67-3.28-1.83-3.34-4.94-0.03-6.83 13.77-7.86 27.42-15.92 41.12-23.91q17.63-10.3 35.3-20.55c1.04-0.6 1.51-1.26 1.48-2.49q-0.11-4.95 0-9.91c0.02-1.13-0.29-1.82-1.33-2.39-2.95-1.61-5.84-3.32-8.72-5.05-0.9-0.54-1.69-0.74-2.56-0.02-0.18 0.15-0.4 0.24-0.61 0.36q-37.65 21.96-75.31 43.91c-0.56 0.33-1.1 0.69-1.69 0.96-2.36 1.08-4.44-0.09-4.75-2.66-0.07-0.58-0.04-1.18-0.04-1.77q0-16.45 0-32.91c0-0.7 0-1.4 0-2-4.82-3.27-21.08-12.45-22.45-12.64q0 0.99 0 1.94 0.02 20.09 0.04 40.17c0 12.45 0.03 24.89 0 37.34 0 1.14 0.31 1.79 1.33 2.38 22.36 12.91 44.69 25.86 67.03 38.8 0.49 0.28 1.02 0.51 1.83 0.92zm-17.76-47.14c0.51 0.36 0.83 0.62 1.17 0.82 6.68 3.88 13.37 7.73 20.03 11.64 0.9 0.53 1.55 0.44 2.4-0.05q14.57-8.53 29.18-17.01c0.61-0.35 1.24-0.69 1.91-0.89 1.68-0.51 3.26 0.31 3.74 2 0.22 0.78 0.26 1.62 0.26 2.44q0.04 17.08 0.06 34.15c0.02 19.53 0.01 39.05 0.09 58.58 0 2.34-0.78 3.79-2.83 4.98-26.66 15.48-53.28 31.03-79.92 46.55-0.51 0.29-1.03 0.59-1.58 0.77-2.13 0.72-3.95-0.43-4.21-2.65-0.08-0.64-0.06-1.3-0.06-1.94q-0.04-16.72-0.04-33.45c0-1.02-0.18-1.73-1.17-2.3-6.71-3.82-13.38-7.72-20.06-11.58-0.32-0.19-0.71-0.26-1.09-0.39-0.36 2.82-0.14 73.88 0.25 75.17q0.79-0.42 1.54-0.84 56.9-33.17 113.84-66.32c1.29-0.75 1.73-1.57 1.72-3.06q-0.12-36.9-0.15-73.79-0.03-28.84-0.05-57.69c0-0.53 0.03-1.06-0.01-1.59-0.03-0.37-0.15-0.73-0.26-1.28-21.64 12.62-43.12 25.14-64.73 37.74zm-125.3-35.6c0-1.14 0-1.78 0-2.43-0.02-7.31-0.08-14.63-0.01-21.94 0.01-1.41-0.52-2.09-1.66-2.75-9.61-5.51-19.19-11.09-28.78-16.64-0.51-0.3-1.04-0.57-1.5-0.93-1.6-1.22-1.69-3.62-0.17-4.93 0.49-0.42 1.07-0.73 1.63-1.06 26.58-15.5 53.17-30.98 79.72-46.52 2.11-1.24 3.83-1.17 5.9 0.03 26.34 15.32 52.72 30.59 79.08 45.87 0.71 0.41 1.45 0.8 2.11 1.29 1.8 1.33 1.81 3.76 0.02 5.12-0.56 0.43-1.19 0.76-1.81 1.11q-14.28 8.34-28.58 16.64c-0.95 0.55-1.45 1.12-1.44 2.33 0.06 7.67 0.03 15.34 0.04 23 0 0.44 0.11 0.87 0.2 1.54 21.66-12.63 43.11-25.14 64.88-37.83-0.99-0.6-1.66-1.03-2.36-1.43-37.84-21.93-75.69-43.84-113.51-65.81-1.26-0.73-2.14-0.64-3.33 0.06-12.05 7.07-24.12 14.09-36.19 21.13q-38.96 22.71-77.91 45.42c-0.43 0.25-0.81 0.57-1.41 1 21.72 12.58 43.21 25.03 65.09 37.71zm31.69 202.46c0.47-2.16 0.33-73.8-0.13-75.17-0.22 0.08-0.45 0.13-0.64 0.25-6.88 4-13.74 8.02-20.63 12-0.74 0.43-0.92 0.98-0.9 1.74 0.05 1.89 0.11 3.77 0.11 5.66q0.01 14.34 0 28.67c0 0.58-0.1 1.17-0.16 1.75-0.25 2.2-2.66 3.01-4.31 2.31-0.7-0.3-1.35-0.72-2.01-1.1q-32.21-18.65-64.41-37.31c-5.1-2.95-10.18-5.94-15.31-8.85-1.72-0.98-2.61-2.27-2.5-4.28 0.07-1.23-0.03-2.48-0.04-3.71q-0.03-15.66-0.05-31.32-0.02-29.19-0.01-58.39c0-0.7 0.04-1.42 0.2-2.11 0.37-1.66 2-2.65 3.64-2.18 0.78 0.22 1.52 0.62 2.23 1.03q14.47 8.36 28.92 16.74c0.45 0.26 0.92 0.49 1.33 0.7 5.12-2.57 21.11-12.1 22.01-13.1-2.17-1.68-63.46-37.03-64.69-37.28q0 1.5 0 2.98 0.02 16.72 0.03 33.44 0 31.06 0.02 62.11c0 11.91 0.06 23.83 0.02 35.74 0 1.35 0.39 2.1 1.58 2.78 9.31 5.32 18.58 10.72 27.86 16.1q43.06 24.96 86.13 49.91c0.54 0.32 1.11 0.59 1.7 0.9z"/>
	<path class="s0" d="m298.59 412.34q-0.87 3.17-1.75 6.34-1.48 5.48-2.96 10.97c-0.5 1.85-1.23 2.46-3.17 2.47q-6.98 0.06-13.96 0c-2.12-0.01-2.75-0.55-3.33-2.63q-2.09-7.55-4.17-15.11c-0.14-0.5-0.29-0.99-0.69-1.49-0.03 0.39-0.09 0.77-0.09 1.16q0.04 7.13 0.09 14.25c0.01 3.09-0.83 3.93-3.91 3.93q-7.63 0-15.26 0-0.36 0-0.72 0c-2.14-0.11-3.02-1-3.09-3.13q0-0.36 0-0.72-0.03-28.87-0.05-57.74c0-0.62 0.01-1.25 0.1-1.86 0.21-1.38 0.85-2.03 2.2-2.27 0.42-0.07 0.86-0.07 1.29-0.07q12.59 0 25.19-0.02 0.36 0 0.72 0c1.83 0.08 2.59 0.68 3.05 2.44q1.89 7.16 3.77 14.33 1.28 4.87 2.57 9.73c0.11 0.41 0.26 0.8 0.49 1.52 0.23-0.74 0.38-1.17 0.49-1.61q3.06-11.83 6.1-23.67c0.57-2.22 1.23-2.74 3.52-2.75q12.31-0.03 24.61-0.04 0.44 0 0.86 0.01c1.64 0.12 2.42 0.81 2.7 2.45 0.07 0.42 0.07 0.86 0.07 1.29q0.03 29.08 0.05 58.17c0 3.08-0.75 3.83-3.82 3.83q-8.35 0-16.7 0-0.21 0-0.43 0c-2.59-0.05-3.43-0.88-3.44-3.49q-0.01-7.35 0-14.69 0-0.79 0-1.57l-0.33-0.04z"/>
	<path class="s0" d="m25.6 407.87q0 0.71 0 1.41 0 9.86 0 19.72 0.01 0.64-0.09 1.29-0.31 1.86-2.17 2.16-0.64 0.1-1.29 0.09-7.91 0-15.83 0-0.14 0-0.29 0c-2.3-0.04-3.24-0.94-3.26-3.24q-0.05-6.91-0.05-13.82-0.02-22.17-0.05-44.34-0.01-0.72 0-1.44c0.1-1.91 0.91-2.78 2.83-2.94 0.81-0.07 1.63-0.02 2.45-0.02 4.37-0.01 8.73 0.01 13.1-0.05 1.56-0.02 2.71 0.49 3.74 1.7 6.35 7.51 12.76 14.97 19.16 22.44 0.3 0.36 0.64 0.69 1.19 1.29 0.04-0.81 0.08-1.31 0.08-1.81q-0.04-9.65-0.09-19.29 0-0.44 0-0.86c0.04-2.53 0.96-3.46 3.5-3.47q7.99 0 15.98 0 0.79 0.01 1.56 0.18c1.13 0.23 1.73 0.98 1.87 2.09q0.09 0.78 0.08 1.58 0.03 28.86 0.06 57.73c0 0.57 0 1.16-0.07 1.72-0.19 1.51-0.89 2.17-2.42 2.36q-0.42 0.05-0.86 0.05c-4.94 0.04-9.88 0.04-14.82 0.12-1.71 0.03-2.98-0.55-4.11-1.87-6.24-7.29-12.55-14.52-18.84-21.76q-0.51-0.58-1.04-1.15-0.16 0.06-0.32 0.11z"/>
	<path class="s0" d="m56.52 506.35q-1.74 3.22-3.47 6.45c-0.32 0.6-0.7 1.25-1.34 1.48-0.59 0.21-1.24 0.02-1.83-0.18q-6.99-2.33-13.98-4.64c-2.93-0.97-5.93-1.99-8.32-3.94-2.39-1.95-4.06-5.1-3.39-8.12-4.64 1.55-10.06 4.01-10.67 8.86-0.17 1.31 0.07 2.63 0.33 3.92 1.7 8.47 4.62 16.68 6.02 25.2 1.39 8.53 1.11 17.73-3.23 25.2-0.37 0.64-0.92 1.35-1.66 1.3q-4.25-22.18-8.49-44.36c-1.3-6.8-1.54-12.52 1.18-18.97 2.54-6.02 7.59-9.84 13.1-13.04 7.6-4.41 15.62-8.03 23.63-11.64 2.91-1.31 6.02-2.65 9.17-2.18-0.43 3.95-0.84 8.1 0.68 11.77 2.04 4.92 7.08 7.87 12.04 9.81 8.66 3.38 17.99 4.71 27.27 5.36 21.14 1.46 42.52-0.57 63-5.98-5.68-6.81-5.35-17.87 0.74-24.33 4.4 2.7 7.23 7.53 8.19 12.6 0.96 5.07 0.19 10.35-1.42 15.24-1.2 3.64-2.97 7.27-5.99 9.63-2.89 2.26-6.6 3.14-10.2 3.89-30.27 6.35-62.67 8.19-91.38-3.32zm-20.12-14.67q-0.02 0.16-0.04 0.33c3.59 1.36 7.02 3.09 10.75 4.37 0.19-2.31-0.5-4.3-0.8-6.33-0.03-0.23-0.15-0.45-0.25-0.66q-0.64-1.38-2.08-0.8c-0.95 0.38-1.92 0.72-2.87 1.11q-2.37 0.99-4.72 1.99z"/>
	<path class="s0" d="m162.1 366.71c4.94 0 9.89-0.18 14.82 0.05 5.75 0.27 11.32 1.5 16.38 4.41 6.12 3.52 10.06 8.79 11.97 15.56 2.33 8.27 2.41 16.6 0.16 24.88-2.81 10.36-9.72 16.58-20 19.2q-5.95 1.51-12.1 1.49-12.66 0.01-25.33 0.04-0.57 0-1.15 0c-1.91-0.06-2.78-0.89-2.94-2.81q-0.02-0.44-0.02-0.86-0.06-11.88-0.09-23.76-0.03-17.2-0.02-34.42 0.01-0.93 0.18-1.85c0.22-1.2 1.02-1.8 2.18-1.94q0.65-0.07 1.29-0.07 7.34 0 14.68 0 0 0.04 0 0.09zm6.34 45.99c2.17 0.05 4.16 0.12 6.16-0.14 4.92-0.65 6.59-3.61 7.08-6.79 0.65-4.18 0.62-8.42 0-12.61-0.47-3.21-2.24-5.59-5.51-6.53-2.52-0.73-5.1-0.39-7.74-0.43v26.49z"/>
	<path class="s0" d="m114 423.94h-17.5q-0.28 0.79-0.55 1.59c-0.47 1.56-0.91 3.13-1.4 4.68-0.49 1.58-1.15 2.07-2.8 2.19q-0.28 0.01-0.58 0.01-9.06 0-18.13 0.01-0.57 0-1.15-0.08c-1.61-0.25-2.42-1.36-2.16-2.96 0.09-0.51 0.27-1.02 0.45-1.51q10.6-29.2 21.19-58.39 0.08-0.21 0.16-0.4c0.71-1.91 1.35-2.36 3.43-2.38q2.66-0.03 5.32-0.04 7.77 0 15.54 0c2.33 0 2.92 0.42 3.72 2.6q10.69 29.17 21.36 58.33c0.21 0.58 0.42 1.18 0.52 1.79 0.25 1.44-0.52 2.56-1.95 2.85-0.42 0.09-0.86 0.09-1.29 0.1q-9.35 0.03-18.7 0.05-0.5 0.01-1.01-0.03-1.94-0.12-2.52-1.99-0.77-2.54-1.54-5.09c-0.12-0.41-0.26-0.82-0.43-1.33zm-11.96-18.83h6.36c-1.03-3.5-2.02-6.87-3.01-10.23q-0.15 0-0.31-0.02c-0.99 3.36-1.99 6.72-3.03 10.24z"/>
	<path class="s0" d="m313.53 501.64c-1.3-1.6-2.38-3.25-2.7-5.26-0.16-1.01-0.3-2.08-0.14-3.07 0.34-2.09 1.12-4.08 2.14-5.93 0.88-1.6 1.72-3.2 2.3-4.93 0.39-1.16 1.31-1.4 2.32-0.7 2.21 1.56 3.8 3.68 4.78 6.13 1.31 3.26 1.29 6.81 0.7 10.22-0.86 5.04-2.17 10.32-4.93 14.68-2.03 3.22-5.45 5.18-8.85 6.71-4.94 2.23-10.11 3.45-15.4 4.49-11.05 2.15-22.32 2.54-33.56 2.22-5.37-0.15-11.05-0.12-16.3-1.44-2.84-0.66-5.59-1.73-7.84-3.61q-2.35-1.96-4.08-4.6c-1.4-2.17-2.18-4.57-3.16-6.91-0.12-0.3-0.29-0.57-0.56-1.11-0.59 1.28-1.14 2.34-1.58 3.44-0.83 2.09-2.08 3.88-3.69 5.41-7.81 7.4-20.79 7.96-30.91 8.4-3.72 0.16-8.07 0.12-11.13-2.32-1.73-1.38-2.68-3.13-2.96-5.36-0.38-3.12-0.18-6.24 0.11-9.32 0.3-3.14 1.4-6.12 2.92-8.91 0.28-0.52 0.66-0.78 1.22-0.81 0.5-0.03 0.79 0.18 0.83 0.73 0.1 1.54 0.2 3.09 0.36 4.62 0.51 4.86 7.89 5.26 11.62 5.24 9.62-0.06 21.21-1 29.21-7.08 1.38-1.05 1.54-2.07 0.9-3.69-0.57-1.44-1.02-2.93-1.51-4.4-0.78-2.36-1.52-4.73-2.31-7.09-0.41-1.24-1-2.44-1.3-3.71-0.41-1.77-0.78-3.59-0.89-5.4-0.14-2.33 0.65-4.52 1.42-6.7 0.53-1.5 0.95-3.04 1.33-4.58 0.26-1.07 0.59-1.45 1.54-1.46 0.6 0 0.96 0.22 1.16 0.8 0.36 1.06 0.78 2.1 1.16 3.16q2.64 7.43 5.25 14.88 1.46 4.19 2.89 8.4c0.77 2.27 1.43 4.57 2.31 6.79 1.14 2.86 3.14 5 5.93 6.36q0.26 0.12 0.53 0.17c13.6 3.05 28.14 4.66 42.11 3 7.37-0.88 14.6-2.68 21.76-4.6 1.58-0.42 3.17-0.84 4.72-1.35 0.83-0.27 1.73-0.51 2.25-1.51z"/>
	<path class="s0" d="m237.9 399.5q0 14.25 0 28.5c0 0.48 0.02 0.96-0.02 1.44-0.12 1.77-0.91 2.6-2.66 2.81q-0.42 0.03-0.86 0.02-8.71 0-17.41 0-0.51 0.01-1.01-0.03c-1.58-0.21-2.4-1.06-2.54-2.64-0.04-0.43-0.02-0.86-0.02-1.29q-0.02-25.33-0.05-50.67-0.02-3.67-0.03-7.34-0.01-0.86 0.13-1.72c0.17-0.98 0.75-1.66 1.74-1.89q0.84-0.2 1.7-0.21 8.7-0.03 17.41-0.04 0.5-0.02 1.01 0.03c1.49 0.19 2.22 0.89 2.47 2.37 0.08 0.47 0.06 0.96 0.06 1.43q0 14.61 0 29.22h0.09z"/>
	<path class="s0" d="m116.09 530.77c0.17-0.04 0.23-0.03 0.26-0.06q2.65-2.51 5.32-5.01 1.8-1.68 3.66-3.31c0.71-0.62 1.23-0.61 1.95 0.13 1.62 1.65 3.19 3.34 4.79 5q1.56 1.63 3.14 3.25 1.13 1.17 0.05 2.32-3.54 3.75-7.06 7.52-0.43 0.47-0.9 0.9c-0.77 0.68-1.33 0.7-2.09 0.03q-1.63-1.45-3.23-2.93c-1.25-1.14-2.41-2.39-3.76-3.39-0.76-0.56-1.8-0.74-2.73-1.04-0.17-0.06-0.45 0.09-0.64 0.21-0.23 0.15-0.43 0.37-0.63 0.56q-2.85 2.73-5.69 5.48c-1.46 1.42-3.28 1.37-4.69-0.12q-2.62-2.76-5.29-5.49c-0.36-0.36-0.81-0.63-1.21-0.95-1.05-0.85-1.03-1.57-0.09-2.56 2.53-2.66 5.02-5.37 7.53-8.05q0.28-0.32 0.57-0.63c0.72-0.68 1.1-0.7 1.82-0.04 1.24 1.14 2.45 2.32 3.69 3.45q2.6 2.36 5.24 4.74z"/>
	<path class="s0" d="m272.7 489.27c-0.45-0.34-0.88-0.6-1.21-0.95q-3.72-3.98-7.43-7.98c-0.39-0.41-0.81-0.79-1.19-1.21-0.61-0.67-0.58-1.3 0.02-1.99 1.11-1.27 2.16-2.59 3.29-3.85q2.82-3.15 5.7-6.22 0.95-1.04 1.94 0.12c1.1 1.27 2.1 2.64 3.22 3.91 1.65 1.88 3.35 3.7 5.04 5.54q0.25 0.25 0.5 0.51c0.59 0.7 0.56 1.58-0.09 2.27q-4.3 4.6-8.62 9.18c-0.26 0.28-0.68 0.41-1.14 0.68z"/>
</svg>