<?xml version="1.0" encoding="UTF-8"?>
<svg id="LOGO_ALONE" data-name="LOGO ALONE" xmlns="http://www.w3.org/2000/svg" viewBox="0 0 1119.69 841.89">
  <defs>
    <style>
      .cls-1 {
        fill: #0f2041;
        stroke-width: 0px;
      }
    </style>
  </defs>
  <g id="_4PTs-6" data-name="4PTs">
    <g>
      <g>
        <path class="cls-1" d="m739.18,269.39c5.5-8.78,10.17-18.25,13.94-28.32,5.7-15.21,9.37-31.8,10.9-49.28.79-8.99.49-20.67-.72-28.41l-.67-4.27-3.36-2.71c-6.35-5.12-16.81-12.18-24.5-15.77-32.1-14.97-65.76-20.73-97.34-16.65-29.26,3.78-55.93,15.95-77.76,35.38-9.68-8.66-20.27-15.89-31.58-21.56-8.47-4.25-17.35-7.61-26.54-10.08-4.34,6.62-7.93,13.43-10.76,20.4,22.82,5.13,43.63,16.7,60.85,34.49l8.03,8.29,8.03-8.29c39.18-40.48,99.59-48.8,157.64-21.73,4.63,2.16,11.24,6.42,16.39,10.2.49,5.78.53,13.22.04,18.75-2.01,22.95-7.96,43.4-17.4,60.82,3.04,3.25,5.93,6.64,8.68,10.19,2.14,2.76,4.18,5.61,6.14,8.55Z"/>
        <g>
          <path class="cls-1" d="m483.26,325.71l3.1-11.06-11.14-2.79c-55.38-13.88-90.34-58.35-95.91-122.02-.65-7.46-.87-14.23-.63-19.12,5.25-3.6,12.36-7.64,17.07-9.84,20.85-9.72,41.72-14.92,61.73-15.7,1.38-4.19,2.97-8.35,4.77-12.47,1.47-3.35,3.07-6.66,4.8-9.93-26.42-.67-54.02,5.4-80.74,17.86-7.24,3.38-18.67,10.05-25.27,15.36l-3.36,2.71-.67,4.27c-1.3,8.37-.69,20.28.06,28.81,1.53,17.5,5.13,34.08,10.69,49.28,5.63,15.39,13.28,29.38,22.75,41.59,9.66,12.47,21.22,23.1,34.36,31.6,10.46,6.77,21.96,12.2,34.28,16.21-2.57,12.65-3.42,25.24-2.52,37.55.7,9.63,2.48,19.14,5.3,28.43,7.79,0,15.43-.71,22.86-2.07-7.56-21.69-8.19-44.86-1.52-68.67Z"/>
          <path class="cls-1" d="m717.8,295.97c-3.74-6.74-8.02-12.98-12.81-18.7-15.75,16.38-36.09,28.06-60.28,34.12l-11.25,2.82,3.24,11.13c15.4,52.97-5.62,103.02-59.21,140.93-5.07,3.59-11.82,7.85-17.03,10.53-3.39-1.75-8.59-4.8-16.26-10.12-18.56-12.86-33.31-27.19-44.07-42.61-5.65,1.41-11.4,2.5-17.24,3.25-2.24.29-4.51.53-6.79.72,4.99,8.27,10.9,16.27,17.66,23.92,10.53,11.9,23.22,23.03,37.72,33.08,10.5,7.27,18.92,12.14,25.04,14.47l4.04,1.54,4.02-1.58c10.16-3.99,24.25-13.86,25.82-14.97,29.58-20.93,50.64-45.39,62.58-72.69,11.36-25.98,14.01-53.46,7.92-81.86,12.3-4,23.8-9.38,34.29-16.07,8.16-5.2,15.72-11.2,22.61-17.93Z"/>
        </g>
        <g>
          <g>
            <path class="cls-1" d="m380.51,277.09c-5.5,8.78-10.17,18.25-13.94,28.32-5.7,15.22-9.37,31.8-10.9,49.28-.79,8.99-.49,20.67.72,28.41l.67,4.27,3.36,2.71c6.35,5.12,16.81,12.18,24.5,15.77,25.4,11.85,51.78,17.92,77.33,17.92,6.74,0,13.42-.42,20.02-1.27,29.26-3.78,55.93-15.95,77.76-35.38,9.68,8.66,20.27,15.89,31.58,21.56,8.47,4.25,17.35,7.61,26.54,10.08,4.34-6.62,7.93-13.43,10.76-20.4-22.82-5.13-43.63-16.7-60.85-34.49l-8.03-8.29-8.03,8.29c-39.18,40.48-99.59,48.8-157.64,21.73-4.63-2.16-11.24-6.42-16.39-10.2-.49-5.78-.53-13.22-.04-18.75,2.01-22.95,7.96-43.4,17.4-60.82-3.04-3.25-5.93-6.64-8.68-10.19-2.14-2.76-4.18-5.61-6.14-8.55Z"/>
            <path class="cls-1" d="m542.19,80.21c5.07-3.59,11.82-7.85,17.03-10.53,3.39,1.75,8.59,4.8,16.27,10.12,18.56,12.86,33.31,27.19,44.07,42.61,5.65-1.41,11.4-2.5,17.24-3.25,2.24-.29,4.51-.53,6.79-.72-4.99-8.27-10.9-16.27-17.66-23.92-10.53-11.9-23.22-23.03-37.72-33.08-10.5-7.27-18.92-12.14-25.04-14.47l-4.04-1.54-4.02,1.58c-10.17,3.99-24.25,13.86-25.82,14.97-29.58,20.93-50.64,45.39-62.58,72.69-11.36,25.98-14.01,53.46-7.92,81.86-12.3,4-23.8,9.38-34.29,16.07-8.16,5.2-15.72,11.2-22.61,17.93,3.74,6.74,8.02,12.98,12.81,18.7,15.75-16.38,36.09-28.06,60.28-34.12l11.25-2.82-3.24-11.13c-15.4-52.97,5.62-103.02,59.21-140.93Z"/>
          </g>
          <path class="cls-1" d="m762.62,354.7c-1.53-17.5-5.13-34.08-10.69-49.28-5.63-15.39-13.28-29.38-22.75-41.59-9.66-12.47-21.22-23.1-34.36-31.6-10.46-6.77-21.96-12.2-34.28-16.21,2.57-12.65,3.42-25.24,2.52-37.55-.7-9.63-2.48-19.14-5.3-28.43-7.79,0-15.43.71-22.86,2.07,7.56,21.69,8.19,44.85,1.52,68.67l-3.1,11.06,11.14,2.79c55.38,13.88,90.34,58.35,95.91,122.02.65,7.46.87,14.23.63,19.12-5.25,3.61-12.36,7.65-17.07,9.84-20.85,9.72-41.72,14.92-61.73,15.7-1.38,4.19-2.96,8.35-4.77,12.47-1.47,3.35-3.07,6.67-4.8,9.93,1.31.03,2.62.05,3.94.05,25.21,0,51.41-6.08,76.8-17.91,7.24-3.38,18.67-10.05,25.27-15.37l3.36-2.71.67-4.27c1.3-8.37.69-20.28-.06-28.81Z"/>
        </g>
      </g>
      <g>
        <g>
          <path class="cls-1" d="m800.84,561.97c1.37-.47,8.55-8.64,8.55-10.56s-5.82-8.08-9.02-8.08-8.13,5.6-9.24,7.06c-1.11,1.45.17,3.21.17,3.21,0,0,8.17,8.85,9.54,8.38Z"/>
          <path class="cls-1" d="m982.43,564.76c.81-.28,3.87-3.53,5.91-6.25.51-.68,1.5-.74,2.09-.13,2.16,2.26,6.57,6.7,7.51,6.38,1.25-.43,7.81-7.89,7.81-9.65s-5.31-7.38-8.24-7.38c-2.23,0-5.37,2.97-7.19,4.97-.37.41-1.03.4-1.37-.04-1.76-2.24-4.92-4.93-6.95-4.93-2.93,0-7.42,5.12-8.44,6.45-1.02,1.33.16,2.93.16,2.93,0,0,7.46,8.09,8.71,7.66Z"/>
          <path class="cls-1" d="m1063.16,595.37c-1.28-22.32-14.2-24.98-20.1-23.86-5.9,1.11-15.2,19.53-22.72,23.18-6.27,3.04-15.63.54-18.6-.38-.54-.17-.88-.7-.8-1.27v-.07c.81-9.35-.32-17.68-2.5-19.47-1.15-.94-8.32,3.07-11.3,4.82-.93.54-1.58,1.46-1.76,2.51-.23,1.38-.32,3.41.51,5.53,1.55,3.94.68,9.12.68,9.12,0,0-25.09,1.37-27.14,0-2.05-1.37-25.43-27.83-35.24-27.83s-15.62,10.38-15.62,10.38c0,0-1.14,6.61,1.25,7.41,2.4.8,1.94-2.62,12.2-2.62s15.4,14.26,15.4,14.26h-105.55s-3.08.51-4.28-2.22c-1.2-2.74.34-7.01-3.93-16.08-4.28-9.07-10.61-12.32-14.54-12.49-3.93-.17-11.97,5.13-14.54,11.63-1.98,5.01-1.41,14.34-1.05,18.35.1,1.07-.69,2.01-1.75,2.11-4.49.43-15.96,1.43-26.27,1.43-13.17,0-14.79-6.73-14.03-11.06,1.03-5.82-1.37-6.9-5.39-2.11-4.02,4.79-3.68,20.87,0,28.91,3.68,8.04,11.46,7.13,11.46,7.13h250.52s7.24-.74,11.4-2.11c4.16-1.37,6.56-3.42,9.24-3.42s6.1,2.22,6.1,2.22c0,0,11.66,6.36,17.13,6.36s12.49-8.04,11.2-30.36Zm-251.38.09s-5.56-2.65-6.59-5.22c-1.03-2.57-.51-5.82,2.57-7.44,3.08-1.63,6.33,2.14,7.36,6.33,1.03,4.19,2.65,9.32-3.34,6.33Zm234.87,1.03c-4.02-.94-7.53-2.39-7.44-4.45,0,0,1.03-3.93,3.93-5.82,2.91-1.88,6.24,1.8,7.18,5.82s.34,5.39-3.68,4.45Z"/>
        </g>
        <g>
          <path class="cls-1" d="m710.94,549.24c-.28-2.85-4.28-1.54-8.27-.4-1.92.55-4.06,1.62-5.76,2.59-1.77,1-2.68,3.02-2.28,5.01,2.72,13.5,4.17,61.17,4.17,61.17,0,0,.68,3.93,4.96,3.93s5.64-14.37,7.18-35.75c1.54-21.38.29-33.7,0-36.55Z"/>
          <path class="cls-1" d="m664.93,553.63c-.01.08-.02.18-.03.28-.1,2.24,1.57,9.41,1.57,9.41,2,9.98,2.11,31.8,2.11,31.8,0,0-16.82.25-17.51,0-.68-.25-.74-1.07-.74-1.07,0,0,.4-1.82-2.11-12.15-2.51-10.32-11.35-15.71-14.26-15.97-2.91-.26-6.73,1.11-12.92,7.01-5.56,5.3-6.16,13.51-4.88,17.62.58,1.84.61,3.34.55,4.23-.04.51-.45.9-.96.9h-44.86c-1.43-.57-2.11-2.05-2.11-2.05-1.94-11.06-6.79-18.93-6.79-18.93-3.19-.11-10.61,7.24-10.61,7.24,0,0-1.25,1.2-1.03,4.68.23,3.48,9.24,22.18,7.07,25.72-2.17,3.54-8.27,6.9-19.1,7.47-10.83.57-17.33-6.61-18.42-12.66-1.08-6.04,1.65-12.6,1.65-12.6-.06-6.27-5.02-1.08-5.02-1.08,0,0-6.1,9.07-7.81,23.95-1.71,14.88,10.78,25.66,27.88,25.66s27.28-19.42,29.42-21.47c2.14-2.05,7.24-.09,7.24-.09,9.35,3.59,63.64,1.43,67.97,1.43s3.31-6.5,7.87-2.17c4.56,4.33,16.99,2.74,22.69,2.74s7.75.57,10.95-9.69c3.19-10.26.06-45.16.68-46.3.63-1.14,3.93-4.73,3.93-4.73.8-4.22-4.73-15.29-4.73-15.29-2.96-1.94-17.45,4.28-17.73,6.11Zm-29.59,41.61s-5.56-2.65-6.59-5.22c-1.03-2.57-.51-5.82,2.57-7.44,3.08-1.63,6.33,2.14,7.36,6.33,1.03,4.19,2.65,9.32-3.34,6.33Z"/>
          <path class="cls-1" d="m627.94,558.03c3.21,0,8.13-5.6,9.24-7.06,1.11-1.45-.17-3.21-.17-3.21,0,0-8.17-8.85-9.54-8.38-1.37.47-8.55,8.64-8.55,10.56s5.82,8.08,9.02,8.08Z"/>
          <path class="cls-1" d="m539.27,577.41c3.21,0,8.13-5.82,9.24-7.33,1.11-1.51-.17-3.33-.17-3.33,0,0-8.17-9.19-9.54-8.7s-8.55,8.97-8.55,10.97,5.82,8.39,9.02,8.39Z"/>
        </g>
        <g>
          <path class="cls-1" d="m450.29,539.6c-2.95.43-12.53,4.45-13,5.65s.04,12.23.47,13.51c.43,1.28,1.71,1.71,1.71,1.71.97,7.98.11,18.19.11,18.19,0,0-.46,2.57-2.57,1.71-2.11-.86-.97-4.85-14.48-20.07-13.51-15.22-21.72-19.16-27.03-14.88-5.3,4.28-9.41,13.86-3.76,21.38,5.64,7.53,17.96,13.26,19.33,12.74,1.37-.51,2.31-3.08,2.31-3.08,8.21,4.45,12.74,14.45,12.74,14.45-4.62,7.7-21.72,7.87-22.92,9.67-1,1.5.38,16.4.87,21.29.09.89.82,1.57,1.71,1.6,4.49.15,17.43.44,22.14-.83,5.73-1.54,16.34-6.36,17.7-13.88,1.09-6.01-1.52-14.41-2.62-17.54-.27-.79-.15-1.65.33-2.33,1.64-2.29,5.46-7.87,7.76-13.2,2.45-5.67,2.67-13.37,2.66-15.99,0-.56.28-1.08.74-1.4,1.03-.73,2.82-2.22,3.27-4.08.64-2.65-3.08-11.33-3.59-12.87-.51-1.54-.94-2.18-3.89-1.75Zm-17.03,65s-6.49,1.11-8.59.33c-.41-.15-.47-.71-.1-.95,1.55-.96,5.96-3.79,7.55-5.91,1.94-2.59,1.14,6.53,1.14,6.53Z"/>
          <path class="cls-1" d="m478.3,549.24c-.28-2.85-4.28-1.54-8.27-.4-1.92.55-4.06,1.62-5.76,2.59-1.77,1-2.68,3.02-2.28,5.01,2.72,13.5,4.17,61.17,4.17,61.17,0,0,.68,3.93,4.96,3.93s5.64-14.37,7.18-35.75c1.54-21.38.29-33.7,0-36.55Z"/>
          <path class="cls-1" d="m377.2,571.29c-2.54.14-8.23,5.72-10.26,7.8-.46.47-.61,1.15-.39,1.77.81,2.31,2.78,8.05,3.41,10.75.8,3.42,1.08,9.07-4.62,6.61-6.66-2.87-13.46-15.28-14.48-16.31-1.03-1.03-2.28-.68-4.62,0s.68,3.65-2.28,9.07c-2.97,5.42-12.6,6.67-16.36,3.19-3.76-3.48-4.22-12.94-4.22-12.94-1.82-.23-6.1-.8-6.96,3.71-.86,4.5-.11,8.15-4.5,10.04-4.39,1.88-11.01-.23-11.4-1.77-.4-1.54-.23-6.61-.91-21.55-.51-11.24-.96-19.63-1.16-23.11-.05-1-.97-1.7-1.95-1.54-4.65.75-8.64,3.04-10.45,4.21-.64.42-1,1.15-.94,1.91.4,4.85,1.9,23.07,2.3,28.68.46,6.5.17,10.41-1.54,13.4-1.71,2.99-4.02-.17-4.02-.17-.77-8.72-5.22-19.5-5.22-19.5-5.56-13.12-11.68-20.39-13.87-22.75-.52-.56-1.28-.81-2.03-.68-8.64,1.54-12.11,7.03-13.01,8.78-.17.33-.26.68-.26,1.05-.07,10.38,5.42,19.19,7.11,20.95,1.71,1.8,5.05-.68,7.27.68,2.22,1.37,11.12,14.45,8.9,18.39-1.81,3.2-10.28,4.87-13.39,5.38-.64.11-1.07.71-.96,1.34,3.17,18.78,9.99,19.28,9.99,19.28,8.92-.93,20.45-9.65,24.04-12.52.6-.48,1.48-.37,1.93.25,1.22,1.68,2.69,4.1,4.65,5,2.7,1.23,5.65,2.2,8.63,2.64,3.18.47,6.44.31,9.64.35,7.01.09,14.03.22,21.05.12,3.56-.05,7.65.45,10.95-1,3.69-1.62,6.55-4.94,10.89-4.06,4.79.97,8.96,8.02,14.26,5.3,5.31-2.73,8.29-13.21,9.6-18.46,1.88-7.53,2.51-13.29,1.25-20.58-1.25-7.3-2.92-13.87-6.04-13.7Z"/>
          <path class="cls-1" d="m227.3,570.51c-7.3-.68-12.03,4.68-19.62,16.96-5.73,9.27-20.19,8.33-20.19,8.33,0,0-73.47.94-80.06-2.39s-12.66-1.23-12.66-1.23c-5.02,4.79-6.16,14.03-4.56,20.19,1.6,6.16,14.37,10.26,14.37,10.26-6.73,4.9-11.18,6.16-19.73,4.33-8.55-1.82-13.91-8.67-14.6-16.42-.68-7.75,2.97-13.68-.23-14.71-3.19-1.03-10.15,10.72-10.15,10.72-9.81,20.98,1.82,41.97,23.72,41.97s34.67-25.32,34.67-25.32h75.95c5.13,0,8.44-6.27,14.48-6.04,6.04.23,11.06,6.84,19.04,8.55,7.98,1.71,9.47-3.76,12.32-8.67,2.85-4.9,1.82-23.72,1.37-29.57-.46-5.85-6.84-16.27-14.14-16.96Zm-.63,25.38c-1.71.09-6.41-1.74-6.41-1.74,0,0-2.74-1.08-1.45-3.65.94-1.87,3.29-3.75,4.49-4.62.43-.31,1-.28,1.39.08,1.37,1.25,4.38,4.25,4.38,6.43,0,2.82-.68,3.42-2.39,3.51Z"/>
        </g>
      </g>
      <g>
        <rect class="cls-1" x="56.09" y="668.04" width="12.7" height="79.17"/>
        <path class="cls-1" d="m102.8,711.58c-8.05-1.77-8.05-3.79-8.05-4.88,0-2.23,2.74-3.91,6.36-3.91s6.1,1.42,6.51,3.69l.39,2.21h11.32l-.27-2.93c-.86-9.27-8.07-15.5-17.94-15.5-10.74,0-17.96,6.6-17.96,16.43,0,11.96,9.91,15.59,17.36,17.27,8.39,1.9,8.76,3.15,8.76,5.57,0,3.04-3.36,5.16-8.17,5.16s-7.82-2.88-8.2-5.54l-.33-2.3h-11.26l.13,2.8c.48,10.34,8.56,17.55,19.66,17.55,11.94,0,19.66-6.94,19.66-17.68,0-9.68-5.37-15.05-17.98-17.96Z"/>
        <path class="cls-1" d="m811.7,711.58c-8.05-1.77-8.05-3.79-8.05-4.88,0-2.23,2.74-3.91,6.36-3.91s6.1,1.42,6.51,3.69l.39,2.21h11.32l-.27-2.93c-.86-9.27-8.07-15.5-17.94-15.5-10.74,0-17.96,6.6-17.96,16.43,0,11.96,9.91,15.59,17.36,17.27,8.39,1.9,8.76,3.15,8.76,5.57,0,3.04-3.36,5.16-8.17,5.16s-7.82-2.88-8.2-5.54l-.33-2.3h-11.26l.13,2.8c.48,10.34,8.56,17.55,19.66,17.55,11.94,0,19.66-6.94,19.66-17.68,0-9.68-5.37-15.05-17.98-17.96Z"/>
        <rect class="cls-1" x="129.52" y="669.07" width="12.09" height="77.11"/>
        <path class="cls-1" d="m200.78,695.13c-4.77-3.6-10.54-5.59-16.54-5.59-16.03,0-29.08,13.05-29.08,29.08s13.32,29.31,29.08,29.31c5.99,0,11.77-2.04,16.54-5.73v4.68h13.12v-56.54h-13.12v4.78Zm-.46,23.49c0,8.54-7.77,16.31-16.31,16.31s-15.38-7.32-15.38-16.31,6.76-16.08,15.38-16.08,16.31,7.36,16.31,16.08Z"/>
        <path class="cls-1" d="m296.19,689.54c-7.91,0-14.64,3.07-19.37,8.73-3.88-5.93-10.34-8.73-19.96-8.73-5.58,0-10.6,1.55-14.8,4.52v-3.6h-14.23v57.47h14.23v-26.85c0-11.74,4.84-17.44,14.8-17.44,4.42,0,10.3,1.51,10.3,14.53v29.76h14.23v-26.85c0-11.74,4.84-17.44,14.8-17.44,4.42,0,10.3,1.51,10.3,14.53v29.76h14.23v-29.76c0-19.8-7.56-28.63-24.53-28.63Z"/>
        <path class="cls-1" d="m1039.07,689.54c-7.91,0-14.64,3.07-19.37,8.73-3.88-5.93-10.34-8.73-19.96-8.73-5.58,0-10.6,1.55-14.8,4.52v-3.6h-14.23v57.47h14.23v-26.85c0-11.74,4.84-17.44,14.8-17.44,4.42,0,10.3,1.51,10.3,14.53v29.76h14.23v-26.85c0-11.74,4.84-17.44,14.8-17.44,4.42,0,10.29,1.51,10.29,14.53v29.76h14.23v-29.76c0-19.8-7.56-28.63-24.53-28.63Z"/>
        <path class="cls-1" d="m338.2,669.07c-4.07,0-7.5,3.34-7.5,7.3,0,4.21,3.3,7.5,7.5,7.5s7.4-3.37,7.4-7.5c0-3.89-3.46-7.3-7.4-7.3Z"/>
        <rect class="cls-1" x="332.1" y="687.46" width="12.39" height="59.75"/>
        <path class="cls-1" d="m400.13,726.32c-2.84,5.26-8.1,8.53-13.71,8.53-8.45,0-15.58-7.45-15.58-16.28s6.85-16.05,15.58-16.05c5.78,0,10.9,3.1,13.71,8.3l.76,1.41h14.11l-1.33-3.61c-4.2-11.42-15.15-19.09-27.25-19.09-16.01,0-29.04,13.03-29.04,29.04s13.3,29.27,29.04,29.27c12.34,0,23.35-7.78,27.38-19.37l1.24-3.56h-14.16l-.76,1.41Z"/>
        <path class="cls-1" d="m482.03,669.07l-31.7,77.11h13.05l6.28-15.24h35.29l6.6,15.24h13.02l-31.7-77.11h-10.85Zm-7.3,49.48l12.74-30.86,12.43,30.86h-25.18Z"/>
        <path class="cls-1" d="m540.94,693.12v-2.87h-12.09v55.93h12.09v-33.46c0-7.73,6.17-11.19,12.29-11.19h2.68v-11.99h-2.68c-4.48,0-8.7,1.24-12.29,3.58Z"/>
        <polygon class="cls-1" points="579.94 669.07 566.64 669.07 566.64 689.57 558.82 689.57 558.82 702.15 566.64 702.15 566.64 747.07 579.94 747.07 579.94 702.15 591.67 702.15 591.67 689.57 579.94 689.57 579.94 669.07"/>
        <polygon class="cls-1" points="670.83 729.41 644.44 668.12 631.44 668.12 631.44 747.12 644.33 747.12 644.33 700.81 664.64 747.12 677.12 747.12 697.34 700.85 697.34 747.12 710.22 747.12 710.22 668.12 697.22 668.12 670.83 729.41"/>
        <path class="cls-1" d="m761.61,719.86c0,9.35-4.82,14.29-13.94,14.29-4.45,0-10.36-1.28-10.36-12.32v-31.65h-13.09v31.65c0,17.5,7.23,25.3,23.45,25.3,5.24,0,9.96-1.32,13.94-3.87v3.07h13.09v-56.14h-13.09v29.69Z"/>
        <path class="cls-1" d="m864.92,689.54c-15.55,0-28.21,12.65-28.21,28.21s12.92,28.43,28.21,28.43c10.76,0,20.71-6.17,25.36-15.73l1.88-3.85h-14.89l-.8,1.03c-2.86,3.68-7.07,5.79-11.54,5.79-6.04,0-11.42-3.86-13.77-9.53h41.98v-6.15c0-15.55-12.65-28.21-28.21-28.21Zm13.69,21.83h-27.41c2.39-5.48,7.65-9.08,13.71-9.08s11.28,3.67,13.69,9.08Z"/>
        <path class="cls-1" d="m942.69,718.9c0,9.47-4.88,14.47-14.12,14.47-4.51,0-10.51-1.29-10.51-12.49v-31.97h-13.18v31.97c0,17.67,7.3,25.55,23.68,25.55,5.31,0,10.1-1.35,14.12-3.94v3.12h13.18v-56.7h-13.18v29.98Z"/>
      </g>
    </g>
  </g>
</svg>