<svg version="1.2" xmlns="http://www.w3.org/2000/svg" viewBox="0 0 604 300" width="604" height="300">
	<style>
		.s0 { fill: #1c4148 } 
		.s1 { fill: #18213e } 
	</style>
	<path class="s0" d="m258.39 226.55l-123.88 72.22c-1.1 0.64-2.28 0.68-3.39 0.03l-124.12-71.91c-1.14-0.66-1.59-1.45-1.79-2.77l-0.06-82.53-0.1-62.12c0.19-1.11 0.49-1.99 1.46-2.56l124.4-72.52c0.93-0.54 2.18-0.47 3.1 0.06l124.32 72.03c1.07 0.62 1.43 1.44 1.62 2.67l0.07 68.58 0.07 28.46 0.05 47.68c-0.22 1.19-0.54 1.9-1.75 2.66zm-124.27-206.36l70.7 40.96c1.03 0.6 1.62 1.5 1.62 2.51 0 1.01-0.6 1.94-1.53 2.56l-27.12 15.8v22.53l56.22-32.76-101.61-58.87-101.47 59.14 56.22 32.55 0.07-22.44-27.32-15.83c-0.95-0.64-1.45-1.6-1.37-2.61 0.07-0.89 0.58-1.79 1.52-2.34l70.32-40.99c1.2-0.7 2.3-1.04 3.74-0.2zm0.21 143.79l70.64 40.92q1.69 0.97 1.64 2.67c-0.02 0.95-0.59 1.83-1.52 2.43l-27.15 15.83 0.09 22.48 60.55-35.29-0.19-70.36-19.27 11.19v31.5c-0.08 1.08-0.49 2.16-1.24 2.61-0.75 0.45-2.01 0.62-2.99 0.05l-71.02-41.15c-0.89-0.52-1.56-1.54-1.56-2.57l-0.05-47.09-0.08-35.22c0-1.01 0.44-2.17 1.04-2.58 0.83-0.57 1.87-0.59 2.92-0.36l27.55 15.97 19.34-11.29-60.61-35.14-60.53 35.3 19.34 11.24 27.39-15.95c0.89-0.39 2.1-0.38 2.88 0.12 0.58 0.38 1.2 1.41 1.2 2.47l0.15 82.21q0.01 2.02-1.65 2.97l-70.88 41.32c-0.92 0.54-2.17 0.32-2.82-0.03-0.89-0.48-1.25-1.49-1.38-2.59l-0.06-31.57-19.32-11.15 0.02 61.81 0.16 8.67 60.49 35.03v-22.49l-27.13-15.71c-0.92-0.59-1.56-1.43-1.58-2.37-0.02-0.88 0.4-2.02 1.34-2.57l71.07-41.43c0.96-0.56 2.13-0.5 3.22 0.13zm117.55-70.53l-0.03-11.36-9.78-5.61-68.36 39.85c-0.86 0.5-2.28 0.16-2.9-0.3-0.62-0.46-0.95-1.37-1.1-2.33l-0.02-31.66-19.36-11.19 0.06 70.41 60.58 35.09 0.07-22.45-27.48-15.93c-0.86-0.72-1.33-1.62-1.24-2.66 0.07-0.92 0.71-1.73 1.71-2.31l67.85-39.56zm-170.45 39.88c1.12 0.65 1.44 1.71 1.41 2.57-0.03 0.91-0.6 1.76-1.47 2.35l-27.23 15.88 0.16 22.44 60.48-35.25-0.16-70.38-19.31 11.22 0.02 31.55c-0.14 1.11-0.56 2.14-1.38 2.61-0.65 0.37-1.87 0.52-2.73 0.03l-68.32-39.58-9.76 5.68 0.04 11.34 68.26 39.55zm88.44 124.07v-31.59l-19.32-11.16 0.02 65.37 101.47-59.15-0.04-35.91-0.08-28.71-0.05-53.4-56.18 32.76 19.36 11.24 27.52-16.04c1.03-0.24 2.01-0.23 2.78 0.28 0.54 0.36 1.15 1.32 1.15 2.28l0.18 82.25q0.01 2.08-1.71 3.07l-70.89 41.33c-0.93 0.54-2.22 0.28-2.91-0.12-0.74-0.42-1.12-1.35-1.3-2.5zm-78.58 2.66l-70.76-40.99c-1.32-0.76-1.85-1.85-1.85-3.45l-0.03-81.89c0-1.12 0.77-2.16 1.44-2.49 0.88-0.43 1.8-0.36 2.78 0.04l27.29 15.79 19.29-11.31-56.24-32.6 0.11 117.99 101.61 58.88-0.02-49.13-0.1-16.22-19.32 11.26 0.05 31.94c0 0.95-0.87 1.97-1.48 2.24-0.69 0.31-1.79 0.49-2.76-0.07zm41.52 30.34l9.69-5.7-0.06-72.88-0.04-6.56c0-0.76 0.66-1.9 1.22-2.21 0.77-0.43 1.76-0.49 2.72-0.24l27.6 15.99 19.3-11.31-60.62-35.14-60.48 35.28 19.32 11.27 27.12-15.83c1.03-0.46 1.98-0.54 2.92-0.1 0.68 0.32 1.42 1.46 1.42 2.4l0.05 18.01 0.05 61.33z"/>
	<g>
		<path class="s1" d="m584.47 149.14c3.56-5.69 6.59-11.83 9.03-18.35 3.69-9.86 6.07-20.6 7.06-31.94 0.51-5.82 0.32-13.39-0.46-18.41l-0.43-2.76-2.18-1.76c-4.12-3.32-10.89-7.89-15.88-10.22-20.8-9.7-42.61-13.43-63.08-10.79-18.96 2.45-36.24 10.34-50.38 22.92-6.27-5.61-13.13-10.3-20.46-13.97-5.49-2.75-11.25-4.93-17.2-6.53q-4.22 6.44-6.97 13.22c14.79 3.33 28.27 10.82 39.43 22.35l5.2 5.37 5.2-5.37c25.39-26.23 64.53-31.62 102.15-14.08 3 1.4 7.29 4.16 10.62 6.61 0.31 3.74 0.34 8.56 0.03 12.15-1.3 14.87-5.16 28.12-11.28 39.41q2.96 3.16 5.62 6.6 2.08 2.68 3.98 5.55z"/>
		<g>
			<path class="s1" d="m418.64 185.63l2.01-7.16-7.22-1.81c-35.89-8.99-58.54-37.81-62.15-79.07-0.42-4.83-0.56-9.22-0.41-12.39 3.4-2.34 8.01-4.95 11.06-6.38 13.51-6.3 27.03-9.67 40-10.18q1.33-4.08 3.09-8.08 1.43-3.26 3.11-6.44c-17.12-0.43-35.01 3.5-52.32 11.57-4.69 2.19-12.1 6.51-16.38 9.96l-2.18 1.76-0.43 2.76c-0.85 5.42-0.45 13.14 0.04 18.67 0.99 11.34 3.32 22.09 6.92 31.93 3.65 9.97 8.61 19.04 14.74 26.95 6.26 8.08 13.75 14.97 22.27 20.47 6.78 4.39 14.23 7.91 22.22 10.51-1.67 8.2-2.22 16.36-1.63 24.33q0.69 9.37 3.43 18.43 7.58-0.01 14.81-1.34c-4.9-14.06-5.31-29.07-0.98-44.5z"/>
			<path class="s1" d="m570.61 166.36q-3.64-6.56-8.3-12.12c-10.21 10.61-23.38 18.18-39.06 22.11l-7.29 1.83 2.1 7.22c9.98 34.32-3.64 66.76-38.36 91.32-3.28 2.32-7.66 5.09-11.03 6.83-2.19-1.13-5.56-3.11-10.54-6.56-12.03-8.33-21.58-17.62-28.56-27.61q-5.49 1.37-11.17 2.11-2.18 0.28-4.4 0.47c3.23 5.36 7.06 10.55 11.44 15.5 6.82 7.71 15.05 14.92 24.44 21.43 6.8 4.71 12.26 7.87 16.23 9.38l2.61 1 2.6-1.02c6.59-2.58 15.71-8.98 16.73-9.7 19.17-13.56 32.81-29.41 40.55-47.1 7.36-16.83 9.08-34.64 5.13-53.04 7.97-2.59 15.42-6.08 22.22-10.42 5.29-3.37 10.19-7.26 14.65-11.62z"/>
		</g>
		<g>
			<g>
				<path class="s1" d="m352.05 154.13c-3.56 5.69-6.59 11.83-9.03 18.35-3.69 9.86-6.07 20.6-7.06 31.94-0.51 5.82-0.32 13.39 0.46 18.41l0.43 2.76 2.18 1.76c4.12 3.32 10.89 7.89 15.88 10.22 16.46 7.68 33.55 11.61 50.11 11.61q6.56 0 12.97-0.83c18.96-2.45 36.24-10.34 50.38-22.93 6.27 5.61 13.13 10.3 20.46 13.97 5.49 2.75 11.25 4.93 17.2 6.53q4.22-6.44 6.97-13.22c-14.79-3.33-28.27-10.82-39.43-22.35l-5.2-5.37-5.2 5.37c-25.39 26.23-64.53 31.62-102.15 14.08-3-1.4-7.29-4.16-10.62-6.61-0.31-3.74-0.34-8.56-0.03-12.15 1.3-14.87 5.16-28.12 11.28-39.41q-2.96-3.17-5.62-6.6-2.08-2.69-3.98-5.54z"/>
				<path class="s1" d="m456.82 26.56c3.28-2.32 7.66-5.09 11.03-6.83 2.19 1.13 5.56 3.11 10.54 6.56 12.03 8.33 21.58 17.62 28.56 27.61q5.49-1.37 11.17-2.11 2.18-0.28 4.4-0.47c-3.23-5.36-7.06-10.55-11.44-15.5-6.82-7.71-15.05-14.92-24.44-21.43-6.8-4.71-12.26-7.87-16.23-9.38l-2.61-1-2.6 1.02c-6.59 2.58-15.71 8.98-16.73 9.7-19.17 13.56-32.81 29.41-40.55 47.1-7.36 16.83-9.08 34.64-5.13 53.04-7.97 2.59-15.42 6.08-22.22 10.42-5.29 3.37-10.19 7.26-14.65 11.62q3.64 6.55 8.3 12.12c10.21-10.61 23.38-18.18 39.06-22.11l7.29-1.83-2.1-7.22c-9.98-34.32 3.64-66.76 38.36-91.32z"/>
			</g>
			<path class="s1" d="m599.66 204.42c-0.99-11.34-3.32-22.09-6.92-31.93-3.65-9.97-8.61-19.04-14.74-26.95-6.26-8.08-13.75-14.97-22.27-20.47-6.78-4.39-14.23-7.91-22.22-10.51 1.67-8.2 2.22-16.36 1.63-24.33q-0.7-9.37-3.43-18.43-7.59 0.01-14.81 1.34c4.9 14.06 5.31 29.06 0.98 44.5l-2.01 7.16 7.22 1.81c35.89 8.99 58.54 37.81 62.15 79.07 0.42 4.83 0.56 9.22 0.41 12.39-3.4 2.34-8.01 4.95-11.06 6.38-13.51 6.3-27.03 9.67-40 10.18q-1.34 4.08-3.09 8.08-1.43 3.26-3.11 6.44 1.27 0.03 2.55 0.04c16.34 0 33.31-3.94 49.77-11.61 4.69-2.19 12.1-6.51 16.38-9.96l2.18-1.76 0.43-2.76c0.85-5.42 0.45-13.14-0.04-18.67z"/>
		</g>
	</g>
</svg>