<?xml version="1.0" encoding="UTF-8"?>
<svg id="Layer_1" data-name="Layer 1" xmlns="http://www.w3.org/2000/svg" viewBox="0 0 595.28 841.89">
  <defs>
    <style>
      .cls-1 {
        fill: #333132;
        stroke-width: 0px;
      }
    </style>
  </defs>
  <g>
    <path class="cls-1" d="m72.54,295.81c-.34-1.75-.72-3.48-.99-5.24-.14-.91.26-1.76,1.05-2.21,1.19-.67,2.45-1.2,3.68-1.78.09-.04.22,0,.35,0,.01.15.03.28.03.42.02.82.42,1.35,1.15,1.67,1.39.6,2.86.72,4.33.76,1.94.06,3.87-.13,5.77-.55.15-.03.28-.1.52-.18-.75-.82-.67-1.64-.06-2.48.63.45.89,1.07.85,1.85-.06,1.32-.62,2.05-1.87,2.31-2.92.61-5.85.79-8.78.13-.19-.04-.37-.09-.55-.17-.54-.22-1.08-.51-1.35.36-.02.07-.3.11-.43.08-.5-.12-.99-.29-1.49-.43-.62-.18-1.15-.46-1.18-1.38-.43.26-.8.42-1.08.69-.16.15-.26.49-.22.71.16.86.34,1.73.61,2.57.32,1,.14,1.93-.36,2.88Zm2.31-7.37c0,.08,0,.16-.01.24.42.17.85.33,1.45.57-.14-.47-.21-.99-.32-1-.36-.04-.74.11-1.11.19Z"/>
    <path class="cls-1" d="m96.24,290.26c-.46,1.17-1.38,1.58-2.46,1.68-.72.07-1.45.12-2.18.1-.56-.01-.84-.35-.83-.91.02-.51.11-1.02.19-1.68.26.43.36.78.58.92.26.16.62.16.95.18,1.07.05,2.1-.09,3.08-.55.42-.19.61-.44.38-.92-.14-.3-.2-.64-.34-.94-.36-.76-.28-1.47.17-2.27.41,1.11.83,2.16,1.18,3.22.23.72.67,1.09,1.39,1.21,2.32.4,4.62.32,6.89-.34.17-.05.33-.1.49-.17.05-.02.08-.08.11-.12-.36-.97-.35-1.07.35-2.16.2.33.43.59.53.9.33,1.08-.39,2.69-1.45,2.99-1.21.34-2.46.59-3.71.71-1,.1-2.03-.04-3.04-.08-.97-.04-1.68-.48-2.02-1.45-.03-.07-.07-.14-.11-.21-.02-.03-.06-.05-.15-.12Z"/>
    <path class="cls-1" d="m81.75,292.85c.31-.31.6-.6.92-.9.07.04.16.07.23.12q.93.72,1.81-.02c.06-.05.12-.09.22-.18.16.16.32.32.49.46.16.14.33.27.53.45-.39.36-.71.66-1.07,1.01-.34-.29-.7-.59-1.07-.91-.12.09-.22.15-.3.22q-.94.79-1.76-.25Z"/>
    <path class="cls-1" d="m102.28,286.53c-.37.38-.67.7-1.02,1.06-.36-.35-.7-.68-1.06-1.04.38-.35.74-.68,1.14-1.05.27.3.59.64.95,1.03Z"/>
    <g>
      <path class="cls-1" d="m142.51,294.9v-4.64h2.45v.5h-1.9v1.33h1.9v.51h-1.9v2.29h-.55Z"/>
      <path class="cls-1" d="m150.55,292.58c0,.33-.06.64-.18.94-.12.29-.3.55-.54.78-.23.23-.51.4-.81.53-.31.12-.62.19-.95.19s-.64-.06-.95-.19c-.3-.12-.57-.3-.81-.53-.24-.23-.42-.49-.54-.79-.12-.29-.19-.61-.19-.94s.06-.65.19-.94c.12-.29.3-.56.54-.79.23-.23.5-.4.81-.52.3-.12.62-.18.95-.18s.65.06.95.18c.31.12.57.3.81.52.23.23.41.49.54.78.12.29.18.61.18.94Zm-2.48,1.91c.25,0,.5-.05.73-.14.23-.1.44-.24.62-.42.18-.18.32-.39.42-.62.1-.23.14-.47.14-.73s-.05-.51-.14-.74c-.1-.23-.23-.44-.41-.62-.18-.18-.39-.32-.62-.42-.23-.1-.47-.14-.73-.14s-.5.05-.73.14-.43.23-.61.42c-.18.18-.32.39-.42.62-.1.23-.14.48-.14.74s.05.5.14.73c.09.23.23.44.42.62.19.19.39.33.62.42.23.1.47.14.73.14Z"/>
      <path class="cls-1" d="m151.43,290.25h.56v2.89c0,.47.1.81.3,1.03.2.22.51.33.94.33s.74-.11.94-.33c.2-.22.3-.56.3-1.03v-2.89h.56v2.89c0,.63-.15,1.1-.45,1.41-.3.31-.75.47-1.35.47s-1.05-.16-1.35-.47c-.3-.31-.45-.78-.45-1.41v-2.89Z"/>
      <path class="cls-1" d="m156.13,294.9v-4.83l3.4,3.71v-3.53h.53v4.82l-3.4-3.67v3.49h-.53Z"/>
      <path class="cls-1" d="m161.16,294.9v-4.64h.89c.66,0,1.12.03,1.39.1.27.07.51.18.71.33.27.21.47.47.61.79.14.32.21.69.21,1.1s-.07.78-.2,1.1c-.14.32-.34.58-.61.78-.2.16-.43.27-.69.33-.26.07-.66.1-1.21.1h-1.09Zm.56-.52h.35c.57,0,.97-.02,1.19-.07.22-.05.4-.13.55-.26.19-.16.33-.36.43-.61.1-.25.15-.54.15-.86s-.05-.61-.15-.86c-.1-.25-.24-.45-.44-.61-.15-.12-.33-.21-.56-.26-.23-.05-.62-.08-1.18-.08h-.35v3.61Z"/>
      <path class="cls-1" d="m167.22,290.07l2.11,4.83h-.6l-.6-1.42h-1.81l-.6,1.42h-.6l2.11-4.83Zm0,1.22l-.74,1.71h1.48l-.74-1.71Z"/>
      <path class="cls-1" d="m170.27,294.9v-4.12h-1.31v-.53h3.18v.53h-1.31v4.12h-.56Z"/>
      <path class="cls-1" d="m172.75,294.9v-4.64h.55v4.64h-.55Z"/>
      <path class="cls-1" d="m179.18,292.58c0,.33-.06.64-.18.94-.12.29-.3.55-.54.78-.23.23-.51.4-.81.53-.31.12-.62.19-.95.19s-.64-.06-.95-.19c-.3-.12-.57-.3-.81-.53-.24-.23-.42-.49-.54-.79-.12-.29-.19-.61-.19-.94s.06-.65.19-.94c.12-.29.3-.56.54-.79.23-.23.5-.4.81-.52.3-.12.62-.18.95-.18s.65.06.95.18c.31.12.57.3.81.52.23.23.41.49.54.78.12.29.18.61.18.94Zm-2.48,1.91c.25,0,.5-.05.73-.14.23-.1.44-.24.62-.42.18-.18.32-.39.42-.62.1-.23.14-.47.14-.73s-.05-.51-.14-.74c-.1-.23-.23-.44-.41-.62-.18-.18-.39-.32-.62-.42-.23-.1-.47-.14-.73-.14s-.5.05-.73.14-.43.23-.61.42c-.18.18-.32.39-.42.62-.1.23-.14.48-.14.74s.05.5.14.73c.09.23.23.44.42.62.19.19.39.33.62.42.23.1.47.14.73.14Z"/>
      <path class="cls-1" d="m180.08,294.9v-4.83l3.4,3.71v-3.53h.53v4.82l-3.4-3.67v3.49h-.53Z"/>
    </g>
    <g>
      <path class="cls-1" d="m74.33,279.25c-.2-.21-.37-.38-.58-.54-.13.13-.27.3-.4.48.2.17.38.33.59.52.14-.13.24-.26.38-.46Z"/>
      <path class="cls-1" d="m73.36,279.31c-.2-.21-.37-.38-.58-.54-.13.13-.27.3-.4.48.2.17.38.33.59.52.14-.13.24-.26.38-.46Z"/>
      <path class="cls-1" d="m92.1,281.87c-.16.14-.31.29-.45.45.07.3.13.62.13.82,0,.15-.13.23-.27.23-.24,0-.52-.2-.52-.58,0-.14.03-.33.07-.49l-.03-.02-.3.18c-.16.52-.18.67-.36.8-.14.1-.3.15-.45.15-.16,0-.26-.1-.26-.25s.14-.4.34-.73l-.02-.03-.39.14-.28.4c-.24.35-.61.46-1.06.47h-4.32c-.48,0-.83-.15-.83-.54,0-.19.06-.47.13-.69l-.02-.02-.38.26c-.05.22-.08.32-.1.4-.06.22-.14.38-.29.48-.08.05-.18.11-.35.11-.2,0-.28-.16-.28-.29,0-.19.06-.37.21-.76l-.02-.02-.38.18-.12.3c-.08.18-.2.35-.33.44-.13.1-.29.15-.44.15-.16,0-.27-.1-.27-.25s.14-.39.33-.72l-.02-.03-.39.14-.25.39c-.25.34-.61.46-1.06.47h-4.33c-.22,0-.41-.03-.53-.13-.15-.13-.19-.36-.19-.71-.01-.78-.01-1.57-.03-2.35h-.06c-.14.12-.27.27-.4.41l.03.38c-.87.48-1.4.94-1.61,1.39-.12.26-.17.44-.17.59,0,.4.39.59.92.59.39,0,.71-.1,1-.22.19.57.55.7,1.04.7h4.23c.34,0,.77-.07,1.07-.43h.02c.03.3.21.43.48.43.37,0,.65-.17.87-.42h.02c.08.35.33.42.55.42.29,0,.58-.14.86-.47h.03c.13.28.41.47,1.04.47h4.25c.34,0,.77-.07,1.07-.43h.02c.03.3.21.43.48.43.37,0,.66-.19.88-.43h.04c.18.26.41.42.63.42.29,0,.55-.24.75-.55.09-.18.18-.46.18-.69,0-.21-.02-.52-.08-.9l-.03-.02Zm-19.25,1.07c-.34,0-.65-.09-.65-.28,0-.27.47-.64,1.37-1.1l.03,1.25c-.3.1-.53.14-.75.14Z"/>
      <path class="cls-1" d="m93.59,280.75v.02c-.09.03-.19.11-.23.17l-.12.21v.02c.38-.17.82-.3,1.32-.38.07-.1.14-.22.2-.34v-.02c-.17.01-.34.02-.51.02-.3,0-.72-.08-.72-.32,0-.08.18-.18.35-.18.06,0,.12,0,.16.02.06.02.11.09.16.2h.01c.08-.1.16-.2.16-.33s-.12-.25-.32-.25-.44.13-.61.29c-.14.13-.24.31-.24.44,0,.22.16.37.39.44Z"/>
      <path class="cls-1" d="m105.9,281.61c-.24,0-.45.12-.64.29-.19.2-.23.46-.37.61-.46.5-.95.56-1.59.67,0,0-.98.14-1.33.17-.5.04-2.08.06-2.08.06h-4.48c-.14-1.03-.62-1.68-1.08-1.68-.32,0-.59.21-.78.48-.15.21-.26.47-.26.81,0,.71.52,1.03,1.55,1.03h.25c-.07.26-.23.46-.47.71-.43.44-.89.7-1.4.7-.3,0-.54-.08-.74-.18l-.09.17c.48.3.99.51,1.45.51.27,0,.83-.27,1.22-.86.21-.32.36-.72.38-1.03h4.45s1.58-.04,2.08-.07c.29-.02.89-.1,1.18-.16.69-.13,1.24-.21,1.73-.43h.04c.5.37,1,.6,1.5.6.24,0,.43-.19.53-.65-.08-.88-.44-1.73-1.06-1.73Zm-11.74,1.72c-.31-.09-.55-.24-.55-.5,0-.2.29-.44.57-.44.19,0,.37.1.53.28.17.19.3.45.35.74-.33,0-.63,0-.91-.08Zm12.25.02c-.2,0-.41-.07-.6-.15-.3-.13-.56-.29-.71-.51.15-.33.39-.49.68-.49.32,0,.65.34.8,1.1-.02.05-.09.06-.16.06Z"/>
    </g>
    <g>
      <path class="cls-1" d="m142.44,288.49v-8.59h2.02l3.69,5.25h.02v-5.25h2.02v8.59h-2.02l-3.69-5.26h-.02v5.26h-2.02Z"/>
      <path class="cls-1" d="m157.25,286.99h-3.08l-.59,1.49h-2.37l3.3-8.59h2.44l3.24,8.59h-2.38l-.56-1.49Zm-.6-1.71l-.91-2.73h-.02l-.92,2.73h1.86Z"/>
      <path class="cls-1" d="m160.81,288.49v-8.59h3.17c1.2,0,2.23.42,3.08,1.25s1.28,1.85,1.28,3.05-.43,2.22-1.28,3.05-1.88,1.25-3.08,1.25h-3.17Zm2.23-6.7v4.81h.5c.71,0,1.3-.2,1.77-.6.47-.4.7-1,.7-1.8,0-.75-.22-1.34-.67-1.77-.45-.43-1.04-.64-1.78-.64h-.52Z"/>
      <path class="cls-1" d="m172.18,279.9v8.59h-2.23v-8.59h2.23Z"/>
      <path class="cls-1" d="m173.46,288.49l1.46-8.59h2.2l1.74,4.59,1.85-4.59h2.22l1.3,8.59h-2.23l-.63-4.94h-.02l-2.06,4.94h-.89l-1.97-4.94h-.02l-.72,4.94h-2.22Z"/>
    </g>
    <path class="cls-1" d="m136.75,278.77h0l-11.49-6.7-11.56,6.69h0s-1.6.92-1.6.92v15.34l11.55,6.7h0s1.48.86,1.48.86h0s.07.04.07.04h0s0,0,0,0l1.61-.93h0l11.49-6.6v-15.41l-1.57-.92Zm1.28,2.72l-7.3,4.17,3.05,1.77v3.08l-7.04-4.09v-8.08l2.64,1.56v3.62l7.38-4.42,1.27.74v1.63Zm-11.49,20.04l-1.32.76-1.26-.73v-8.61l-3.04,1.86-2.57-1.59,6.88-4.01,6.95,4.08-2.6,1.48-3.03-1.9v8.67Zm3.17-6.51l3.04-1.74-7.53-4.42-7.45,4.34,3,1.85v3.06l-7-4.17v-8.08l2.6,1.56v3.64l7.59-4.47v-8.76l-3.04,1.74-2.56-1.44,6.87-4.05,6.88,4.01-2.57,1.56-3.08-1.83v8.77l7.63,4.43v-3.59l2.64-1.56v8.08l-7,4.11v-3.04Zm-16-15.92l7.35,4.45v-3.72l2.6-1.49v8.09l-7,4.13v-3.12l3-1.73-7.25-4.22v-1.63l1.3-.75Zm11.56-6.69l11.2,6.53-6.79,4.07v-3.1l3-1.83-7.45-4.34-7.46,4.4,3.01,1.69v3.2l-6.77-4.09,11.27-6.53Zm-12.86,22.44v-13.03l6.66,3.88-2.55,1.47-3.05-1.83v8.77l7.59,4.52v-3.58l2.6-1.59v7.91l-11.25-6.53Zm14.42,6.51v-7.96l2.58,1.62v3.56l7.59-4.46v-8.77l-3.08,1.83-2.61-1.51,6.71-3.84v13.1l-11.2,6.43Z"/>
  </g>
  <g>
    <path class="cls-1" d="m72.54,414.12c-.34-1.75-.72-3.48-.99-5.24-.14-.91.26-1.76,1.05-2.21,1.19-.67,2.45-1.2,3.68-1.78.09-.04.22,0,.35,0,.01.15.03.28.03.42.02.82.42,1.35,1.15,1.67,1.39.6,2.86.72,4.33.76,1.94.06,3.87-.13,5.77-.55.15-.03.28-.1.52-.18-.75-.82-.67-1.64-.06-2.48.63.45.89,1.07.85,1.85-.06,1.32-.62,2.05-1.87,2.31-2.92.61-5.85.79-8.78.13-.19-.04-.37-.09-.55-.17-.54-.22-1.08-.51-1.35.36-.02.07-.3.11-.43.08-.5-.12-.99-.29-1.49-.43-.62-.18-1.15-.46-1.18-1.38-.43.26-.8.42-1.08.69-.16.15-.26.49-.22.71.16.86.34,1.73.61,2.57.32,1,.14,1.93-.36,2.88Zm2.31-7.37c0,.08,0,.16-.01.24.42.17.85.33,1.45.57-.14-.47-.21-.99-.32-1-.36-.04-.74.11-1.11.19Z"/>
    <path class="cls-1" d="m96.24,408.57c-.46,1.17-1.38,1.58-2.46,1.68-.72.07-1.45.12-2.18.1-.56-.01-.84-.35-.83-.91.02-.51.11-1.02.19-1.68.26.43.36.78.58.92.26.16.62.16.95.18,1.07.05,2.1-.09,3.08-.55.42-.19.61-.44.38-.92-.14-.3-.2-.64-.34-.94-.36-.76-.28-1.47.17-2.27.41,1.11.83,2.16,1.18,3.22.23.72.67,1.09,1.39,1.21,2.32.4,4.62.32,6.89-.34.17-.05.33-.1.49-.17.05-.02.08-.08.11-.12-.36-.97-.35-1.07.35-2.16.2.33.43.59.53.9.33,1.08-.39,2.69-1.45,2.99-1.21.34-2.46.59-3.71.71-1,.1-2.03-.04-3.04-.08-.97-.04-1.68-.48-2.02-1.45-.03-.07-.07-.14-.11-.21-.02-.03-.06-.05-.15-.12Z"/>
    <path class="cls-1" d="m81.75,411.17c.31-.31.6-.6.92-.9.07.04.16.07.23.12q.93.72,1.81-.02c.06-.05.12-.09.22-.18.16.16.32.32.49.46.16.14.33.27.53.45-.39.36-.71.66-1.07,1.01-.34-.29-.7-.59-1.07-.91-.12.09-.22.15-.3.22q-.94.79-1.76-.25Z"/>
    <path class="cls-1" d="m102.28,404.84c-.37.38-.67.7-1.02,1.06-.36-.35-.7-.68-1.06-1.04.38-.35.74-.68,1.14-1.05.27.3.59.64.95,1.03Z"/>
    <g>
      <path class="cls-1" d="m142.51,413.21v-4.64h2.45v.5h-1.9v1.33h1.9v.51h-1.9v2.29h-.55Z"/>
      <path class="cls-1" d="m150.55,410.9c0,.33-.06.64-.18.94-.12.29-.3.55-.54.78-.23.23-.51.4-.81.53-.31.12-.62.19-.95.19s-.64-.06-.95-.19c-.3-.12-.57-.3-.81-.53-.24-.23-.42-.49-.54-.79-.12-.29-.19-.61-.19-.94s.06-.65.19-.94c.12-.29.3-.56.54-.79.23-.23.5-.4.81-.52.3-.12.62-.18.95-.18s.65.06.95.18c.31.12.57.3.81.52.23.23.41.49.54.78.12.29.18.61.18.94Zm-2.48,1.91c.25,0,.5-.05.73-.14.23-.1.44-.24.62-.42.18-.18.32-.39.42-.62.1-.23.14-.47.14-.73s-.05-.51-.14-.74c-.1-.23-.23-.44-.41-.62-.18-.18-.39-.32-.62-.42-.23-.1-.47-.14-.73-.14s-.5.05-.73.14-.43.23-.61.42c-.18.18-.32.39-.42.62-.1.23-.14.48-.14.74s.05.5.14.73c.09.23.23.44.42.62.19.19.39.33.62.42.23.1.47.14.73.14Z"/>
      <path class="cls-1" d="m151.43,408.57h.56v2.89c0,.47.1.81.3,1.03.2.22.51.33.94.33s.74-.11.94-.33c.2-.22.3-.56.3-1.03v-2.89h.56v2.89c0,.63-.15,1.1-.45,1.41-.3.31-.75.47-1.35.47s-1.05-.16-1.35-.47c-.3-.31-.45-.78-.45-1.41v-2.89Z"/>
      <path class="cls-1" d="m156.13,413.21v-4.83l3.4,3.71v-3.53h.53v4.82l-3.4-3.67v3.49h-.53Z"/>
      <path class="cls-1" d="m161.16,413.21v-4.64h.89c.66,0,1.12.03,1.39.1.27.07.51.18.71.33.27.21.47.47.61.79.14.32.21.69.21,1.1s-.07.78-.2,1.1c-.14.32-.34.58-.61.78-.2.16-.43.27-.69.33-.26.07-.66.1-1.21.1h-1.09Zm.56-.52h.35c.57,0,.97-.02,1.19-.07.22-.05.4-.13.55-.26.19-.16.33-.36.43-.61.1-.25.15-.54.15-.86s-.05-.61-.15-.86c-.1-.25-.24-.45-.44-.61-.15-.12-.33-.21-.56-.26-.23-.05-.62-.08-1.18-.08h-.35v3.61Z"/>
      <path class="cls-1" d="m167.22,408.39l2.11,4.83h-.6l-.6-1.42h-1.81l-.6,1.42h-.6l2.11-4.83Zm0,1.22l-.74,1.71h1.48l-.74-1.71Z"/>
      <path class="cls-1" d="m170.27,413.21v-4.12h-1.31v-.53h3.18v.53h-1.31v4.12h-.56Z"/>
      <path class="cls-1" d="m172.75,413.21v-4.64h.55v4.64h-.55Z"/>
      <path class="cls-1" d="m179.18,410.9c0,.33-.06.64-.18.94-.12.29-.3.55-.54.78-.23.23-.51.4-.81.53-.31.12-.62.19-.95.19s-.64-.06-.95-.19c-.3-.12-.57-.3-.81-.53-.24-.23-.42-.49-.54-.79-.12-.29-.19-.61-.19-.94s.06-.65.19-.94c.12-.29.3-.56.54-.79.23-.23.5-.4.81-.52.3-.12.62-.18.95-.18s.65.06.95.18c.31.12.57.3.81.52.23.23.41.49.54.78.12.29.18.61.18.94Zm-2.48,1.91c.25,0,.5-.05.73-.14.23-.1.44-.24.62-.42.18-.18.32-.39.42-.62.1-.23.14-.47.14-.73s-.05-.51-.14-.74c-.1-.23-.23-.44-.41-.62-.18-.18-.39-.32-.62-.42-.23-.1-.47-.14-.73-.14s-.5.05-.73.14-.43.23-.61.42c-.18.18-.32.39-.42.62-.1.23-.14.48-.14.74s.05.5.14.73c.09.23.23.44.42.62.19.19.39.33.62.42.23.1.47.14.73.14Z"/>
      <path class="cls-1" d="m180.08,413.21v-4.83l3.4,3.71v-3.53h.53v4.82l-3.4-3.67v3.49h-.53Z"/>
    </g>
    <g>
      <path class="cls-1" d="m74.33,397.56c-.2-.21-.37-.38-.58-.54-.13.13-.27.3-.4.48.2.17.38.33.59.52.14-.13.24-.26.38-.46Z"/>
      <path class="cls-1" d="m73.36,397.63c-.2-.21-.37-.38-.58-.54-.13.13-.27.3-.4.48.2.17.38.33.59.52.14-.13.24-.26.38-.46Z"/>
      <path class="cls-1" d="m92.1,400.19c-.16.14-.31.29-.45.45.07.3.13.62.13.82,0,.15-.13.23-.27.23-.24,0-.52-.2-.52-.58,0-.14.03-.33.07-.49l-.03-.02-.3.18c-.16.52-.18.67-.36.8-.14.1-.3.15-.45.15-.16,0-.26-.1-.26-.25s.14-.4.34-.73l-.02-.03-.39.14-.28.4c-.24.35-.61.46-1.06.47h-4.32c-.48,0-.83-.15-.83-.54,0-.19.06-.47.13-.69l-.02-.02-.38.26c-.05.22-.08.32-.1.4-.06.22-.14.38-.29.48-.08.05-.18.11-.35.11-.2,0-.28-.16-.28-.29,0-.19.06-.37.21-.76l-.02-.02-.38.18-.12.3c-.08.18-.2.35-.33.44-.13.1-.29.15-.44.15-.16,0-.27-.1-.27-.25s.14-.39.33-.72l-.02-.03-.39.14-.25.39c-.25.34-.61.46-1.06.47h-4.33c-.22,0-.41-.03-.53-.13-.15-.13-.19-.36-.19-.71-.01-.78-.01-1.57-.03-2.35h-.06c-.14.12-.27.27-.4.41l.03.38c-.87.48-1.4.94-1.61,1.39-.12.26-.17.44-.17.59,0,.4.39.59.92.59.39,0,.71-.1,1-.22.19.57.55.7,1.04.7h4.23c.34,0,.77-.07,1.07-.43h.02c.03.3.21.43.48.43.37,0,.65-.17.87-.42h.02c.08.35.33.42.55.42.29,0,.58-.14.86-.47h.03c.13.28.41.47,1.04.47h4.25c.34,0,.77-.07,1.07-.43h.02c.03.3.21.43.48.43.37,0,.66-.19.88-.43h.04c.18.26.41.42.63.42.29,0,.55-.24.75-.55.09-.18.18-.46.18-.69,0-.21-.02-.52-.08-.9l-.03-.02Zm-19.25,1.07c-.34,0-.65-.09-.65-.28,0-.27.47-.64,1.37-1.1l.03,1.25c-.3.1-.53.14-.75.14Z"/>
      <path class="cls-1" d="m93.59,399.07v.02c-.09.03-.19.11-.23.17l-.12.21v.02c.38-.17.82-.3,1.32-.38.07-.1.14-.22.2-.34v-.02c-.17.01-.34.02-.51.02-.3,0-.72-.08-.72-.32,0-.08.18-.18.35-.18.06,0,.12,0,.16.02.06.02.11.09.16.2h.01c.08-.1.16-.2.16-.33s-.12-.25-.32-.25-.44.13-.61.29c-.14.13-.24.31-.24.44,0,.22.16.37.39.44Z"/>
      <path class="cls-1" d="m105.9,399.92c-.24,0-.45.12-.64.29-.19.2-.23.46-.37.61-.46.5-.95.56-1.59.67,0,0-.98.14-1.33.17-.5.04-2.08.06-2.08.06h-4.48c-.14-1.03-.62-1.68-1.08-1.68-.32,0-.59.21-.78.48-.15.21-.26.47-.26.81,0,.71.52,1.03,1.55,1.03h.25c-.07.26-.23.46-.47.71-.43.44-.89.7-1.4.7-.3,0-.54-.08-.74-.18l-.09.17c.48.3.99.51,1.45.51.27,0,.83-.27,1.22-.86.21-.32.36-.72.38-1.03h4.45s1.58-.04,2.08-.07c.29-.02.89-.1,1.18-.16.69-.13,1.24-.21,1.73-.43h.04c.5.37,1,.6,1.5.6.24,0,.43-.19.53-.65-.08-.88-.44-1.73-1.06-1.73Zm-11.74,1.72c-.31-.09-.55-.24-.55-.5,0-.2.29-.44.57-.44.19,0,.37.1.53.28.17.19.3.45.35.74-.33,0-.63,0-.91-.08Zm12.25.02c-.2,0-.41-.07-.6-.15-.3-.13-.56-.29-.71-.51.15-.33.39-.49.68-.49.32,0,.65.34.8,1.1-.02.05-.09.06-.16.06Z"/>
    </g>
    <g>
      <path class="cls-1" d="m142.44,406.8v-8.59h2.02l3.69,5.25h.02v-5.25h2.02v8.59h-2.02l-3.69-5.26h-.02v5.26h-2.02Z"/>
      <path class="cls-1" d="m157.25,405.31h-3.08l-.59,1.49h-2.37l3.3-8.59h2.44l3.24,8.59h-2.38l-.56-1.49Zm-.6-1.71l-.91-2.73h-.02l-.92,2.73h1.86Z"/>
      <path class="cls-1" d="m160.81,406.8v-8.59h3.17c1.2,0,2.23.42,3.08,1.25s1.28,1.85,1.28,3.05-.43,2.22-1.28,3.05-1.88,1.25-3.08,1.25h-3.17Zm2.23-6.7v4.81h.5c.71,0,1.3-.2,1.77-.6.47-.4.7-1,.7-1.8,0-.75-.22-1.34-.67-1.77-.45-.43-1.04-.64-1.78-.64h-.52Z"/>
      <path class="cls-1" d="m172.18,398.21v8.59h-2.23v-8.59h2.23Z"/>
      <path class="cls-1" d="m173.46,406.8l1.46-8.59h2.2l1.74,4.59,1.85-4.59h2.22l1.3,8.59h-2.23l-.63-4.94h-.02l-2.06,4.94h-.89l-1.97-4.94h-.02l-.72,4.94h-2.22Z"/>
    </g>
    <path class="cls-1" d="m136.75,397.08h0l-11.49-6.7-11.56,6.69h0s-1.6.92-1.6.92v15.34l11.55,6.7h0s1.48.86,1.48.86h0s.07.04.07.04h0s0,0,0,0l1.61-.93h0l11.49-6.6v-15.41l-1.57-.92Zm1.28,2.72l-7.3,4.17,3.05,1.77v3.08l-7.04-4.09v-8.08l2.64,1.56v3.62l7.38-4.42,1.27.74v1.63Zm-11.49,20.04l-1.32.76-1.26-.73v-8.61l-3.04,1.86-2.57-1.59,6.88-4.01,6.95,4.08-2.6,1.48-3.03-1.9v8.67Zm3.17-6.51l3.04-1.74-7.53-4.42-7.45,4.34,3,1.85v3.06l-7-4.17v-8.08l2.6,1.56v3.64l7.59-4.47v-8.76l-3.04,1.74-2.56-1.44,6.87-4.05,6.88,4.01-2.57,1.56-3.08-1.83v8.77l7.63,4.43v-3.59l2.64-1.56v8.08l-7,4.11v-3.04Zm-16-15.92l7.35,4.45v-3.72l2.6-1.49v8.09l-7,4.13v-3.12l3-1.73-7.25-4.22v-1.63l1.3-.75Zm11.56-6.69l11.2,6.53-6.79,4.07v-3.1l3-1.83-7.45-4.34-7.46,4.4,3.01,1.69v3.2l-6.77-4.09,11.27-6.53Zm-12.86,22.44v-13.03l6.66,3.88-2.55,1.47-3.05-1.83v8.77l7.59,4.52v-3.58l2.6-1.59v7.91l-11.25-6.53Zm14.42,6.51v-7.96l2.58,1.62v3.56l7.59-4.46v-8.77l-3.08,1.83-2.61-1.51,6.71-3.84v13.1l-11.2,6.43Z"/>
  </g>
</svg>