<?xml version="1.0" encoding="UTF-8"?>
<svg id="Layer_1" data-name="Layer 1" xmlns="http://www.w3.org/2000/svg" viewBox="0 0 841.89 595.28">
  <defs>
    <style>
      .cls-1 {
        fill: #18213e;
      }

      .cls-1, .cls-2 {
        stroke-width: 0px;
      }

      .cls-2 {
        fill: #1c4148;
      }
    </style>
  </defs>
  <path class="cls-2" d="m376.39,372.55l-123.88,72.22c-1.1.64-2.28.68-3.39.03l-124.12-71.91c-1.14-.66-1.59-1.45-1.79-2.77l-.06-82.53-.1-62.12c.19-1.11.49-1.99,1.46-2.56l124.4-72.52c.93-.54,2.18-.47,3.1.06l124.32,72.03c1.07.62,1.43,1.44,1.62,2.67l.07,68.58.07,28.46.05,47.68c-.22,1.19-.54,1.9-1.75,2.66Zm-124.27-206.36l70.7,40.96c1.03.6,1.62,1.5,1.62,2.51s-.6,1.94-1.53,2.56l-27.12,15.8v22.53s56.22-32.76,56.22-32.76l-101.61-58.87-101.47,59.14,56.22,32.55.07-22.44-27.32-15.83c-.95-.64-1.45-1.6-1.37-2.61.07-.89.58-1.79,1.52-2.34l70.32-40.99c1.2-.7,2.3-1.04,3.74-.2Zm.21,143.79l70.64,40.92c1.13.65,1.67,1.54,1.64,2.67-.02.95-.59,1.83-1.52,2.43l-27.15,15.83.09,22.48,60.55-35.29-.19-70.36-19.27,11.19v31.5c-.08,1.08-.49,2.16-1.24,2.61s-2.01.62-2.99.05l-71.02-41.15c-.89-.52-1.56-1.54-1.56-2.57l-.05-47.09-.08-35.22c0-1.01.44-2.17,1.04-2.58.83-.57,1.87-.59,2.92-.36l27.55,15.97,19.34-11.29-60.61-35.14-60.53,35.3,19.34,11.24,27.39-15.95c.89-.39,2.1-.38,2.88.12.58.38,1.2,1.41,1.2,2.47l.15,82.21c0,1.35-.54,2.33-1.65,2.97l-70.88,41.32c-.92.54-2.17.32-2.82-.03-.89-.48-1.25-1.49-1.38-2.59l-.06-31.57-19.32-11.15.02,61.81.16,8.67,60.49,35.03v-22.49s-27.13-15.71-27.13-15.71c-.92-.59-1.56-1.43-1.58-2.37-.02-.88.4-2.02,1.34-2.57l71.07-41.43c.96-.56,2.13-.5,3.22.13Zm117.55-70.53l-.03-11.36-9.78-5.61-68.36,39.85c-.86.5-2.28.16-2.9-.3s-.95-1.37-1.1-2.33l-.02-31.66-19.36-11.19.06,70.41,60.58,35.09.07-22.45-27.48-15.93c-.86-.72-1.33-1.62-1.24-2.66.07-.92.71-1.73,1.71-2.31l67.85-39.56Zm-170.45,39.88c1.12.65,1.44,1.71,1.41,2.57-.03.91-.6,1.76-1.47,2.35l-27.23,15.88.16,22.44,60.48-35.25-.16-70.38-19.31,11.22.02,31.55c-.14,1.11-.56,2.14-1.38,2.61-.65.37-1.87.52-2.73.03l-68.32-39.58-9.76,5.68.04,11.34,68.26,39.55Zm88.44,124.07v-31.59s-19.32-11.16-19.32-11.16l.02,65.37,101.47-59.15-.04-35.91-.08-28.71-.05-53.4-56.18,32.76,19.36,11.24,27.52-16.04c1.03-.24,2.01-.23,2.78.28.54.36,1.15,1.32,1.15,2.28l.18,82.25c0,1.39-.56,2.4-1.71,3.07l-70.89,41.33c-.93.54-2.22.28-2.91-.12-.74-.42-1.12-1.35-1.29-2.5Zm-78.58,2.66l-70.76-40.99c-1.32-.76-1.85-1.85-1.85-3.45l-.03-81.89c0-1.12.77-2.16,1.44-2.49.88-.43,1.8-.36,2.78.04l27.29,15.79,19.29-11.31-56.24-32.6.11,117.99,101.61,58.88-.02-49.13-.1-16.22-19.32,11.26.05,31.94c0,.95-.87,1.97-1.48,2.24-.69.31-1.79.49-2.76-.07Zm41.52,30.34l9.69-5.7-.06-72.88-.04-6.56c0-.76.66-1.9,1.22-2.21.77-.43,1.76-.49,2.72-.24l27.6,15.99,19.3-11.31-60.62-35.14-60.48,35.28,19.32,11.27,27.12-15.83c1.03-.46,1.98-.54,2.92-.1.68.32,1.42,1.46,1.42,2.4l.05,18.01.05,61.33,9.79,5.69Z"/>
  <g>
    <path class="cls-1" d="m702.47,295.14c3.56-5.69,6.59-11.83,9.03-18.35,3.69-9.86,6.07-20.6,7.06-31.94.51-5.82.32-13.39-.46-18.41l-.43-2.76-2.18-1.76c-4.12-3.32-10.89-7.89-15.88-10.22-20.8-9.7-42.61-13.43-63.08-10.79-18.96,2.45-36.24,10.34-50.38,22.92-6.27-5.61-13.13-10.3-20.46-13.97-5.49-2.75-11.25-4.93-17.2-6.53-2.81,4.29-5.14,8.7-6.97,13.22,14.79,3.33,28.27,10.82,39.43,22.35l5.2,5.37,5.2-5.37c25.39-26.23,64.53-31.62,102.15-14.08,3,1.4,7.29,4.16,10.62,6.61.31,3.74.34,8.56.03,12.15-1.3,14.87-5.16,28.12-11.28,39.41,1.97,2.11,3.85,4.31,5.62,6.6,1.39,1.79,2.71,3.64,3.98,5.54Z"/>
    <g>
      <path class="cls-1" d="m536.64,331.63l2.01-7.16-7.22-1.81c-35.89-8.99-58.54-37.81-62.15-79.07-.42-4.83-.56-9.22-.41-12.39,3.4-2.34,8.01-4.95,11.06-6.38,13.51-6.3,27.03-9.67,40-10.18.89-2.72,1.92-5.41,3.09-8.08.95-2.17,1.99-4.32,3.11-6.44-17.12-.43-35.01,3.5-52.32,11.57-4.69,2.19-12.1,6.51-16.38,9.96l-2.18,1.76-.43,2.76c-.85,5.42-.45,13.14.04,18.67.99,11.34,3.32,22.09,6.92,31.93,3.65,9.97,8.61,19.04,14.74,26.95,6.26,8.08,13.75,14.97,22.27,20.47,6.78,4.39,14.23,7.91,22.22,10.51-1.67,8.2-2.22,16.36-1.63,24.33.46,6.24,1.61,12.4,3.43,18.43,5.05,0,10-.46,14.81-1.34-4.9-14.06-5.31-29.07-.98-44.5Z"/>
      <path class="cls-1" d="m688.61,312.36c-2.42-4.37-5.2-8.41-8.3-12.12-10.21,10.61-23.38,18.18-39.06,22.11l-7.29,1.83,2.1,7.22c9.98,34.32-3.64,66.76-38.36,91.32-3.28,2.32-7.66,5.09-11.03,6.83-2.19-1.13-5.56-3.11-10.54-6.56-12.03-8.33-21.58-17.62-28.56-27.61-3.66.91-7.39,1.62-11.17,2.11-1.45.19-2.92.34-4.4.47,3.23,5.36,7.06,10.55,11.44,15.5,6.82,7.71,15.05,14.92,24.44,21.43,6.8,4.71,12.26,7.87,16.23,9.38l2.61,1,2.6-1.02c6.59-2.58,15.71-8.98,16.73-9.7,19.17-13.56,32.81-29.41,40.55-47.1,7.36-16.83,9.08-34.64,5.13-53.04,7.97-2.59,15.42-6.08,22.22-10.42,5.29-3.37,10.19-7.26,14.65-11.62Z"/>
    </g>
    <g>
      <g>
        <path class="cls-1" d="m470.05,300.13c-3.56,5.69-6.59,11.83-9.03,18.35-3.69,9.86-6.07,20.6-7.06,31.94-.51,5.82-.32,13.39.46,18.41l.43,2.76,2.18,1.76c4.12,3.32,10.89,7.89,15.88,10.22,16.46,7.68,33.55,11.61,50.11,11.61,4.37,0,8.7-.27,12.97-.83,18.96-2.45,36.24-10.34,50.38-22.93,6.27,5.61,13.13,10.3,20.46,13.97,5.49,2.75,11.25,4.93,17.2,6.53,2.81-4.29,5.14-8.7,6.97-13.22-14.79-3.33-28.27-10.82-39.43-22.35l-5.2-5.37-5.2,5.37c-25.39,26.23-64.53,31.62-102.15,14.08-3-1.4-7.29-4.16-10.62-6.61-.31-3.74-.34-8.56-.03-12.15,1.3-14.87,5.16-28.12,11.28-39.41-1.97-2.11-3.85-4.31-5.62-6.6-1.39-1.79-2.71-3.64-3.98-5.54Z"/>
        <path class="cls-1" d="m574.82,172.56c3.28-2.32,7.66-5.09,11.03-6.83,2.19,1.13,5.56,3.11,10.54,6.56,12.03,8.33,21.58,17.62,28.56,27.61,3.66-.91,7.39-1.62,11.17-2.11,1.45-.19,2.92-.34,4.4-.47-3.23-5.36-7.06-10.55-11.44-15.5-6.82-7.71-15.05-14.92-24.44-21.43-6.8-4.71-12.26-7.87-16.23-9.38l-2.61-1-2.6,1.02c-6.59,2.58-15.71,8.98-16.73,9.7-19.17,13.56-32.81,29.41-40.55,47.1-7.36,16.83-9.08,34.64-5.13,53.04-7.97,2.59-15.42,6.08-22.22,10.42-5.29,3.37-10.19,7.26-14.65,11.62,2.42,4.37,5.2,8.41,8.3,12.12,10.21-10.61,23.38-18.18,39.06-22.11l7.29-1.83-2.1-7.22c-9.98-34.32,3.64-66.76,38.36-91.32Z"/>
      </g>
      <path class="cls-1" d="m717.66,350.42c-.99-11.34-3.32-22.09-6.92-31.93-3.65-9.97-8.61-19.04-14.74-26.95-6.26-8.08-13.75-14.97-22.27-20.47-6.78-4.39-14.23-7.91-22.22-10.51,1.67-8.2,2.22-16.36,1.63-24.33-.46-6.24-1.61-12.4-3.43-18.43-5.05,0-10,.46-14.81,1.34,4.9,14.06,5.31,29.06.98,44.5l-2.01,7.16,7.22,1.81c35.89,8.99,58.54,37.81,62.15,79.07.42,4.83.56,9.22.41,12.39-3.4,2.34-8.01,4.95-11.06,6.38-13.51,6.3-27.03,9.67-40,10.18-.89,2.72-1.92,5.41-3.09,8.08-.95,2.17-1.99,4.32-3.11,6.44.85.02,1.7.04,2.55.04,16.34,0,33.31-3.94,49.77-11.61,4.69-2.19,12.1-6.51,16.38-9.96l2.18-1.76.43-2.76c.85-5.42.45-13.14-.04-18.67Z"/>
    </g>
  </g>
</svg>