<svg version="1.2" xmlns="http://www.w3.org/2000/svg" viewBox="0 0 409 470" width="409" height="470">
	<style>
		.s0 { fill: #07444c } 
	</style>
	<g id="_9PTs-6">
		<path id="TEAL" class="s0" d="m402.48 119.82l-21.97-12.68-173.62-100.24c-1.39-0.8-3.11-0.8-4.5 0l-195.59 112.92c-1.39 0.8-2.25 2.29-2.25 3.9v25.36 200.49c0 0.8 0.21 1.58 0.6 2.25 0.39 0.67 0.95 1.25 1.65 1.65l193.65 111.8 1.94 1.12q1.06 0.6 2.25 0.6 0.59 0 1.16-0.15 0.57-0.15 1.09-0.45l195.59-112.92c1.39-0.8 2.25-2.29 2.25-3.9v-225.85c0-1.61-0.86-3.09-2.25-3.9zm-371.46-3.59l95.85 55.34 8.91 5.15q0.25 0.15 0.54 0.26 0.83 0.34 1.71 0.34 0.59 0 1.16-0.15 0.57-0.15 1.09-0.45c1.39-0.8 2.25-2.29 2.25-3.9v-46.5l35.65-20.58v115.62l-98.01 56.57v-38.69l40.27-23.25q0.37-0.22 0.69-0.5c0.98-0.85 1.56-2.07 1.56-3.39q0-0.61-0.16-1.17c-0.31-1.13-1.05-2.12-2.09-2.72l-106.89-61.72v-20.16l17.48-10.09zm364.71 30.27l-104.76 60.48c-1.39 0.8-2.25 2.29-2.25 3.9 0 1.61 0.86 3.09 2.25 3.9l40.27 23.25v41.16l-100.13-57.81v-113.16l33.52 19.35v46.5q0 0.61 0.15 1.17c0.31 1.13 1.05 2.12 2.09 2.72q1.06 0.6 2.25 0.6c0.62 0 1.25-0.14 1.83-0.39q0.22-0.09 0.42-0.21l1.66-0.96 105.24-60.75 17.46 10.08c0 0 0 20.18 0 20.17zm-126.61-26.74l-40.26-23.24c-1.39-0.8-3.11-0.8-4.5 0-1.39 0.8-2.25 2.29-2.25 3.9l-0.02 123.55c0 1.61 0.86 3.09 2.25 3.9l109.13 63.01q1.07 0.6 2.25 0.6 1.19 0 2.25-0.6c1.39-0.8 2.25-2.29 2.25-3.9v-48.95l33.52-19.35v115.62l-100.13 57.82v-41.17l40.26-23.25c1.39-0.8 2.25-2.29 2.25-3.9 0-1.61-0.86-3.09-2.25-3.9l-106.99-61.79c-1.39-0.8-3.11-0.8-4.5 0l-109.13 63.01c-1.39 0.8-2.25 2.29-2.25 3.9 0 1.61 0.86 3.09 2.25 3.9l42.4 24.48v38.7l-100.13-57.8v-115.63l35.65 20.59v46.49c0 1.61 0.86 3.09 2.25 3.9q1.06 0.6 2.25 0.6 1.18 0 2.25-0.6l107.01-61.76c1.39-0.8 2.25-2.29 2.25-3.9v-126.02c0-1.61-0.86-3.09-2.25-3.9-1.39-0.8-3.11-0.8-4.5 0l-42.4 24.48-33.52-19.35 100.13-57.82 100.14 57.82-35.66 20.58zm-255.58 37.12l95.64 55.22-31.72 18.31-1.79 1.04-42.4-24.49c-1.39-0.8-3.11-0.8-4.5 0-1.39 0.8-2.25 2.29-2.25 3.9v126.03c0 1.61 0.86 3.09 2.25 3.9l109.13 63c1.39 0.8 3.11 0.8 4.5 0 1.39-0.8 2.25-2.29 2.25-3.9v-46.5l33.52-19.35v107.98l-164.62-95.04v-190.09zm173.62 290.33v-120.97c0-1.61-0.85-3.09-2.24-3.9q-1.07-0.6-2.25-0.6-1.19 0-2.25 0.6l-40.27 23.25-35.65-20.58 100.13-57.81 97.99 56.59-33.51 19.35-40.27-23.25c-0.7-0.4-1.48-0.6-2.26-0.6-0.78 0-1.56 0.2-2.25 0.6-1.39 0.8-2.25 2.29-2.25 3.9v123.43l-17.46 10.08-17.48-10.09zm43.94-5.19v-110.43l33.51 19.35v48.96c0 1.61 0.86 3.09 2.25 3.9 1.39 0.8 3.11 0.8 4.5 0l109.14-63.01c1.39-0.8 2.25-2.29 2.25-3.9v-126.01c0-1.61-0.86-3.09-2.26-3.9-1.39-0.8-3.11-0.8-4.5 0l-40.27 23.25-33.52-19.35 93.51-53.98v190.08c0 0-164.62 95.04-164.61 95.04zm138.15-330.98l-95.64 55.22v-38.7l42.41-24.48c1.39-0.8 2.25-2.29 2.25-3.9 0-1.61-0.86-3.09-2.25-3.9l-109.14-63.01c-1.39-0.8-3.11-0.8-4.5 0l-109.13 63.01c-1.39 0.8-2.25 2.29-2.25 3.9 0 1.61 0.86 3.09 2.25 3.9l40.27 23.25v38.7l-93.51-53.99 164.61-95.04c0 0 164.62 95.04 164.63 95.04z"/>
	</g>
</svg>